<svg xmlns="http://www.w3.org/2000/svg" viewBox="0 0 106.06 73.3"><defs><style>.cls-1{fill:#ecb900;}</style></defs><title>Fichier 7</title><g id="Calque_2" data-name="Calque 2"><g id="Calque_1-2" data-name="Calque 1"><path class="cls-1" d="M28.84,50.22a13.25,13.25,0,0,0-1.66-.5c-1-.19-1.72.54-2.45,1.1-.17.14-.31.33-.49.47-1,.86-1.15.87-2.16.14.24-1,.46-2,.7-3A3.3,3.3,0,0,1,24,46.6c.31-.26.61-.54.91-.8l-.12-.17L23,46.89c-.08,0-.12.15-.19.21-1.26,1.17-1.88,1-2.3-.42-.06-.2-.13-.39-.23-.66l-.9.86c.82-2.42-.2-4.31-1.19-6.26l.43.36a6.12,6.12,0,0,1,.48.41c.31.31.58.32.85-.1a3.59,3.59,0,0,0-2.38-1.1,26,26,0,0,1-4-.68c-1.09-.23-2.17-.53-3.3-.81l-.79.87-1.58-.75a13.75,13.75,0,0,1-.4,1.32.77.77,0,0,1-.45.42,13.11,13.11,0,0,1-1.75.23.74.74,0,0,1-.57-.2,12,12,0,0,1-1.63-3.92l1.3-.41a2.19,2.19,0,0,1,1.82.12,1.87,1.87,0,0,0,2.17-.11,7.93,7.93,0,0,1,1.69-.8c.73-.28.79-.22,1,.54l.09.23h.16c0-.32.09-.63.12-1,.07-.69.31-1,1-1,.48-.06.66.12.52.57s-.38.9-.6,1.42c.49-.21.94-.29,1.06-.92s.61-.64,1.09-.6a1,1,0,0,0,1-.57c.7-1.09,1.11-1.07,1.75.06.15.26.28.52.43.79.06,0,.1-.07.1-.1.09-1,.09-1,1.1-.88q2.89.31,5.78.57c.13,0,.37-.1.4-.2A22.62,22.62,0,0,0,26,31.26a17.57,17.57,0,0,0-1.45,1.27,1.77,1.77,0,0,1-2.18.38,22.33,22.33,0,0,1-2.94-1.35c-1-.6-1.67-.15-2.39.42-.36.3-.71.61-1.18,1,.05-.73.09-1.33.13-2.06l.67.94c.6-.56,1.13-1.16,1.75-1.63,1.27-1,2.6-1.89,3.91-2.83a9.35,9.35,0,0,0,1.16-.82,4.08,4.08,0,0,1,2.58-1.14l-.8-.26L24.45,25A1.41,1.41,0,0,1,23.3,23.8c-.33.64-.65,1.27-1,1.93-.45-.25-.86-.45-1.25-.68s-.89-.57-.68-1.1c.12-.32.58-.51.89-.76l.11.12v-.89l-1.48,1.25c-.14-.81-.28-1.59-.42-2.37l-.21,0v1.28l-1.68-.16c0-.46-.07-.89-.11-1.35-.69.36-1.28,1-2.19.62,0,.28-.07.56-.11.91L13.13,22c-.32,1.54-.33,1.58-1.9,1.53a5.26,5.26,0,0,0-3.35,1c-1.29.91-1.4.64-2.58-.13a1.75,1.75,0,0,1-.38-.34,3.57,3.57,0,0,0-3.41-1.42,2.51,2.51,0,0,1-1-.1c-.19-.05-.47-.22-.5-.37s.14-.44.25-.65a.37.37,0,0,1,.18-.14,2.6,2.6,0,0,0,1.34-1.74c.26-.73.44-.84,1.07-.42.88.6,1.67,1.31,2.5,2a4.66,4.66,0,0,0,.72.51,11.39,11.39,0,0,1-2-3.34l1.4.67c-.33-.78-.7-1.63-1-2.5A.75.75,0,0,1,4.45,16c.24-.43.58-.47,1-.19,1.4.94,2.83,1.86,4.23,2.8a.5.5,0,0,1,.15.41,5.41,5.41,0,0,1-.19.77c1.09.14,1.53,0,1.82-.47L9.88,18.19c0-.08,0-.15,0-.22.48-.14,1-.25,1.42-.43s1,.08,1.37-.59c-.62.08-1.12.12-1.61.2a3.29,3.29,0,0,1-4-3c0-.34.07-.88.29-1a1.38,1.38,0,0,1,1.09.13c.88.42,1.72.93,2.57,1.4l.12-.17a5.7,5.7,0,0,1-.53-.41c-1-1-2-1.94-2.9-3-.5-.56-.29-1,.45-1.18a2.17,2.17,0,0,1,1.7.26l1,.61L9.21,8.74l.09-.2,1.62.08-1-.84A2,2,0,0,1,12.23,7a3.05,3.05,0,0,1,2.49,2.83l.72-.51a2.7,2.7,0,0,1,.13.53A1.18,1.18,0,0,0,16.29,11c.62.27.51.94.46,1.51l.14.09a2.41,2.41,0,0,0,.38-.54,8.93,8.93,0,0,0,.17-.9c.16-.64.55-.78,1-.3s.8.95,1.21,1.43c.17.19.38.36.55.55A2.13,2.13,0,0,1,20.46,15c-.13.39-.32.76-.54,1.27a5.35,5.35,0,0,0,1.32-2.38c0-.11,0-.28-.1-.42-.28-.88-.59-1.75-.85-2.64A2.07,2.07,0,0,0,18.65,9.6a.34.34,0,0,1-.25,0,21.24,21.24,0,0,1-2.09-1.92c-.71-.81-.42-1.49.63-1.73a3,3,0,0,1,2.14.32c.92.46,1.18.32,1.29-.71,0-.13,0-.27,0-.47l-1.84.6c.1-.51.18-1,.28-1.5-.81.23-1.54.39-2.25.66a1.65,1.65,0,0,1-1.74-.31c-.36-.28-.69-.58-1.12-1l1.84-.6-.92-1.23a4.77,4.77,0,0,0,.86-.15,3.37,3.37,0,0,0,1.08-.45.74.74,0,0,1,1-.05,4.68,4.68,0,0,0,.72.47,2,2,0,0,0,.81.12c.58,0,1.16-.07,1.8-.13V.63L21.84,2c.25.36.5.72.76,1.07.57.74,1.39,1.4.5,2.49a4.84,4.84,0,0,1,1,.24,4,4,0,0,1,1.23.85,3.51,3.51,0,0,0,1.8,1.4c.38.1.4.39.4.71a6.54,6.54,0,0,0,.71,2.87c.27-.55.52-1,.84-1.63.19,1.59,1.38,1.94,2.7,2.38l-2.27.9c.38.05.72.08,1.05.15a1.22,1.22,0,0,1,1,1.46,4.55,4.55,0,0,1-1.53,3c.56.5.51.86-.29,2.13a4.58,4.58,0,0,1-2.54-2,3.32,3.32,0,0,0,3,3.06l-.32.82L30,22l.75-.59c.72.69.59,1.42-.64,3.49a2.87,2.87,0,0,0,.63-.18c.46-.26.77-.08.88.34a20.22,20.22,0,0,1,.45,2.32c.16,1.09.27,2.19.4,3.29l.23,0V25l.7.76.16,0c-.18-2.89,1.38-4.65,3.74-6,.14.52.24,1,.39,1.43s.49.74,1.08.59a2.65,2.65,0,0,0,2-2.62,11.2,11.2,0,0,0-.63-4c-.27-1-.51-1.94-.69-2.93a1.4,1.4,0,0,1,1-1.8c1.84-.85,2.36-.67,3.26,1.17a17.67,17.67,0,0,1,.82,2.13,2.33,2.33,0,0,0,1.13,1.43,2.31,2.31,0,0,1,1.29,2,1.39,1.39,0,0,0,1.85,1.13c.34-.12.67-1.18.49-1.71-.25-.79-.57-1.56-.8-2.37a1.72,1.72,0,0,1,0-.9c.16-.6.42-1.17.59-1.77a.82.82,0,0,1,.9-.7,1.87,1.87,0,0,0,2-1.06,4.34,4.34,0,0,1,2.27-1.9c0,.25-.06.46-.09.79l.8-.61c.54.5,1.09,1,1.59,1.48a4,4,0,0,1,1.18,3.27c0,.19,0,.37-.05.6l.66.13c-.34-.69,0-1.14.33-1.65A4.11,4.11,0,0,0,59,10.73a6,6,0,0,0,0-.85c0-1.16.65-1.66,1.79-1.43a6.12,6.12,0,0,1,3.74,2.21c.43.53.86,1.06,1.26,1.62a1.11,1.11,0,0,0,1.77-.11c.48-1.11.93-2.24,1.33-3.38a1.49,1.49,0,0,1,.91-.91,1.8,1.8,0,0,1,2.54.87c.16.25.38.47.65.81C74,9,75,8.46,75.9,7.8a1.87,1.87,0,0,0,.63-2.2c-.44-1.5-.85-3-1.32-4.67L77.28.57c.78-.15,1.57-.26,2.33-.48C81-.31,82,.69,81.76,2.22c.67.27,1.33.58,2,.83.39.14.58.33.42.74-.26.71-.53,1.41-.81,2.14l3.5,2c0-.48.08-.94.11-1.39s.17-.7.69-.7a1.94,1.94,0,0,0,1.9-1.2c.09-.17.19-.33.27-.51A2,2,0,0,1,91.77,3h3l-1.18.77c-.76.48-1.52.94-2.25,1.45a.77.77,0,0,0-.29.64,2.46,2.46,0,0,1-1.31,2.91,4.79,4.79,0,0,0-.55.46,10.38,10.38,0,0,0,.8,1.14,1.36,1.36,0,0,0,.77.49,9.94,9.94,0,0,0,2.18-.19.86.86,0,0,1,.81.15,2.33,2.33,0,0,1,.57,3.2,7.16,7.16,0,0,1-.82,1.16,3.11,3.11,0,0,0-.68,2.76l4.36-1.68.12.12a2.21,2.21,0,0,0,.25,2.22,5,5,0,0,0,2.55,1.74,1.8,1.8,0,0,0,1-.19,6,6,0,0,0,.77-.44c.37.74.72,1.46,1.09,2.19l.84-.5a3.63,3.63,0,0,1,.48,3.75,5.51,5.51,0,0,1-1.34,1.06l1,.55-1.92.84,0,.1c.66-.07,1.31-.17,2-.2.44,0,1-.14,1.2.38s-.17.87-.52,1.16a10.75,10.75,0,0,1-1.17.76h1.76a.69.69,0,0,0,.05.13l-1.75,1.31,1.44.58.67-1.52a3.31,3.31,0,0,1-.86,4.26,1,1,0,0,1-1.31-.1c-.57-.5-1.17-1-1.76-1.43-.09-.07-.2-.12-.24-.15L100.2,34s0,0,0,0a3.85,3.85,0,0,1,3.42,1.25,17,17,0,0,0,1.47,1.1l-2,.3c1,0,.9.84,1.25,1.4a2.76,2.76,0,0,1-.37.16c-.42.08-.83.1-.81.74,0,.2-.44.45-.71.62a1.72,1.72,0,0,1-.53.11c.29,1.31.39,1.13-.9,1.81a2.13,2.13,0,0,1-2.94-.55,1,1,0,0,0-.09.13c.29.31.58.61.88.9s.36.29.51.46a.79.79,0,0,1,0,1.22A21,21,0,0,0,98,45.47,4.17,4.17,0,0,0,97.37,48a.76.76,0,0,1-.31.56c-.78.47-1.58.92-2.4,1.31a2,2,0,0,0-1.18,1.47,2.14,2.14,0,0,1-1.71,1.72,7.13,7.13,0,0,1-1.24.08L91.44,52H89.18V50.39l-.24,0c-.17.59-.33,1.17-.49,1.72l1.87.78c0,.09,0,.18,0,.27a14.61,14.61,0,0,1-1.48,0,4.38,4.38,0,0,0-2.71.63A15.41,15.41,0,0,0,81,58a4.5,4.5,0,0,1-.82.87,12.72,12.72,0,0,0-3.38,4.67A.74.74,0,0,1,76,64a26.87,26.87,0,0,0-8.32,1.11A4.19,4.19,0,0,0,64.66,68c-.65,2.53-2.52,3.55-4.84,4.1a11.77,11.77,0,0,0-2.33.69,6.79,6.79,0,0,1-4.47.26,22.53,22.53,0,0,1-5-1.77A10.63,10.63,0,0,0,42.58,70a4,4,0,0,1-3.4-1.56A50.67,50.67,0,0,0,35.31,65l-.63-.5a11.43,11.43,0,0,1,1.11-1,.66.66,0,0,0,.17-1,5.65,5.65,0,0,1-.4.86c-.5.7-1,.74-1.76.33A20.79,20.79,0,0,0,31,62.35c-.56-.21-.77-.47-.69-1a5,5,0,0,0,0-.55c-.63-.09-.87.17-.78.76a.69.69,0,0,1-.62.86,12,12,0,0,1-2.1.43A4.08,4.08,0,0,1,25,62.33,1.13,1.13,0,0,0,24,62.21a10,10,0,0,1-3.6.38s-.08,0-.11,0c-.78-.56-1.54-.15-2.33,0-1,.17-2,.24-3.07.36.15-.88.3-1.64.41-2.4a2.34,2.34,0,0,0,0-1c-.36-1.27.15-2.43.33-3.68a5,5,0,0,1,2.16,2.71l5-1.84-.62-1.19.9-.06c-.32-.3-.57-.54-.83-.77l0-.13,1.1.17a4.69,4.69,0,0,0,1.17.11c.61-.09.68-.34.25-.78a7.43,7.43,0,0,1-.86-.82c-.14-.18-.23-.6-.12-.72a7.83,7.83,0,0,1,2.83-2.31,1.78,1.78,0,0,1,.86,0c.45,0,.89.34,1.44,0M58.92,13.76c1.6,1.77,1.94,4.06,2.71,6.16a20.22,20.22,0,0,0,0-2.58,4.82,4.82,0,0,0-.44-1.62c-.49-1-1.08-1.93-1.65-2.94l-.64,1M97.55,44.22l-.32.12-.64.6c.13.11.31.33.38.3a2.54,2.54,0,0,0,.74-.52c.06-.07-.1-.33-.16-.5m.82-.57,1-.38L98,42.74c.13.36.22.62.33.91"/></g></g></svg>