<svg xmlns="http://www.w3.org/2000/svg" viewBox="0 0 68.36 97.25"><defs><style>.cls-1{fill:#ecb900;}</style></defs><title>Fichier 8</title><g id="Calque_2" data-name="Calque 2"><g id="Calque_1-2" data-name="Calque 1"><path class="cls-1" d="M36.15,0c.1.22.3.46.28.67-.14,1.1.78,1.73,1.1,2.62.16.42.48.48.85.2.2-.16.42-.29.79-.53-.11.6-.19,1-.28,1.49a5.12,5.12,0,0,0,.68-.07,2.23,2.23,0,0,1,2.57,1,1.76,1.76,0,0,0,.77.69c1.86.69,2.42,2.14,2.45,4a25.08,25.08,0,0,0,.23,3c.08.53.23,1.09,1,1.12.15,0,.29.23.44.36-1,1.25-.57,2.54-.16,3.81a1,1,0,0,0,1.13.74c1.21,0,1.6.38,1.91,1.6a7.86,7.86,0,0,0,.39,1l.41-.07a29.8,29.8,0,0,0-.3-5.34c.18,0,.26-.06.28,0,.81,1.12,2.16,1.9,2.31,3.46.11,1.17.12,2.36.25,3.53a4,4,0,0,0,.49,1.62,2.48,2.48,0,0,0,1.09.7c.51.22,1.08.31,1.59.55,1.23.58,2.4,1.32,3.67,1.8s2.06.2,2.92-1,1.78-1.93,3.23-1.63a7.92,7.92,0,0,1,2.06.93.74.74,0,0,1,0,.67,8,8,0,0,0-1.61,4.74,2.7,2.7,0,0,1-1.75,2,.84.84,0,0,0-.8,1c0,.58,0,1.16,0,1.73a9.88,9.88,0,0,1-.11,1.08l-.24.06c-.12-.18-.33-.35-.35-.53A.91.91,0,0,0,62.29,36a12.43,12.43,0,0,0-2.93.63c-1.37.56-1.65,1.25-1.29,2.69a5.44,5.44,0,0,1-1.14,4.84,15.47,15.47,0,0,0-.74,1.4,2.81,2.81,0,0,1-.62.67,6,6,0,0,0-1.2,1c-.75,1.15-1.37,2.38-2.09,3.54a6.78,6.78,0,0,1-3.58,3c-.77.27-1.23.06-1.46-.68-.17-.57-.42-.87-1.07-.54-.17.09-.5-.06-.73-.16s-.32-.31-.51-.4c-.85-.4-.87-.52-.13-1.2,2.1-2,3.35-4.25,2.88-7.22a2.92,2.92,0,0,0-2.25-2.71,7,7,0,0,1-1.86-1.25A11.57,11.57,0,0,0,42,38.58c-.82-.39-1.78-.64-1.89-1.72s.78-1.68,1.66-2.1a7.09,7.09,0,0,1,1.63-.54,1.76,1.76,0,0,0,1.52-1.51c.13-.73.18-1.47.28-2.2a7.85,7.85,0,0,1,.26-1.28c.17-.55.44-1,1.14-1,.2,0,.4-.17.84-.37-.29-.15-.39-.25-.49-.24-1,0-.92-.54-.68-1.23a5.12,5.12,0,0,0-.19-3.61c-.44-1.17-.79-2.38-1.22-3.55-.24-.64-.59-1.23-.87-1.85-.13-.3-.22-.62-.41-1.12l1.32.44a8,8,0,0,0-.37-1.27c-.22-.48-.55-.92-.81-1.39s-.57-.78-1.28-.16c.24.15.48.23.59.39a1.4,1.4,0,0,1,.26.73c0,.08-.38.29-.51.24a1.26,1.26,0,0,1-.71-.53,20.35,20.35,0,0,0-.71-2.08,32.67,32.67,0,0,0-2-3.09c-.68-1-.59-1.35.47-1.86A1.26,1.26,0,0,0,40.24,7a.65.65,0,0,0-.19-.45,1.88,1.88,0,0,0-.73.26,2.94,2.94,0,0,0-.63.64,4.28,4.28,0,0,0-.38.7,9.83,9.83,0,0,1-1.25-1.65,1.4,1.4,0,0,1,.21-1.17c.41-.59.38-1-.22-1.36a2.81,2.81,0,0,1-.73-1C35.85,2.18,35.43,1.3,35,.34L35.32,0Z"/><path class="cls-1" d="M.8,86.65c-.93-.45-1-.73-.5-1.67.24-.46.28-1,.49-1.5.77-1.68,1.57-3.34,2.37-5a.34.34,0,0,1,.19-.16,9.34,9.34,0,0,0,4.37-4.81A4.25,4.25,0,0,1,11.61,71a1.18,1.18,0,0,0,.75-.46,3.27,3.27,0,0,1,1.91-1.32,3.14,3.14,0,0,0,1.91-1.58,4.79,4.79,0,0,1,1.13-1c.17-.13.41-.17.58-.29a35.81,35.81,0,0,0,7-6.37,1.31,1.31,0,0,0,.28-.58c.29-1.56.59-3.11.79-4.68.07-.51.23-.75.7-.83a6.68,6.68,0,0,0,.89-.18,2.8,2.8,0,0,0,2.28-2.71A4.78,4.78,0,0,0,29.89,50c-.22-2.19,1.19-3.21,2.87-4,.74-.36,1-.19.92.66,0,.69.34,1,1,.91s.76.4.78.89c0,.87,0,1.74,0,2.66.71.1,1.35.35,1.7-.51.08-.19.37-.3.58-.42s.66-.33,1-.53c.47-.31.87-.56,1.08.26.13.48.42.52.78.17l.82-.75A2,2,0,0,1,41.31,52c-.6.5-.64.9-.26,1.6a2.73,2.73,0,0,1-.42,3c-.57.8-1.11,1.62-1.68,2.43-.14.19-.35.33-.5.52s-.63.64-.67,1c-.2,1.67-1.31,2.66-2.52,3.59-.43.34-.92.6-1.35.94a2.05,2.05,0,0,0-.48,3.15,22.75,22.75,0,0,0,1.72,2,1.39,1.39,0,0,1-2.1.17c-.9-.83-1.2-.82-2.21-.16a18.78,18.78,0,0,1-1.9,1c-.78.4-1.57.79-2.31,1.25a2.47,2.47,0,0,0-1.25,1.93,1.21,1.21,0,0,1-.92,1.2c-.66.19-.55.79-.2,1.1.69.6.34,1.09,0,1.64a1.92,1.92,0,0,1-.31.47,4.52,4.52,0,0,0-1.15,2.91A2.94,2.94,0,0,1,22.26,83,1.56,1.56,0,0,0,22,84.89c.31.52-.06.73-.46.79s-1.09.08-1.74.13a2.16,2.16,0,0,1-1.69,2.43c-.16.06-.29.37-.32.58a2.15,2.15,0,0,1-1.48,1.82,23.69,23.69,0,0,1-2.56.53.29.29,0,0,1-.16,0,5,5,0,0,0-3.15-.64c-.27,0-.75-.64-1-1.08S8.9,88.72,8.35,89a1.19,1.19,0,0,1-1.54-.36A2,2,0,0,0,4.19,88c-.38.15-.77.3-1.16.42-1.67.49-2.24,0-2.23-1.74"/><path class="cls-1" d="M4.78,92.93c-.16-.46-.24-.78-.37-1.07-.22-.47-.43-1,.17-1.27a1.31,1.31,0,0,1,1.9.51,5.1,5.1,0,0,0,1.7,2.71c.49.39.29.86-.22,1.11a8.74,8.74,0,0,1-2.55,1.14c-1,.13-1.9.1-2.46,1.1-.05.11-.55.13-.64,0a.75.75,0,0,1-.07-.71c.51-.76,1.08-1.47,1.62-2.21.33-.45.63-.91.92-1.33"/></g></g></svg>