<svg xmlns="http://www.w3.org/2000/svg" viewBox="0 0 436.76 193.66"><defs><style>.cls-1,.cls-2,.cls-5{fill:none;stroke-miterlimit:10;}.cls-1{stroke:#ecb900;}.cls-1,.cls-5{stroke-width:10px;}.cls-2,.cls-5{stroke:#fff;}.cls-2{stroke-width:7px;}.cls-3{fill:#ecb900;}.cls-4{fill:#fff;}</style></defs><title>Fichier 7</title><g id="Calque_2" data-name="Calque 2"><g id="Calque_1-2" data-name="Calque 1"><path class="cls-1" d="M75.78,46.61A71,71,0,1,1,5,123.41"/><path class="cls-2" d="M75.78,60.77a56.86,56.86,0,1,1-56.86,56.86c0-1,0-1.92.07-2.88"/><path class="cls-3" d="M61,116v1.61l-7.87,16.47H50.62l7.84-16v0H49.62v-2Z"/><path class="cls-3" d="M65.53,137.49a40.63,40.63,0,0,0,1.67-6.65l2.72-.28a33.56,33.56,0,0,1-2.64,6.76Z"/><path class="cls-3" d="M85.67,118.05h-6.9l-.69,4.64a10.29,10.29,0,0,1,1.47-.11,7.7,7.7,0,0,1,3.89,1A5.17,5.17,0,0,1,86,128.2c0,3.53-2.81,6.18-6.73,6.18a8.83,8.83,0,0,1-4.51-1.12l.62-1.86a8.13,8.13,0,0,0,3.86,1,4,4,0,0,0,4.29-3.92c0-2.34-1.59-4-5.21-4a17.53,17.53,0,0,0-2.5.2L77,116h8.65Z"/><path class="cls-3" d="M101.78,134.34l1.87-4.87h.46l-1.88,4.87Z"/><path class="cls-3" d="M106.35,130.25h0l-.75.42-.12-.46,1-.5h.5v4.36h-.57Z"/><path class="cls-3" d="M112.08,131.84c0,1.48-.55,2.3-1.51,2.3s-1.43-.8-1.45-2.24.63-2.27,1.52-2.27S112.08,130.45,112.08,131.84Zm-2.37.07c0,1.13.35,1.78.89,1.78s.89-.71.89-1.82-.27-1.78-.88-1.78S109.71,130.72,109.71,131.91Z"/><path class="cls-4" d="M51.16,145.68c0-.35,0-.63,0-.91h.53l0,.54h0a1.18,1.18,0,0,1,1.06-.61,1,1,0,0,1,.95.67h0a1.35,1.35,0,0,1,.37-.44,1.18,1.18,0,0,1,.75-.23c.44,0,1.1.29,1.1,1.46v2h-.59v-1.91c0-.64-.24-1-.74-1a.79.79,0,0,0-.72.55,1,1,0,0,0,0,.31v2.08h-.6v-2c0-.53-.23-.92-.7-.92a.84.84,0,0,0-.76.61.94.94,0,0,0,0,.3v2h-.59Z"/><path class="cls-4" d="M60.7,146.43A1.65,1.65,0,0,1,59,148.22a1.6,1.6,0,0,1-1.61-1.74,1.64,1.64,0,0,1,1.67-1.78A1.6,1.6,0,0,1,60.7,146.43Zm-2.67,0c0,.74.42,1.3,1,1.3s1-.55,1-1.31c0-.57-.28-1.29-1-1.29S58,145.82,58,146.46Z"/><path class="cls-4" d="M62.34,144.77l.74,2c.07.22.16.49.21.69h0c.06-.2.13-.46.21-.7l.67-2h.65l-.92,2.4a5.07,5.07,0,0,1-1.16,2.11,1.71,1.71,0,0,1-.75.4l-.15-.52a1.65,1.65,0,0,0,.54-.3,1.85,1.85,0,0,0,.51-.68A.39.39,0,0,0,63,148a.73.73,0,0,0,0-.16l-1.25-3.11Z"/><path class="cls-4" d="M66.36,146.57a1.07,1.07,0,0,0,1.15,1.17,2.2,2.2,0,0,0,.94-.18l.1.44a2.64,2.64,0,0,1-1.12.21,1.56,1.56,0,0,1-1.65-1.7,1.63,1.63,0,0,1,1.57-1.81,1.43,1.43,0,0,1,1.4,1.58c0,.13,0,.22,0,.29Zm1.79-.44a.87.87,0,0,0-.84-1,1,1,0,0,0-.94,1Z"/><path class="cls-4" d="M70.2,145.68c0-.35,0-.63,0-.91h.54l0,.56h0a1.25,1.25,0,0,1,1.12-.63c.46,0,1.18.27,1.18,1.43v2h-.61V146.2c0-.54-.2-1-.78-1a.88.88,0,0,0-.82.63.82.82,0,0,0,0,.28v2H70.2Z"/><path class="cls-4" d="M74.75,145.68c0-.35,0-.63,0-.91h.54l0,.56h0a1.22,1.22,0,0,1,1.11-.63c.47,0,1.19.27,1.19,1.43v2H77V146.2c0-.54-.2-1-.78-1a.87.87,0,0,0-.82.63.82.82,0,0,0,0,.28v2h-.62Z"/><path class="cls-4" d="M79.65,146.57a1.08,1.08,0,0,0,1.16,1.17,2.18,2.18,0,0,0,.93-.18l.1.44a2.64,2.64,0,0,1-1.12.21,1.56,1.56,0,0,1-1.65-1.7,1.63,1.63,0,0,1,1.58-1.81A1.42,1.42,0,0,1,82,146.28c0,.13,0,.22,0,.29Zm1.8-.44a.88.88,0,0,0-.85-1,1,1,0,0,0-.94,1Z"/><path class="cls-4" d="M88.4,143.62v.4l-2,4.12H85.8l2-4v0H85.55v-.5Z"/><path class="cls-4" d="M89.53,149a10,10,0,0,0,.41-1.67l.69-.07A8,8,0,0,1,90,149Z"/><path class="cls-4" d="M94.44,144.05a2,2,0,0,0-2,1.63h0a1.37,1.37,0,0,1,1.1-.52,1.34,1.34,0,0,1,1.36,1.46,1.51,1.51,0,0,1-1.5,1.6c-1,0-1.6-.76-1.6-1.93a2.88,2.88,0,0,1,.76-2,2.48,2.48,0,0,1,1.45-.67,2.54,2.54,0,0,1,.44,0Zm-.17,2.61a.92.92,0,0,0-.93-1,1,1,0,0,0-.88.56.54.54,0,0,0-.07.27c0,.74.36,1.29,1,1.29S94.27,147.3,94.27,146.66Z"/><path class="cls-4" d="M95.81,148.42l1.94-5h.47l-2,5Z"/><path class="cls-4" d="M100.54,144.19h0l-.78.42-.12-.46,1-.53h.52v4.52h-.59Z"/><path class="cls-4" d="M106.48,145.83c0,1.54-.57,2.39-1.58,2.39s-1.48-.83-1.49-2.33.65-2.35,1.57-2.35S106.48,144.39,106.48,145.83Zm-2.46.07c0,1.18.36,1.84.92,1.84s.92-.73.92-1.88S105.58,144,105,144,104,144.67,104,145.9Z"/><path class="cls-4" d="M5.59,6.61V1.22h.76L8.08,4a15.92,15.92,0,0,1,1,1.75h0C9,5,9,4.32,9,3.48V1.22h.66V6.61H8.93L7.22,3.88a18.19,18.19,0,0,1-1-1.8h0c0,.68.06,1.32.06,2.22v2.3Z"/><path class="cls-4" d="M16.26,3.86a2.52,2.52,0,0,1-2.5,2.84A2.46,2.46,0,0,1,11.34,4a2.55,2.55,0,0,1,2.5-2.83A2.45,2.45,0,0,1,16.26,3.86ZM12.08,4c0,1.15.62,2.18,1.72,2.18s1.73-1,1.73-2.24c0-1.07-.56-2.19-1.72-2.19S12.08,2.77,12.08,4Z"/><path class="cls-4" d="M18.79,1.82H17.15v-.6h4v.6H19.49V6.61h-.7Z"/><path class="cls-4" d="M25.33,4.09H23.24V6h2.33v.58h-3V1.22h2.91v.59H23.24v1.7h2.09Z"/><path class="cls-4" d="M29.78,1.3a9,9,0,0,1,1.47-.12,3.15,3.15,0,0,1,2.19.67,2.5,2.5,0,0,1,.76,1.94,2.85,2.85,0,0,1-.78,2.09A3.28,3.28,0,0,1,31,6.66a11.19,11.19,0,0,1-1.26-.06Zm.69,4.76a4.64,4.64,0,0,0,.7,0,2.07,2.07,0,0,0,2.3-2.29,1.91,1.91,0,0,0-2.18-2.07,4,4,0,0,0-.82.07Z"/><path class="cls-4" d="M36.6,1.22V4.41c0,1.21.53,1.72,1.25,1.72s1.32-.53,1.32-1.72V1.22h.7V4.37c0,1.65-.87,2.33-2,2.33S35.9,6.07,35.9,4.4V1.22Z"/><path class="cls-4" d="M48.48,6.37a5.12,5.12,0,0,1-1.66.3,2.77,2.77,0,0,1-2-.71,2.76,2.76,0,0,1-.76-2A2.71,2.71,0,0,1,47,1.17a3.23,3.23,0,0,1,1.35.25L48.15,2A2.78,2.78,0,0,0,47,1.75a2,2,0,0,0-2.17,2.17,2,2,0,0,0,2.08,2.17A2.29,2.29,0,0,0,47.8,6V4.34H46.7V3.78h1.78Z"/><path class="cls-4" d="M53.13,4.09H51V6h2.33v.58h-3V1.22h2.91v.59H51v1.7h2.09Z"/><path class="cls-4" d="M55.08,6.61V1.22h.76L57.57,4a14.25,14.25,0,0,1,1,1.75h0a21.92,21.92,0,0,1-.08-2.21V1.22h.65V6.61h-.7L56.71,3.88a16.49,16.49,0,0,1-1-1.8h0c0,.68,0,1.32,0,2.22v2.3Z"/><path class="cls-4" d="M61.14,1.3a6.6,6.6,0,0,1,1.34-.12A2.24,2.24,0,0,1,64,1.62a1.35,1.35,0,0,1,.42,1,1.41,1.41,0,0,1-1,1.37v0a1.34,1.34,0,0,1,.79,1.08,8.5,8.5,0,0,0,.41,1.48h-.72a8.45,8.45,0,0,1-.36-1.28c-.16-.75-.44-1-1.08-1h-.65V6.61h-.7Zm.7,2.45h.71c.74,0,1.22-.41,1.22-1s-.51-1-1.24-1a3,3,0,0,0-.69.06Z"/><path class="cls-4" d="M69,4.09h-2.1V6h2.34v.58h-3V1.22h2.91v.59H66.94v1.7H69Z"/><path class="cls-4" d="M417.81,109.54h2.82v.57h-2.14v1.74h2v.55h-2v2.37h-.68Z"/><path class="cls-4" d="M422.9,110a.43.43,0,0,1-.85,0,.41.41,0,0,1,.43-.42A.4.4,0,0,1,422.9,110Zm-.76,4.81V111h.68v3.75Z"/><path class="cls-4" d="M424.73,109.26h.68v5.51h-.68Z"/><path class="cls-4" d="M427.33,112c0-.39,0-.7,0-1h.6l0,.6h0a1.29,1.29,0,0,1,1.18-.69,1.11,1.11,0,0,1,1.06.75h0a1.41,1.41,0,0,1,.41-.48,1.26,1.26,0,0,1,.83-.27c.5,0,1.24.33,1.24,1.63v2.21H432v-2.13c0-.72-.27-1.15-.82-1.15a.88.88,0,0,0-.8.62,1.15,1.15,0,0,0-.06.34v2.32h-.66v-2.25c0-.6-.27-1-.78-1a.94.94,0,0,0-.85.68.91.91,0,0,0-.05.33v2.27h-.67Z"/><path class="cls-4" d="M434.47,114.07a1.81,1.81,0,0,0,.9.27c.5,0,.73-.25.73-.56s-.19-.5-.7-.69c-.67-.24-1-.61-1-1.06a1.16,1.16,0,0,1,1.3-1.1,1.94,1.94,0,0,1,.92.23l-.17.5a1.5,1.5,0,0,0-.77-.22c-.4,0-.63.24-.63.52s.23.44.71.63c.66.25,1,.57,1,1.13s-.51,1.13-1.4,1.13a2.13,2.13,0,0,1-1.06-.26Z"/><path class="cls-4" d="M207.52,1.3a6.49,6.49,0,0,1,1.33-.12,2.2,2.2,0,0,1,1.56.44,1.36,1.36,0,0,1,.43,1,1.41,1.41,0,0,1-1,1.37v0a1.32,1.32,0,0,1,.79,1.08A9.19,9.19,0,0,0,211,6.61h-.72A6.51,6.51,0,0,1,210,5.33c-.16-.75-.45-1-1.08-1h-.66V6.61h-.69Zm.69,2.45h.72c.74,0,1.21-.41,1.21-1s-.5-1-1.24-1a3.17,3.17,0,0,0-.69.06Z"/><path class="cls-4" d="M215.41,4.09h-2.09V6h2.33v.58h-3V1.22h2.91v.59h-2.21v1.7h2.09ZM215.28,0l-1,.94h-.57l.74-.94Z"/><path class="cls-4" d="M217.36,1.29a7.43,7.43,0,0,1,1.33-.11,2.2,2.2,0,0,1,1.51.45,1.45,1.45,0,0,1,.48,1.13,1.59,1.59,0,0,1-.42,1.15,2.25,2.25,0,0,1-1.65.59,2.43,2.43,0,0,1-.56,0V6.61h-.69Zm.69,2.6a2.45,2.45,0,0,0,.58,0c.84,0,1.35-.41,1.35-1.15s-.5-1-1.27-1a3.23,3.23,0,0,0-.66.05Z"/><path class="cls-4" d="M222.61,4.92l-.56,1.69h-.72l1.83-5.39H224l1.84,5.39h-.74l-.58-1.69Zm1.77-.55-.53-1.55c-.12-.35-.2-.67-.28-1h0c-.08.32-.17.65-.28,1l-.52,1.56Z"/><path class="cls-4" d="M227.44,1.3a6.49,6.49,0,0,1,1.33-.12,2.2,2.2,0,0,1,1.56.44,1.36,1.36,0,0,1,.43,1,1.41,1.41,0,0,1-1,1.37v0a1.32,1.32,0,0,1,.79,1.08A9.19,9.19,0,0,0,231,6.61h-.72a6.51,6.51,0,0,1-.36-1.28c-.16-.75-.45-1-1.08-1h-.66V6.61h-.69Zm.69,2.45h.72c.74,0,1.21-.41,1.21-1s-.5-1-1.24-1a3.17,3.17,0,0,0-.69.06Z"/><path class="cls-4" d="M233.64,1.82H232v-.6h4v.6h-1.65V6.61h-.7Z"/><path class="cls-4" d="M238.08,1.22V6.61h-.69V1.22Z"/><path class="cls-4" d="M241.12,1.82h-1.63v-.6h4v.6h-1.65V6.61h-.71Z"/><path class="cls-4" d="M245.57,1.22V6.61h-.69V1.22Z"/><path class="cls-4" d="M252.19,3.86c0,1.86-1.12,2.84-2.5,2.84A2.47,2.47,0,0,1,247.27,4a2.55,2.55,0,0,1,2.5-2.83A2.45,2.45,0,0,1,252.19,3.86ZM248,4c0,1.15.63,2.18,1.72,2.18s1.73-1,1.73-2.24c0-1.07-.56-2.19-1.72-2.19S248,2.77,248,4Z"/><path class="cls-4" d="M253.9,6.61V1.22h.76L256.39,4a15.92,15.92,0,0,1,1,1.75h0c-.06-.72-.08-1.37-.08-2.21V1.22H258V6.61h-.71l-1.71-2.73c-.37-.6-.73-1.22-1-1.8h0c0,.68.06,1.32.06,2.22v2.3Z"/><path class="cls-4" d="M262.37,5.76a2.36,2.36,0,0,0,1.24.36c.71,0,1.13-.38,1.13-.92s-.29-.79-1-1.07-1.42-.77-1.42-1.53A1.55,1.55,0,0,1,264,1.14a2.42,2.42,0,0,1,1.2.26L265,2a2,2,0,0,0-1-.26c-.74,0-1,.44-1,.81s.33.75,1.08,1c.91.35,1.37.79,1.37,1.58s-.61,1.55-1.89,1.55a2.79,2.79,0,0,1-1.37-.34Z"/><path class="cls-4" d="M270,4.09h-2.1V6h2.34v.58h-3V1.22h2.91v.59H267.9v1.7H270ZM269.86,0l-1,.94h-.57L269,0Z"/><path class="cls-4" d="M271.94,1.3a6.6,6.6,0,0,1,1.34-.12,2.24,2.24,0,0,1,1.56.44,1.35,1.35,0,0,1,.42,1,1.41,1.41,0,0,1-1,1.37v0a1.33,1.33,0,0,1,.8,1.08,8.5,8.5,0,0,0,.41,1.48h-.72a6.51,6.51,0,0,1-.36-1.28c-.16-.75-.45-1-1.08-1h-.65V6.61h-.7Zm.7,2.45h.71c.74,0,1.21-.41,1.21-1s-.5-1-1.24-1a3,3,0,0,0-.68.06Z"/><path class="cls-4" d="M277.74,1.22V6.61h-.69V1.22Z"/><path class="cls-4" d="M282.55,4.09h-2.1V6h2.34v.58h-3V1.22h2.91v.59h-2.22v1.7h2.1Z"/><path class="cls-4" d="M284.4,5.76a2.36,2.36,0,0,0,1.24.36c.72,0,1.13-.38,1.13-.92s-.29-.79-1-1.07c-.88-.32-1.43-.77-1.43-1.53a1.55,1.55,0,0,1,1.75-1.46,2.41,2.41,0,0,1,1.19.26l-.19.57a2.13,2.13,0,0,0-1-.26c-.73,0-1,.44-1,.81s.32.75,1.07,1c.91.35,1.37.79,1.37,1.58s-.61,1.55-1.88,1.55a2.83,2.83,0,0,1-1.38-.34Z"/><path class="cls-4" d="M288.62,6.93l2.23-5.79h.55l-2.24,5.79Z"/><path class="cls-4" d="M292.78,1.22h2.9v.59h-2.2V3.6h2v.57h-2V6.61h-.7Z"/><path class="cls-4" d="M298.17,1.22V6.61h-.69V1.22Z"/><path class="cls-4" d="M300.19,1.22h.69V6h2.31v.58h-3Z"/><path class="cls-4" d="M309.31,4.25c0-.76-.09-1.66-.08-2.33h0c-.18.63-.41,1.3-.68,2.05l-.95,2.61H307L306.17,4c-.25-.76-.47-1.45-.62-2.09h0c0,.67,0,1.57-.1,2.38l-.15,2.31h-.66L305,1.22h.88l.92,2.61c.23.66.41,1.25.55,1.82h0c.14-.55.33-1.14.57-1.82l1-2.61h.89l.33,5.39h-.68Z"/><path class="cls-4" d="M311.9,5.76a2.39,2.39,0,0,0,1.25.36c.71,0,1.12-.38,1.12-.92s-.28-.79-1-1.07-1.42-.77-1.42-1.53a1.54,1.54,0,0,1,1.74-1.46,2.41,2.41,0,0,1,1.19.26l-.19.57a2.12,2.12,0,0,0-1-.26c-.74,0-1,.44-1,.81s.33.75,1.07,1c.91.35,1.38.79,1.38,1.58s-.62,1.55-1.89,1.55a2.83,2.83,0,0,1-1.38-.34Z"/><path class="cls-4" d="M319.24,1.3a9,9,0,0,1,1.48-.12,3.12,3.12,0,0,1,2.18.67,2.5,2.5,0,0,1,.76,1.94,2.81,2.81,0,0,1-.78,2.09,3.28,3.28,0,0,1-2.38.78,11.19,11.19,0,0,1-1.26-.06Zm.69,4.76a4.69,4.69,0,0,0,.71,0,2.07,2.07,0,0,0,2.29-2.29,1.91,1.91,0,0,0-2.18-2.07,4.07,4.07,0,0,0-.82.07Z"/><path class="cls-4" d="M326.12,4.92l-.56,1.69h-.72l1.84-5.39h.84l1.83,5.39h-.74L328,4.92Zm1.77-.55-.53-1.55c-.12-.35-.2-.67-.28-1h0c-.08.32-.17.65-.27,1l-.53,1.56Z"/><path class="cls-4" d="M331,6.61V1.22h.76L333.44,4a15.73,15.73,0,0,1,1,1.75h0a21.92,21.92,0,0,1-.08-2.21V1.22H335V6.61h-.7l-1.71-2.73a16.49,16.49,0,0,1-1-1.8h0c0,.68.05,1.32.05,2.22v2.3Z"/><path class="cls-4" d="M336.92,5.76a2.36,2.36,0,0,0,1.24.36c.72,0,1.13-.38,1.13-.92s-.29-.79-1-1.07c-.88-.32-1.43-.77-1.43-1.53a1.55,1.55,0,0,1,1.75-1.46,2.41,2.41,0,0,1,1.19.26L339.6,2a2.13,2.13,0,0,0-1-.26c-.73,0-1,.44-1,.81s.32.75,1.07,1c.91.35,1.37.79,1.37,1.58s-.61,1.55-1.88,1.55a2.83,2.83,0,0,1-1.38-.34Z"/><path class="cls-4" d="M344.25,1.22h.7V6h2.3v.58h-3Z"/><path class="cls-4" d="M351.62,4.09h-2.1V6h2.34v.58h-3V1.22h2.91v.59h-2.22v1.7h2.1Z"/><path class="cls-4" d="M360.6,4.25c0-.76-.09-1.66-.08-2.33h0c-.19.63-.41,1.3-.68,2.05l-.95,2.61h-.53L357.47,4c-.26-.76-.47-1.45-.63-2.09h0c0,.67-.06,1.57-.11,2.38l-.14,2.31h-.66l.37-5.39h.89l.92,2.61c.22.66.41,1.25.54,1.82h0a18,18,0,0,1,.56-1.82l1-2.61h.89l.34,5.39h-.68Z"/><path class="cls-4" d="M367.9,3.86a2.52,2.52,0,0,1-2.5,2.84A2.47,2.47,0,0,1,363,4a2.56,2.56,0,0,1,2.5-2.83A2.45,2.45,0,0,1,367.9,3.86ZM363.72,4c0,1.15.62,2.18,1.71,2.18s1.73-1,1.73-2.24c0-1.07-.56-2.19-1.72-2.19S363.72,2.77,363.72,4Z"/><path class="cls-4" d="M369.6,6.61V1.22h.76L372.09,4a15.92,15.92,0,0,1,1,1.75h0C373,5,373,4.32,373,3.48V1.22h.66V6.61H373l-1.72-2.73a18.19,18.19,0,0,1-1-1.8h0c0,.68.06,1.32.06,2.22v2.3Z"/><path class="cls-4" d="M375.67,1.3a9.13,9.13,0,0,1,1.48-.12,3.12,3.12,0,0,1,2.18.67,2.5,2.5,0,0,1,.76,1.94,2.81,2.81,0,0,1-.78,2.09,3.28,3.28,0,0,1-2.38.78,11.31,11.31,0,0,1-1.26-.06Zm.69,4.76a4.78,4.78,0,0,0,.71,0,2.07,2.07,0,0,0,2.29-2.29,1.91,1.91,0,0,0-2.18-2.07,4.07,4.07,0,0,0-.82.07Z"/><path class="cls-4" d="M384.59,4.09h-2.1V6h2.34v.58h-3V1.22h2.91v.59h-2.22v1.7h2.1Z"/><path class="cls-4" d="M258.93,14.09h-2.1V16h2.34v.58h-3V11.22h2.91v.59h-2.22v1.7h2.1Z"/><path class="cls-4" d="M260.87,16.61V11.22h.76L263.36,14a15.92,15.92,0,0,1,1,1.75h0c-.06-.72-.08-1.37-.08-2.21V11.22h.66v5.39h-.7l-1.72-2.73a18.19,18.19,0,0,1-1-1.8h0c0,.68.06,1.32.06,2.22v2.3Z"/><path class="cls-4" d="M268,11.82h-1.64v-.6h4v.6h-1.65v4.79H268Z"/><path class="cls-4" d="M271.71,11.3a6.6,6.6,0,0,1,1.34-.12,2.24,2.24,0,0,1,1.56.44,1.35,1.35,0,0,1,.42,1A1.41,1.41,0,0,1,274,14v0a1.34,1.34,0,0,1,.79,1.08,8.5,8.5,0,0,0,.41,1.48h-.72a8.45,8.45,0,0,1-.36-1.28c-.16-.75-.44-1-1.08-1.05h-.65v2.33h-.7Zm.7,2.45h.71c.74,0,1.22-.41,1.22-1s-.51-1-1.24-1a3,3,0,0,0-.69.06Z"/><path class="cls-4" d="M279.61,14.09h-2.1V16h2.34v.58h-3V11.22h2.91v.59h-2.22v1.7h2.1Z"/><path class="cls-4" d="M283.8,16.61v-.43l.55-.53c1.33-1.27,1.93-1.94,1.94-2.72a.93.93,0,0,0-1-1,1.77,1.77,0,0,0-1.11.44l-.22-.5a2.29,2.29,0,0,1,1.47-.52A1.46,1.46,0,0,1,287,12.84c0,1-.69,1.73-1.79,2.79l-.42.38v0h2.34v.58Z"/><path class="cls-4" d="M292.16,14c0,1.76-.66,2.74-1.81,2.74s-1.7-.95-1.72-2.67.75-2.7,1.81-2.7S292.16,12.3,292.16,14Zm-2.82.08c0,1.35.41,2.12,1.05,2.12s1.07-.84,1.07-2.17-.33-2.12-1.06-2.12S289.34,12.62,289.34,14Z"/><path class="cls-4" d="M297.06,14c0,1.76-.65,2.74-1.8,2.74s-1.71-.95-1.72-2.67.75-2.7,1.8-2.7S297.06,12.3,297.06,14Zm-2.82.08c0,1.35.42,2.12,1.06,2.12s1.06-.84,1.06-2.17-.33-2.12-1.06-2.12S294.24,12.62,294.24,14Z"/><path class="cls-4" d="M301.89,11.42v.46l-2.27,4.73h-.72l2.25-4.6h-2.54v-.58Z"/><path class="cls-4" d="M309,14.09h-2.09V16h2.33v.58h-3V11.22h2.91v.59h-2.21v1.7H309Z"/><path class="cls-4" d="M312.05,11.82h-1.64v-.6h4v.6h-1.65v4.79h-.7Z"/><path class="cls-4" d="M318.05,16.61v-.43l.55-.53c1.33-1.27,1.93-1.94,1.93-2.72a.93.93,0,0,0-1-1,1.76,1.76,0,0,0-1.1.44l-.22-.5a2.29,2.29,0,0,1,1.47-.52,1.46,1.46,0,0,1,1.59,1.51c0,1-.7,1.73-1.79,2.79L319,16v0h2.34v.58Z"/><path class="cls-4" d="M326.41,14c0,1.76-.66,2.74-1.81,2.74s-1.7-.95-1.72-2.67.75-2.7,1.81-2.7S326.41,12.3,326.41,14Zm-2.83.08c0,1.35.42,2.12,1.06,2.12s1.06-.84,1.06-2.17-.33-2.12-1.05-2.12S323.58,12.62,323.58,14Z"/><path class="cls-4" d="M329.38,12.07h0l-.91.49-.13-.54,1.13-.6h.6v5.19h-.68Z"/><path class="cls-4" d="M336.13,11.42v.46l-2.26,4.73h-.73L335.4,12h-2.54v-.58Z"/><rect class="cls-3" x="396.3" y="105" width="10.64" height="10.64"/><path class="cls-4" d="M418.09,131.47a2.43,2.43,0,0,0,1.21.34c.69,0,1.09-.37,1.09-.89s-.28-.77-1-1c-.86-.31-1.38-.75-1.38-1.48a1.5,1.5,0,0,1,1.69-1.42,2.39,2.39,0,0,1,1.15.25l-.18.55a2.15,2.15,0,0,0-1-.24c-.71,0-1,.42-1,.78s.32.73,1,1c.88.34,1.33.76,1.33,1.53s-.6,1.5-1.83,1.5a2.66,2.66,0,0,1-1.33-.33Z"/><path class="cls-4" d="M423.18,130.54a1.2,1.2,0,0,0,1.29,1.3,2.39,2.39,0,0,0,1-.2l.12.49a3,3,0,0,1-1.25.23,1.74,1.74,0,0,1-1.84-1.89,1.82,1.82,0,0,1,1.76-2,1.59,1.59,0,0,1,1.55,1.77,2,2,0,0,1,0,.32Zm2-.49a1,1,0,0,0-.95-1.11,1.12,1.12,0,0,0-1,1.11Zm.16-3.13-.94,1.1h-.49l.68-1.1Z"/><path class="cls-4" d="M427.46,129.71c0-.45,0-.83,0-1.17H428l0,.73h0a1.13,1.13,0,0,1,1-.82l.19,0v.65a.8.8,0,0,0-.23,0,1,1,0,0,0-.92.88,2.69,2.69,0,0,0,0,.32v2h-.67Z"/><path class="cls-4" d="M431.56,127.48a.42.42,0,0,1-.44.42.41.41,0,0,1-.41-.42.42.42,0,0,1,.43-.43A.41.41,0,0,1,431.56,127.48Zm-.76,4.81v-3.75h.68v3.75Z"/><path class="cls-4" d="M433.76,130.54a1.21,1.21,0,0,0,1.29,1.3,2.45,2.45,0,0,0,1-.2l.12.49a3.06,3.06,0,0,1-1.25.23,1.74,1.74,0,0,1-1.85-1.89,1.82,1.82,0,0,1,1.76-2,1.59,1.59,0,0,1,1.55,1.77,2.33,2.33,0,0,1,0,.32Zm2-.49a1,1,0,0,0-.94-1.11,1.13,1.13,0,0,0-1.05,1.11Z"/><rect class="cls-4" x="396.3" y="122.51" width="10.64" height="10.64"/><path class="cls-1" d="M325,169a68.47,68.47,0,1,1,23.84-51.93c0,.63,0,1.25,0,1.87"/><path class="cls-5" d="M329,165.23a68.24,68.24,0,0,0,19.41-40.78"/></g></g></svg>