<svg xmlns="http://www.w3.org/2000/svg" xmlns:xlink="http://www.w3.org/1999/xlink" viewBox="0 0 501 235.27"><defs><style>.cls-1,.cls-2,.cls-4{fill:none;}.cls-2{stroke:#ecb900;stroke-width:14px;}.cls-2,.cls-4{stroke-miterlimit:10;}.cls-3{clip-path:url(#clip-path);}.cls-4{stroke:#fff;stroke-width:7px;}.cls-5{fill:#ecb900;}.cls-6{fill:#fff;}</style><clipPath id="clip-path"><rect class="cls-1" x="23.17" y="72.88" width="139.22" height="139.23"/></clipPath></defs><title>Fichier 8</title><g id="Calque_2" data-name="Calque 2"><g id="Calque_1-2" data-name="Calque 1"><path class="cls-2" d="M92.79,56.72a85.72,85.72,0,1,1-81,57.55"/><g class="cls-3"><path class="cls-4" d="M92.79,76.34a66.16,66.16,0,1,1-66.16,66.15c0-1.12,0-2.24.08-3.35"/></g><path class="cls-5" d="M58.11,147.2c0-2.92,1.75-5,4.6-6.2l0-.1A5.75,5.75,0,0,1,59,135.7c0-3.67,3.1-6.16,7.16-6.16,4.49,0,6.73,2.81,6.73,5.7,0,2-1,4.06-3.81,5.41v.11c2.88,1.14,4.66,3.16,4.66,6,0,4-3.45,6.72-7.87,6.72C61,153.46,58.11,150.58,58.11,147.2Zm12.46-.14c0-2.81-1.95-4.17-5.09-5.06-2.7.79-4.16,2.57-4.16,4.77S63,151.19,66,151.19,70.57,149.44,70.57,147.06ZM62,135.49c0,2.31,1.74,3.56,4.41,4.27,2-.68,3.53-2.1,3.53-4.2A3.6,3.6,0,0,0,66,131.79,3.67,3.67,0,0,0,62,135.49Z"/><path class="cls-5" d="M79.19,157.45a51.37,51.37,0,0,0,2.13-8.51l3.49-.35a44,44,0,0,1-3.38,8.65Z"/><path class="cls-5" d="M97.94,132.85h-.07l-4,2.17-.6-2.38,5-2.71H101v23.14h-3Z"/><path class="cls-5" d="M116.8,153.42l2.39-6.23h.59l-2.41,6.23Z"/><path class="cls-5" d="M122.64,148.19h0l-1,.53-.14-.58,1.22-.65h.64v5.58h-.73Z"/><path class="cls-5" d="M130,150.22c0,1.9-.71,2.95-1.94,2.95s-1.83-1-1.85-2.87.81-2.91,1.94-2.91S130,148.44,130,150.22Zm-3,.09c0,1.45.44,2.27,1.13,2.27s1.14-.9,1.14-2.32-.35-2.28-1.13-2.28S127,148.79,127,150.31Z"/><path class="cls-6" d="M55.74,168.53c0-.44,0-.81,0-1.16h.68l0,.69h0a1.48,1.48,0,0,1,1.36-.79,1.28,1.28,0,0,1,1.22.86h0a1.93,1.93,0,0,1,.48-.56,1.47,1.47,0,0,1,1-.3c.56,0,1.41.37,1.41,1.87v2.53h-.77v-2.44c0-.82-.3-1.32-.93-1.32a1,1,0,0,0-.92.71,1.18,1.18,0,0,0-.07.39v2.66h-.76v-2.58c0-.68-.3-1.18-.9-1.18a1.06,1.06,0,0,0-1,.78,1.21,1.21,0,0,0-.06.38v2.6h-.77Z"/><path class="cls-6" d="M68,169.48a2.1,2.1,0,0,1-2.14,2.29,2,2,0,0,1-2.07-2.22,2.1,2.1,0,0,1,2.14-2.28A2,2,0,0,1,68,169.48Zm-3.42.05c0,.94.55,1.65,1.31,1.65s1.31-.7,1.31-1.67c0-.73-.36-1.66-1.29-1.66S64.53,168.71,64.53,169.53Z"/><path class="cls-6" d="M70.05,167.37l.94,2.54c.1.28.21.62.28.88h0c.08-.26.17-.59.27-.9l.86-2.52h.83l-1.18,3.06a6.46,6.46,0,0,1-1.48,2.7,2.13,2.13,0,0,1-1,.51l-.19-.66a2.15,2.15,0,0,0,.68-.38,2.38,2.38,0,0,0,.66-.88.46.46,0,0,0,.06-.18.55.55,0,0,0,0-.21l-1.59-4Z"/><path class="cls-6" d="M75.2,169.66a1.38,1.38,0,0,0,1.47,1.5,2.71,2.71,0,0,0,1.19-.23l.14.56a3.43,3.43,0,0,1-1.44.27,2,2,0,0,1-2.11-2.17,2.09,2.09,0,0,1,2-2.32,1.83,1.83,0,0,1,1.78,2,2.55,2.55,0,0,1,0,.36Zm2.29-.56a1.11,1.11,0,0,0-1.09-1.27,1.3,1.3,0,0,0-1.2,1.27Z"/><path class="cls-6" d="M80.11,168.53c0-.44,0-.81,0-1.16h.7l0,.71h0a1.57,1.57,0,0,1,1.42-.81c.6,0,1.52.35,1.52,1.83v2.57H83v-2.48c0-.69-.26-1.27-1-1.27a1.12,1.12,0,0,0-1,.8,1.3,1.3,0,0,0,0,.36v2.59h-.78Z"/><path class="cls-6" d="M85.94,168.53c0-.44,0-.81,0-1.16h.69l0,.71h0a1.57,1.57,0,0,1,1.42-.81c.6,0,1.52.35,1.52,1.83v2.57h-.78v-2.48c0-.69-.26-1.27-1-1.27a1.12,1.12,0,0,0-1,.8,1.3,1.3,0,0,0,0,.36v2.59h-.78Z"/><path class="cls-6" d="M92.2,169.66a1.38,1.38,0,0,0,1.48,1.5,2.71,2.71,0,0,0,1.19-.23l.13.56a3.34,3.34,0,0,1-1.43.27,2,2,0,0,1-2.12-2.17,2.09,2.09,0,0,1,2-2.32,1.82,1.82,0,0,1,1.78,2c0,.16,0,.28,0,.36Zm2.3-.56a1.12,1.12,0,0,0-1.09-1.27,1.3,1.3,0,0,0-1.2,1.27Z"/><path class="cls-6" d="M103.39,165.89v.51l-2.51,5.27h-.81l2.51-5.11v0H99.75v-.65Z"/><path class="cls-6" d="M104.84,172.76a13.4,13.4,0,0,0,.53-2.12l.87-.09a10.48,10.48,0,0,1-.84,2.16Z"/><path class="cls-6" d="M111.13,166.44a2.54,2.54,0,0,0-.59,0,2.34,2.34,0,0,0-2,2.05h0a1.76,1.76,0,0,1,3.14,1.2,1.94,1.94,0,0,1-1.93,2c-1.23,0-2-1-2-2.47a3.63,3.63,0,0,1,1-2.6,3.17,3.17,0,0,1,1.85-.86,4.43,4.43,0,0,1,.57,0Zm-.23,3.34a1.18,1.18,0,0,0-1.19-1.33,1.28,1.28,0,0,0-1.12.71.72.72,0,0,0-.09.35c0,1,.46,1.65,1.27,1.65S110.9,170.6,110.9,169.78Z"/><path class="cls-6" d="M112.87,172l2.48-6.45H116L113.47,172Z"/><path class="cls-6" d="M118.92,166.62h0l-1,.54-.15-.6,1.26-.67h.67v5.78h-.76Z"/><path class="cls-6" d="M126.52,168.72c0,2-.73,3.05-2,3.05s-1.89-1.06-1.91-3,.83-3,2-3S126.52,166.88,126.52,168.72Zm-3.14.09c0,1.5.46,2.35,1.17,2.35s1.19-.93,1.19-2.41-.37-2.35-1.18-2.35S123.38,167.23,123.38,168.81Z"/><path class="cls-6" d="M34.5,9V1.66h1l2.35,3.71A21.93,21.93,0,0,1,39.2,7.76h0c-.09-1-.11-1.87-.11-3V1.66H40V9H39L36.72,5.28a22.73,22.73,0,0,1-1.38-2.45h0c.06.92.08,1.81.08,3V9Z"/><path class="cls-6" d="M49,5.25c0,2.53-1.54,3.87-3.41,3.87s-3.3-1.5-3.3-3.72,1.45-3.86,3.41-3.86S49,3.08,49,5.25Zm-5.69.12c0,1.57.85,3,2.34,3S48,7,48,5.3c0-1.46-.77-3-2.34-3S43.32,3.76,43.32,5.37Z"/><path class="cls-6" d="M52.44,2.47H50.21V1.66h5.43v.81H53.4V9h-1Z"/><path class="cls-6" d="M61.34,5.56H58.49V8.2h3.18V9H57.54V1.66h4v.8h-3V4.78h2.85Z"/><path class="cls-6" d="M67.37,1.76a13.33,13.33,0,0,1,2-.15,4.24,4.24,0,0,1,3,.91,3.4,3.4,0,0,1,1,2.64,3.92,3.92,0,0,1-1,2.85,4.56,4.56,0,0,1-3.25,1.05A16.71,16.71,0,0,1,67.37,9Zm.95,6.49a6.54,6.54,0,0,0,1,.05A2.82,2.82,0,0,0,72.4,5.19c0-1.73-1-2.83-3-2.83a5,5,0,0,0-1.11.1Z"/><path class="cls-6" d="M79.5,5.56H76.65V8.2h3.18V9H75.7V1.66h4v.8h-3V4.78H79.5Z"/><path class="cls-6" d="M85.54,1.66h.94V8.2h3.14V9H85.54Z"/><path class="cls-6" d="M92.94,6.69,92.18,9h-1l2.49-7.34h1.15L97.34,9h-1l-.79-2.31ZM95.35,6l-.72-2.11c-.16-.48-.27-.91-.38-1.34h0c-.11.44-.23.88-.37,1.33L93.14,6Z"/><path class="cls-6" d="M102.76,7.84a3.4,3.4,0,0,0,1.7.48c1,0,1.54-.51,1.54-1.25s-.4-1.08-1.39-1.46c-1.19-.42-1.93-1-1.93-2.07a2.11,2.11,0,0,1,2.37-2,3.4,3.4,0,0,1,1.62.36l-.26.78A2.93,2.93,0,0,0,105,2.33c-1,0-1.39.6-1.39,1.1,0,.68.45,1,1.46,1.41C106.33,5.32,107,5.92,107,7s-.83,2.11-2.56,2.11a3.85,3.85,0,0,1-1.88-.47Z"/><path class="cls-6" d="M113.14,5.56h-2.85V8.2h3.18V9h-4.13V1.66h4v.8h-3V4.78h2.85ZM113,0l-1.39,1.27h-.78l1-1.27Z"/><path class="cls-6" d="M115.78,1.76a9.76,9.76,0,0,1,1.82-.15,3,3,0,0,1,2.12.6,1.82,1.82,0,0,1,.58,1.39,1.92,1.92,0,0,1-1.38,1.87v0A1.83,1.83,0,0,1,120,7a12,12,0,0,0,.57,2h-1a9.91,9.91,0,0,1-.49-1.75c-.22-1-.61-1.4-1.47-1.43h-.89V9h-1Zm1,3.34h1c1,0,1.65-.55,1.65-1.39s-.68-1.36-1.68-1.37a3.55,3.55,0,0,0-.94.09Z"/><path class="cls-6" d="M123.67,1.66V9h-1V1.66Z"/><path class="cls-6" d="M130.21,5.56h-2.85V8.2h3.17V9h-4.12V1.66h4v.8h-3V4.78h2.85Z"/><path class="cls-6" d="M277.63,2.1H275.1V1.18h6.16V2.1h-2.54V9.51h-1.09Z"/><path class="cls-6" d="M290.21,5.26c0,2.87-1.74,4.39-3.87,4.39s-3.74-1.71-3.74-4.23S284.24,1,286.47,1,290.21,2.79,290.21,5.26Zm-6.46.14c0,1.78,1,3.37,2.66,3.37s2.67-1.57,2.67-3.46c0-1.66-.87-3.39-2.66-3.39S283.75,3.57,283.75,5.4Z"/><path class="cls-6" d="M292.85,1.28a12.11,12.11,0,0,1,2.06-.16,3.46,3.46,0,0,1,2.34.69A2.23,2.23,0,0,1,298,3.55a2.44,2.44,0,0,1-.65,1.78,3.41,3.41,0,0,1-2.54.92,3.35,3.35,0,0,1-.87-.08V9.51h-1.07Zm1.07,4a3.75,3.75,0,0,0,.89.08c1.3,0,2.09-.63,2.09-1.78s-.78-1.63-2-1.63a4.52,4.52,0,0,0-1,.09Z"/><path class="cls-6" d="M308.93,2.39h-3.06l-.31,2.07a3.65,3.65,0,0,1,.65,0,3.34,3.34,0,0,1,1.73.43,2.29,2.29,0,0,1,1.15,2.06,2.79,2.79,0,0,1-3,2.75,3.87,3.87,0,0,1-2-.5l.27-.82a3.69,3.69,0,0,0,1.72.44A1.77,1.77,0,0,0,308,7c0-1-.7-1.78-2.31-1.78a9.68,9.68,0,0,0-1.11.08l.52-3.85h3.84Z"/><path class="cls-6" d="M316,1.29a15.41,15.41,0,0,1,2.29-.17,4.77,4.77,0,0,1,3.37,1,3.81,3.81,0,0,1,1.18,3,4.41,4.41,0,0,1-1.2,3.24,5.13,5.13,0,0,1-3.68,1.2,17.94,17.94,0,0,1-2-.1ZM317,8.66a6.77,6.77,0,0,0,1.09.06,3.19,3.19,0,0,0,3.54-3.53c0-2-1.1-3.22-3.37-3.22a6.19,6.19,0,0,0-1.26.11Z"/><path class="cls-6" d="M329.74,5.61H326.5v3h3.61v.9h-4.69V1.18h4.5v.9H326.5V4.72h3.24Z"/><path class="cls-6" d="M332.59,8.2a3.78,3.78,0,0,0,1.93.55c1.1,0,1.74-.59,1.74-1.43s-.44-1.22-1.57-1.65c-1.36-.48-2.2-1.19-2.2-2.36A2.41,2.41,0,0,1,335.19,1a3.78,3.78,0,0,1,1.84.41l-.3.88a3.27,3.27,0,0,0-1.58-.39c-1.14,0-1.57.68-1.57,1.24,0,.78.51,1.17,1.66,1.61,1.41.54,2.12,1.22,2.12,2.45s-.95,2.4-2.91,2.4a4.28,4.28,0,0,1-2.13-.54Z"/><path class="cls-6" d="M343.93,1.28A12.11,12.11,0,0,1,346,1.12a3.46,3.46,0,0,1,2.34.69,2.23,2.23,0,0,1,.73,1.74,2.44,2.44,0,0,1-.64,1.78,3.45,3.45,0,0,1-2.55.92,3.35,3.35,0,0,1-.87-.08V9.51h-1.07Zm1.07,4a3.81,3.81,0,0,0,.89.08c1.3,0,2.09-.63,2.09-1.78S347.2,2,346,2a4.52,4.52,0,0,0-1,.09Z"/><path class="cls-6" d="M352.05,6.89l-.86,2.62h-1.12l2.83-8.33h1.3L357,9.51h-1.15L355,6.89Zm2.73-.84L354,3.65c-.19-.54-.31-1-.44-1.52h0c-.12.5-.26,1-.42,1.51l-.82,2.41Z"/><path class="cls-6" d="M360.38,9.51V6l-2.63-4.8H359l1.18,2.3c.32.63.57,1.14.83,1.72h0c.24-.55.52-1.09.84-1.72l1.2-2.3h1.22L361.47,6V9.51Z"/><path class="cls-6" d="M366.14,8.2a3.81,3.81,0,0,0,1.93.55c1.1,0,1.74-.59,1.74-1.43s-.44-1.22-1.56-1.65C366.89,5.19,366,4.48,366,3.31A2.41,2.41,0,0,1,368.74,1a3.78,3.78,0,0,1,1.84.41l-.3.88a3.27,3.27,0,0,0-1.58-.39c-1.13,0-1.57.68-1.57,1.24,0,.78.51,1.17,1.66,1.61,1.41.54,2.13,1.22,2.13,2.45s-1,2.4-2.92,2.4a4.28,4.28,0,0,1-2.13-.54Z"/><path class="cls-6" d="M377.48,1.29a15.31,15.31,0,0,1,2.29-.17,4.77,4.77,0,0,1,3.37,1,3.84,3.84,0,0,1,1.18,3,4.41,4.41,0,0,1-1.2,3.24,5.14,5.14,0,0,1-3.69,1.2,17.74,17.74,0,0,1-1.95-.1Zm1.08,7.37a6.64,6.64,0,0,0,1.08.06,3.2,3.2,0,0,0,3.55-3.53c0-2-1.1-3.22-3.37-3.22a6.19,6.19,0,0,0-1.26.11Z"/><path class="cls-6" d="M391.26,5.61H388v3h3.61v.9H387V1.18h4.5v.9H388V4.72h3.24Z"/><path class="cls-6" d="M399.2,2.1h-2.53V1.18h6.16V2.1h-2.54V9.51H399.2Z"/><path class="cls-6" d="M411.78,5.26c0,2.87-1.74,4.39-3.86,4.39s-3.75-1.71-3.75-4.23S405.81,1,408,1,411.78,2.79,411.78,5.26Zm-6.46.14c0,1.78,1,3.37,2.66,3.37s2.67-1.57,2.67-3.46c0-1.66-.87-3.39-2.66-3.39S405.32,3.57,405.32,5.4Z"/><path class="cls-6" d="M415.49,1.18V6.11c0,1.87.83,2.66,1.94,2.66s2-.82,2-2.66V1.18h1.09V6c0,2.56-1.35,3.61-3.15,3.61s-3-1-3-3.56V1.18Z"/><path class="cls-6" d="M423.65,1.29a11.46,11.46,0,0,1,2.07-.17,3.41,3.41,0,0,1,2.41.68,2.07,2.07,0,0,1,.65,1.58,2.19,2.19,0,0,1-1.57,2.13v0a2.09,2.09,0,0,1,1.23,1.69,13.32,13.32,0,0,0,.64,2.28H428a10.6,10.6,0,0,1-.56-2c-.25-1.15-.69-1.58-1.67-1.62h-1V9.51h-1.08Zm1.08,3.8h1.1c1.15,0,1.88-.63,1.88-1.59S426.93,2,425.79,2a4.32,4.32,0,0,0-1.06.1Z"/><path class="cls-6" d="M431.54,9.51V1.18h1.17l2.67,4.22a23.69,23.69,0,0,1,1.5,2.7h0c-.09-1.11-.12-2.13-.12-3.42V1.18h1V9.51h-1.08l-2.65-4.22A26.23,26.23,0,0,1,432.5,2.5l0,0c.06,1,.08,2.05.08,3.43V9.51Z"/><path class="cls-6" d="M442.26,6.89l-.87,2.62h-1.11l2.83-8.33h1.3l2.84,8.33H446.1l-.89-2.62ZM445,6.05l-.82-2.4c-.18-.54-.31-1-.43-1.52h0c-.13.5-.26,1-.42,1.51l-.82,2.41Z"/><path class="cls-6" d="M455.87,9.14a7.85,7.85,0,0,1-2.56.46,4.26,4.26,0,0,1-3.11-1.1A4.28,4.28,0,0,1,449,5.4a4.19,4.19,0,0,1,4.51-4.31,5,5,0,0,1,2.08.39l-.26.88A4.26,4.26,0,0,0,453.52,2a3.11,3.11,0,0,0-3.35,3.35,3.05,3.05,0,0,0,3.21,3.36,3.61,3.61,0,0,0,1.44-.22V6h-1.7V5.14h2.75Z"/><path class="cls-6" d="M463.06,5.61h-3.23v3h3.6v.9h-4.68V1.18h4.5v.9h-3.42V4.72h3.23Z"/><path class="cls-5" d="M361,51c0-.8-.09-1.76-.09-2.48h0c-.2.67-.44,1.39-.73,2.18l-1,2.79h-.56l-.93-2.74A23.27,23.27,0,0,1,357,48.5h0c0,.72-.06,1.68-.11,2.54l-.15,2.47H356l.4-5.75h.95l1,2.78c.24.71.43,1.34.58,1.93h0c.14-.58.35-1.21.6-1.93l1-2.78h1l.36,5.75h-.73Z"/><path class="cls-5" d="M366.14,53.51l-.06-.52h0a1.54,1.54,0,0,1-1.26.61,1.18,1.18,0,0,1-1.26-1.19c0-1,.89-1.54,2.48-1.53v-.09a.85.85,0,0,0-.94-.95,2,2,0,0,0-1.07.31l-.17-.5a2.55,2.55,0,0,1,1.35-.37c1.27,0,1.57.87,1.57,1.69v1.55a6,6,0,0,0,.07,1ZM366,51.4c-.82,0-1.75.13-1.75.93A.66.66,0,0,0,365,53a1,1,0,0,0,1-.69.64.64,0,0,0,0-.23Z"/><path class="cls-5" d="M368.82,47.45h.75v6.06h-.75Z"/><path class="cls-5" d="M372.59,48.19v1.19h1.07V50h-1.07v2.22c0,.52.14.81.56.81a2,2,0,0,0,.44,0l0,.56a1.79,1.79,0,0,1-.66.1,1,1,0,0,1-.81-.31,1.52,1.52,0,0,1-.3-1.08V50h-.64v-.57h.64v-1Z"/><path class="cls-5" d="M377.65,53.51l-.06-.52h0a1.54,1.54,0,0,1-1.26.61A1.17,1.17,0,0,1,375,52.41c0-1,.88-1.54,2.48-1.53v-.09a.85.85,0,0,0-.94-.95,2,2,0,0,0-1.07.31l-.17-.5a2.55,2.55,0,0,1,1.35-.37c1.26,0,1.57.87,1.57,1.69v1.55a6,6,0,0,0,.07,1Zm-.11-2.11c-.82,0-1.75.13-1.75.93a.66.66,0,0,0,.71.71,1,1,0,0,0,1-.69.64.64,0,0,0,.05-.23Z"/><path class="cls-6" d="M300.44,108.6a3.63,3.63,0,0,1-1.52.27,2.69,2.69,0,0,1-2.84-2.91,2.86,2.86,0,0,1,3-3,3.17,3.17,0,0,1,1.37.25l-.18.61a2.64,2.64,0,0,0-1.16-.24,2.13,2.13,0,0,0-2.24,2.37,2.09,2.09,0,0,0,2.21,2.31,2.9,2.9,0,0,0,1.21-.24Z"/><path class="cls-6" d="M302.17,106c0-.49,0-.91,0-1.29h.66l0,.81h0a1.23,1.23,0,0,1,1.14-.9.71.71,0,0,1,.21,0v.71a.9.9,0,0,0-.25,0,1.05,1.05,0,0,0-1,1,1.83,1.83,0,0,0,0,.35v2.2h-.75Z"/><path class="cls-6" d="M309.47,106.69a2,2,0,0,1-2.06,2.19,2,2,0,0,1-2-2.12,2,2,0,0,1,2.05-2.19A2,2,0,0,1,309.47,106.69Zm-3.28,0c0,.91.52,1.59,1.26,1.59s1.25-.67,1.25-1.6c0-.7-.35-1.59-1.24-1.59S306.19,106,306.19,106.73Z"/><path class="cls-6" d="M313.55,108.79l-.06-.52h0a1.55,1.55,0,0,1-1.26.61,1.18,1.18,0,0,1-1.27-1.18c0-1,.89-1.55,2.49-1.54v-.08a.85.85,0,0,0-.94-1,2,2,0,0,0-1.08.31l-.17-.5a2.59,2.59,0,0,1,1.36-.36c1.26,0,1.57.86,1.57,1.68v1.55a5.9,5.9,0,0,0,.07,1Zm-.11-2.11c-.82,0-1.75.13-1.75.93a.67.67,0,0,0,.71.72,1,1,0,0,0,1-.69.71.71,0,0,0,0-.24Z"/><path class="cls-6" d="M317.1,103.47v1.19h1.08v.57H317.1v2.23c0,.51.15.8.57.8a1.94,1.94,0,0,0,.43-.05l0,.56a1.89,1.89,0,0,1-.67.1,1.05,1.05,0,0,1-.81-.31,1.55,1.55,0,0,1-.29-1.08v-2.25h-.64v-.57h.64v-1Z"/><path class="cls-6" d="M320.71,103.5a.47.47,0,0,1-.93,0,.46.46,0,0,1,.47-.47A.45.45,0,0,1,320.71,103.5Zm-.83,5.29v-4.13h.75v4.13Z"/><path class="cls-6" d="M325,108.79l-.06-.52h0a1.56,1.56,0,0,1-1.27.61,1.18,1.18,0,0,1-1.26-1.18c0-1,.89-1.55,2.48-1.54v-.08a.85.85,0,0,0-.93-1,2,2,0,0,0-1.08.31l-.17-.5a2.59,2.59,0,0,1,1.36-.36c1.26,0,1.57.86,1.57,1.68v1.55a6,6,0,0,0,.06,1Zm-.11-2.11c-.82,0-1.75.13-1.75.93a.67.67,0,0,0,.71.72,1,1,0,0,0,1-.69,1.09,1.09,0,0,0,0-.24Z"/><path class="cls-6" d="M404.32,119.7V114h.81l1.84,2.91a14.94,14.94,0,0,1,1,1.87h0c-.07-.77-.09-1.47-.09-2.37V114h.7v5.75h-.75l-1.82-2.92a17.07,17.07,0,0,1-1.08-1.92h0c0,.73.06,1.42.06,2.37v2.46Z"/><path class="cls-6" d="M414.49,117.6a2,2,0,0,1-2.05,2.19,2,2,0,0,1-2-2.12,2,2,0,0,1,2.05-2.19A2,2,0,0,1,414.49,117.6Zm-3.27,0c0,.91.52,1.59,1.25,1.59s1.26-.67,1.26-1.6c0-.7-.35-1.59-1.24-1.59S411.22,116.86,411.22,117.64Z"/><path class="cls-6" d="M416.29,116.86c0-.49,0-.91,0-1.29h.66l0,.81h0a1.23,1.23,0,0,1,1.14-.9.71.71,0,0,1,.21,0v.71a.9.9,0,0,0-.25,0,1.05,1.05,0,0,0-1,1,1.83,1.83,0,0,0,0,.35v2.2h-.75Z"/><path class="cls-6" d="M421.05,114.38v1.19h1.07v.57h-1.07v2.23c0,.51.14.8.56.8a1.94,1.94,0,0,0,.43,0l0,.56a1.89,1.89,0,0,1-.67.1,1.05,1.05,0,0,1-.81-.31,1.55,1.55,0,0,1-.29-1.08v-2.25h-.64v-.57h.64v-1Z"/><path class="cls-6" d="M423.82,113.64h.75v2.58h0a1.35,1.35,0,0,1,.53-.53,1.56,1.56,0,0,1,.77-.21c.56,0,1.44.34,1.44,1.76v2.46h-.75v-2.37c0-.67-.25-1.23-.95-1.23a1.08,1.08,0,0,0-1,.75,1,1,0,0,0-.05.36v2.49h-.75Z"/><path class="cls-6" d="M429.82,117.77a1.32,1.32,0,0,0,1.42,1.43,2.68,2.68,0,0,0,1.14-.21l.13.54a3.34,3.34,0,0,1-1.37.25,1.91,1.91,0,0,1-2-2.08,2,2,0,0,1,1.93-2.22,1.75,1.75,0,0,1,1.71,1.94,2.53,2.53,0,0,1,0,.35Zm2.2-.54a1.07,1.07,0,0,0-1-1.22,1.25,1.25,0,0,0-1.15,1.22Z"/><path class="cls-6" d="M434.53,116.86c0-.49,0-.91,0-1.29h.66l0,.81h0a1.23,1.23,0,0,1,1.14-.9.71.71,0,0,1,.21,0v.71a.9.9,0,0,0-.25,0,1.05,1.05,0,0,0-1,1,1.83,1.83,0,0,0,0,.35v2.2h-.75Z"/><path class="cls-6" d="M438.21,116.69c0-.43,0-.78,0-1.12h.66l0,.68h0a1.52,1.52,0,0,1,1.37-.77c.57,0,1.45.34,1.45,1.75v2.47H441v-2.38c0-.67-.24-1.22-1-1.22a1.07,1.07,0,0,0-1,.77,1.18,1.18,0,0,0-.05.35v2.48h-.75Z"/><path class="cls-6" d="M409.44,124.19v5.75h-.74v-5.75Z"/><path class="cls-6" d="M411.65,127.1c0-.49,0-.91,0-1.29h.66l0,.81h0a1.24,1.24,0,0,1,1.14-.91.73.73,0,0,1,.22,0v.71a1,1,0,0,0-.26,0,1.06,1.06,0,0,0-1,1,3.27,3.27,0,0,0,0,.35v2.2h-.74Z"/><path class="cls-6" d="M415.62,128a1.33,1.33,0,0,0,1.42,1.43,2.68,2.68,0,0,0,1.14-.21l.13.54a3.34,3.34,0,0,1-1.37.25,1.91,1.91,0,0,1-2-2.08,2,2,0,0,1,1.93-2.23,1.75,1.75,0,0,1,1.71,2,2.53,2.53,0,0,1,0,.35Zm2.2-.54a1.06,1.06,0,0,0-1-1.22,1.24,1.24,0,0,0-1.15,1.22Z"/><path class="cls-6" d="M420.33,123.88h.75v6.06h-.75Z"/><path class="cls-6" d="M425.49,129.94l-.06-.52h0a1.54,1.54,0,0,1-1.26.61,1.17,1.17,0,0,1-1.26-1.19c0-1,.88-1.54,2.48-1.53v-.09a.85.85,0,0,0-.94-1,2.07,2.07,0,0,0-1.08.31l-.17-.5a2.62,2.62,0,0,1,1.36-.37c1.26,0,1.57.87,1.57,1.69V129a5.9,5.9,0,0,0,.07,1Zm-.11-2.11c-.82,0-1.75.13-1.75.93a.66.66,0,0,0,.7.72,1,1,0,0,0,1-.69.74.74,0,0,0,.05-.24Z"/><path class="cls-6" d="M428.17,126.93c0-.43,0-.78,0-1.12h.67l0,.68h0a1.51,1.51,0,0,1,1.36-.78c.57,0,1.46.35,1.46,1.76v2.47h-.75v-2.38c0-.67-.25-1.22-1-1.22a1.06,1.06,0,0,0-1,.76,1,1,0,0,0-.05.35v2.49h-.75Z"/><path class="cls-6" d="M437.32,123.88v5c0,.37,0,.79,0,1.07h-.67l0-.72h0a1.54,1.54,0,0,1-1.41.81,1.88,1.88,0,0,1-1.77-2.1,2,2,0,0,1,1.86-2.22,1.36,1.36,0,0,1,1.24.64h0v-2.47Zm-.75,3.61a1.17,1.17,0,0,0,0-.32,1.11,1.11,0,0,0-1.08-.87c-.78,0-1.24.69-1.24,1.6s.41,1.52,1.22,1.52a1.2,1.2,0,0,0,1.14-1.21Z"/><path class="cls-6" d="M462.09,169.86v5.75h-.75v-5.75Z"/><path class="cls-6" d="M467.15,175.46a2.79,2.79,0,0,1-1.18.23,2,2,0,0,1-2.06-2.1,2.1,2.1,0,0,1,2.22-2.2,2.52,2.52,0,0,1,1,.22l-.17.58a1.76,1.76,0,0,0-.87-.2,1.56,1.56,0,0,0,0,3.11,2.09,2.09,0,0,0,.93-.21Z"/><path class="cls-6" d="M469.25,173.68a1.32,1.32,0,0,0,1.42,1.43,2.68,2.68,0,0,0,1.14-.21l.13.54a3.34,3.34,0,0,1-1.37.25,1.91,1.91,0,0,1-2-2.08,2,2,0,0,1,1.93-2.22,1.75,1.75,0,0,1,1.71,1.94,2.53,2.53,0,0,1,0,.35Zm2.2-.54a1.07,1.07,0,0,0-1-1.22,1.24,1.24,0,0,0-1.15,1.22Z"/><path class="cls-6" d="M474,169.55h.75v6.06H474Z"/><path class="cls-6" d="M479.12,175.61l-.06-.52h0a1.54,1.54,0,0,1-1.26.61,1.18,1.18,0,0,1-1.27-1.18c0-1,.89-1.55,2.49-1.54v-.08a.85.85,0,0,0-.94-1,2.07,2.07,0,0,0-1.08.31l-.17-.5a2.62,2.62,0,0,1,1.36-.36c1.26,0,1.57.86,1.57,1.69v1.54a5.9,5.9,0,0,0,.07,1ZM479,173.5c-.81,0-1.74.13-1.74.93a.66.66,0,0,0,.7.72,1,1,0,0,0,1-.69.71.71,0,0,0,0-.24Z"/><path class="cls-6" d="M481.79,172.6c0-.43,0-.78,0-1.12h.67l0,.68h0a1.51,1.51,0,0,1,1.36-.77c.57,0,1.46.34,1.46,1.75v2.47h-.75v-2.38c0-.67-.25-1.22-1-1.22a1.06,1.06,0,0,0-1,.77.91.91,0,0,0-.06.35v2.48h-.75Z"/><path class="cls-6" d="M491,169.55v5c0,.37,0,.79,0,1.07h-.67l0-.72h0a1.54,1.54,0,0,1-1.41.81,1.88,1.88,0,0,1-1.77-2.1,2,2,0,0,1,1.86-2.21,1.36,1.36,0,0,1,1.24.63h0v-2.47Zm-.75,3.61a1.22,1.22,0,0,0,0-.32,1.11,1.11,0,0,0-1.08-.87c-.78,0-1.24.69-1.24,1.6s.41,1.53,1.22,1.53a1.12,1.12,0,0,0,1.1-.9,1.08,1.08,0,0,0,0-.32Z"/><rect class="cls-5" x="346.41" y="63.96" width="46.18" height="167.19"/><rect class="cls-6" x="292.39" y="116.69" width="46.18" height="113.33"/><rect class="cls-6" x="400.43" y="138.09" width="46.18" height="91.92"/><rect class="cls-6" x="455.32" y="184.06" width="46.18" height="46.83"/><rect class="cls-6" x="237.5" y="202.57" width="46.18" height="28.32"/><path class="cls-6" d="M247.08,192.26c-.05-.8-.1-1.76-.09-2.48h0c-.2.68-.44,1.39-.73,2.18l-1,2.79h-.57l-.93-2.73c-.27-.81-.5-1.56-.66-2.24h0c0,.72-.06,1.68-.11,2.54l-.15,2.47h-.71l.4-5.75h1l1,2.78c.24.71.43,1.34.58,1.94h0c.15-.58.35-1.22.61-1.94l1-2.78h1l.36,5.75h-.73Z"/><path class="cls-6" d="M252.26,194.79l-.06-.52h0a1.54,1.54,0,0,1-1.26.61,1.17,1.17,0,0,1-1.26-1.18c0-1,.88-1.55,2.48-1.54v-.08a.85.85,0,0,0-.94-1,2.07,2.07,0,0,0-1.08.31l-.17-.5a2.62,2.62,0,0,1,1.36-.36c1.26,0,1.57.86,1.57,1.68v1.55a5.9,5.9,0,0,0,.07,1Zm-.11-2.11c-.82,0-1.75.13-1.75.93a.66.66,0,0,0,.7.72,1,1,0,0,0,1-.69.74.74,0,0,0,.05-.24Z"/><path class="cls-6" d="M254.94,192c0-.49,0-.91,0-1.29h.66l0,.81h0a1.24,1.24,0,0,1,1.14-.9.65.65,0,0,1,.21,0v.71a.9.9,0,0,0-.25,0,1.05,1.05,0,0,0-1,1,1.83,1.83,0,0,0,0,.35v2.2h-.74Z"/><path class="cls-6" d="M262.23,192.69a2,2,0,0,1-2.06,2.19,2,2,0,0,1-2-2.12,2,2,0,0,1,2.05-2.19A2,2,0,0,1,262.23,192.69Zm-3.28,0c0,.91.52,1.59,1.26,1.59s1.25-.67,1.25-1.6c0-.7-.35-1.59-1.24-1.59S259,192,259,192.73Z"/><path class="cls-6" d="M267,194.63a2.61,2.61,0,0,1-1.18.24,2,2,0,0,1-2.06-2.1,2.1,2.1,0,0,1,2.22-2.2,2.56,2.56,0,0,1,1,.22l-.17.58a1.76,1.76,0,0,0-.87-.2,1.56,1.56,0,0,0,0,3.11,2,2,0,0,0,.92-.21Z"/><path class="cls-6" d="M271.6,194.63a2.7,2.7,0,0,1-1.19.24,2,2,0,0,1-2.06-2.1,2.11,2.11,0,0,1,2.22-2.2,2.48,2.48,0,0,1,1,.22l-.17.58a1.76,1.76,0,0,0-.87-.2,1.56,1.56,0,0,0,0,3.11,2.08,2.08,0,0,0,.92-.21Z"/><path class="cls-6" d="M277,192.69a2,2,0,0,1-2.05,2.19,2,2,0,0,1-2-2.12,2,2,0,0,1,2-2.19A2,2,0,0,1,277,192.69Zm-3.27,0c0,.91.52,1.59,1.25,1.59s1.26-.67,1.26-1.6c0-.7-.35-1.59-1.24-1.59S273.74,192,273.74,192.73Z"/></g></g></svg>