<svg xmlns="http://www.w3.org/2000/svg" xmlns:xlink="http://www.w3.org/1999/xlink" viewBox="0 0 488.96 181.94"><defs><style>.cls-1,.cls-4,.cls-6{fill:none;}.cls-2{fill:#fff;}.cls-3{fill:#ecb900;}.cls-4{stroke:#ecb900;stroke-width:10px;}.cls-4,.cls-6{stroke-miterlimit:10;}.cls-5{clip-path:url(#clip-path);}.cls-6{stroke:#fff;stroke-width:7px;}</style><clipPath id="clip-path"><rect class="cls-1" x="21.19" y="54.1" width="110.05" height="110.06"/></clipPath></defs><title>Fichier 6</title><g id="Calque_2" data-name="Calque 2"><g id="Calque_1-2" data-name="Calque 1"><path class="cls-2" d="M225.09,5a4.22,4.22,0,0,1-1.3.23,2.2,2.2,0,0,1-1.58-.56,2.17,2.17,0,0,1-.58-1.57A2.11,2.11,0,0,1,223.91.91a2.52,2.52,0,0,1,1.05.2l-.13.44a2.21,2.21,0,0,0-.93-.18,1.58,1.58,0,0,0-1.7,1.7,1.55,1.55,0,0,0,1.63,1.7,1.57,1.57,0,0,0,.72-.12V3.4h-.85V3h1.39Z"/><path class="cls-2" d="M228.72,3.2h-1.64V4.72h1.83v.45h-2.37V1h2.28v.45h-1.74V2.75h1.64Z"/><path class="cls-2" d="M230.24,5.17V1h.6l1.35,2.13A12.18,12.18,0,0,1,233,4.46h0c-.05-.56-.06-1.07-.06-1.73V1h.51V5.17h-.55L231.52,3a13.31,13.31,0,0,1-.79-1.4h0c0,.54,0,1,0,1.74v1.8Z"/><path class="cls-2" d="M235,1A6.41,6.41,0,0,1,236,.93a1.73,1.73,0,0,1,1.22.34,1.07,1.07,0,0,1,.33.8,1.11,1.11,0,0,1-.8,1.08v0a1,1,0,0,1,.62.85,6.57,6.57,0,0,0,.33,1.15h-.56a5.25,5.25,0,0,1-.29-1c-.12-.59-.35-.8-.84-.82h-.51V5.17H235Zm.55,1.92h.55c.59,0,.95-.31.95-.8s-.39-.78-1-.79a1.79,1.79,0,0,0-.53.06Z"/><path class="cls-2" d="M241.16,3.2h-1.64V4.72h1.82v.45H239V1h2.28v.45h-1.73V2.75h1.64Z"/><path class="cls-2" d="M242.6,4.51a1.91,1.91,0,0,0,1,.28c.56,0,.89-.3.89-.72s-.23-.62-.8-.84-1.11-.6-1.11-1.2A1.21,1.21,0,0,1,243.91.89a2,2,0,0,1,.93.2l-.15.45a1.6,1.6,0,0,0-.8-.2c-.57,0-.79.34-.79.63s.25.59.84.81S245,3.4,245,4s-.48,1.22-1.47,1.22A2.2,2.2,0,0,1,242.46,5Z"/><path class="cls-2" d="M248.33,1h.55V4.72h1.8v.45h-2.35Z"/><path class="cls-2" d="M254.09,3.2h-1.64V4.72h1.83v.45h-2.37V1h2.28v.45h-1.74V2.75h1.64Z"/><path class="cls-2" d="M255.53,4.51a2,2,0,0,0,1,.28c.56,0,.88-.3.88-.72s-.22-.62-.79-.84-1.12-.6-1.12-1.2A1.22,1.22,0,0,1,256.85.89a2,2,0,0,1,.93.2l-.15.45a1.63,1.63,0,0,0-.8-.2c-.58,0-.79.34-.79.63s.25.59.83.81S258,3.4,258,4s-.48,1.22-1.48,1.22A2.16,2.16,0,0,1,255.4,5Z"/><path class="cls-2" d="M261.27,1a5.7,5.7,0,0,1,1-.08,1.73,1.73,0,0,1,1.19.35,1.12,1.12,0,0,1,.36.88,1.25,1.25,0,0,1-.32.9,1.74,1.74,0,0,1-1.29.46,1.53,1.53,0,0,1-.44,0V5.17h-.54Zm.54,2a1.92,1.92,0,0,0,.45,0c.66,0,1.06-.31,1.06-.9s-.39-.82-1-.82a2.85,2.85,0,0,0-.52,0Z"/><path class="cls-2" d="M265.22,1h.54V4.72h1.81v.45h-2.35Z"/><path class="cls-2" d="M269.12,1V3.45c0,1,.41,1.35,1,1.35s1-.41,1-1.35V1h.55V3.42c0,1.29-.68,1.82-1.59,1.82s-1.52-.49-1.52-1.8V1Z"/><path class="cls-2" d="M273.17,4.51a1.91,1.91,0,0,0,1,.28c.56,0,.89-.3.89-.72s-.23-.62-.8-.84-1.11-.6-1.11-1.2A1.21,1.21,0,0,1,274.48.89a2,2,0,0,1,.93.2l-.15.45a1.63,1.63,0,0,0-.8-.2c-.57,0-.79.34-.79.63s.25.59.84.81,1.07.62,1.07,1.24-.48,1.22-1.47,1.22A2.17,2.17,0,0,1,273,5Z"/><path class="cls-2" d="M279.45,1.42h-1.29V1h3.12v.46H280V5.17h-.55Z"/><path class="cls-2" d="M285.81,3a2,2,0,0,1-2,2.22A1.93,1.93,0,0,1,282,3.1a2,2,0,0,1,2-2.21A1.91,1.91,0,0,1,285.81,3Zm-3.27.07c0,.9.49,1.71,1.35,1.71s1.35-.8,1.35-1.75-.44-1.72-1.35-1.72S282.54,2.17,282.54,3.09Z"/><path class="cls-2" d="M287.69,1V3.45c0,1,.41,1.35,1,1.35s1-.41,1-1.35V1h.55V3.42c0,1.29-.68,1.82-1.59,1.82s-1.52-.49-1.52-1.8V1Z"/><path class="cls-2" d="M291.81,1a6.41,6.41,0,0,1,1.05-.08,1.73,1.73,0,0,1,1.22.34,1.07,1.07,0,0,1,.33.8,1.11,1.11,0,0,1-.8,1.08v0a1,1,0,0,1,.62.85,6.57,6.57,0,0,0,.33,1.15H294a5.25,5.25,0,0,1-.29-1c-.12-.59-.35-.8-.84-.82h-.51V5.17h-.55Zm.55,1.92h.55c.59,0,.95-.31.95-.8s-.39-.78-1-.79a1.79,1.79,0,0,0-.53.06Z"/><path class="cls-2" d="M295.8,5.17V1h.6l1.35,2.13a12,12,0,0,1,.75,1.37h0c0-.56-.07-1.07-.07-1.73V1H299V5.17h-.55L297.08,3a11.73,11.73,0,0,1-.79-1.4h0c0,.54,0,1,0,1.74v1.8Z"/><path class="cls-2" d="M302.72,3.2h-1.64V4.72h1.83v.45h-2.37V1h2.28v.45h-1.74V2.75h1.64Zm-.1-3.2-.8.73h-.45L302,0Z"/><path class="cls-2" d="M304.17,4.51a1.91,1.91,0,0,0,1,.28c.56,0,.89-.3.89-.72s-.23-.62-.8-.84-1.11-.6-1.11-1.2A1.21,1.21,0,0,1,305.48.89a2,2,0,0,1,.93.2l-.15.45a1.6,1.6,0,0,0-.8-.2c-.57,0-.79.34-.79.63s.25.59.84.81,1.07.62,1.07,1.24-.48,1.22-1.47,1.22A2.2,2.2,0,0,1,304,5Z"/><path class="cls-2" d="M310.58,3.85l-.43,1.32h-.57L311,1h.66l1.44,4.21h-.58l-.45-1.32ZM312,3.42l-.42-1.21c-.09-.28-.15-.53-.22-.77h0c-.06.25-.13.51-.21.76l-.41,1.22Z"/><path class="cls-2" d="M314.72,1V3.45c0,1,.42,1.35,1,1.35s1-.41,1-1.35V1h.55V3.42c0,1.29-.68,1.82-1.59,1.82s-1.52-.49-1.52-1.8V1Z"/><path class="cls-2" d="M324.35,3.32c0-.59-.07-1.29-.06-1.82h0c-.14.5-.32,1-.53,1.6L323,5.15h-.42l-.68-2c-.2-.59-.37-1.14-.49-1.64h0c0,.53,0,1.23-.08,1.87l-.11,1.8h-.52L321,1h.7l.71,2c.18.52.32,1,.43,1.42h0c.11-.43.26-.89.44-1.42L324,1h.7L325,5.17h-.53Z"/><path class="cls-2" d="M327.07,3.85l-.44,1.32h-.56L327.5,1h.66l1.44,4.21H329l-.45-1.32Zm1.38-.43L328,2.21c-.09-.28-.16-.53-.22-.77h0c-.06.25-.13.51-.21.76l-.42,1.22Z"/><path class="cls-2" d="M330.84,1a6.41,6.41,0,0,1,1.05-.08,1.73,1.73,0,0,1,1.22.34,1.07,1.07,0,0,1,.33.8,1.11,1.11,0,0,1-.8,1.08v0a1,1,0,0,1,.62.85,6.57,6.57,0,0,0,.33,1.15H333a5.25,5.25,0,0,1-.29-1c-.12-.59-.35-.8-.84-.82h-.51V5.17h-.55Zm.55,1.92h.55c.58,0,.95-.31.95-.8s-.39-.78-1-.79a1.79,1.79,0,0,0-.53.06Z"/><path class="cls-2" d="M338.45,3a2,2,0,0,1-1.95,2.22,1.93,1.93,0,0,1-1.9-2.14,2,2,0,0,1,2-2.21A1.91,1.91,0,0,1,338.45,3Zm-3.27.07c0,.9.49,1.71,1.35,1.71s1.35-.8,1.35-1.75-.44-1.72-1.35-1.72S335.18,2.17,335.18,3.09Z"/><path class="cls-2" d="M342.73,5a2.69,2.69,0,0,1-1.11.2,2,2,0,0,1-2.09-2.14A2.1,2.1,0,0,1,341.74.89a2.22,2.22,0,0,1,1,.19l-.14.44a2,2,0,0,0-.85-.18,1.57,1.57,0,0,0-1.64,1.74,1.53,1.53,0,0,0,1.62,1.7,2.13,2.13,0,0,0,.89-.18Z"/><path class="cls-2" d="M222.69,39.33l-.44,1.32h-.56l1.43-4.21h.66l1.44,4.21h-.58l-.45-1.32Zm1.38-.43-.41-1.21c-.09-.28-.16-.53-.22-.77h0c-.06.25-.13.5-.21.76l-.42,1.22Z"/><path class="cls-2" d="M228.53,40.54a2,2,0,0,1-.87.17,1.43,1.43,0,0,1-1.51-1.54,1.54,1.54,0,0,1,1.62-1.61,1.77,1.77,0,0,1,.77.16l-.13.42a1.31,1.31,0,0,0-.64-.14,1.14,1.14,0,0,0,0,2.28,1.51,1.51,0,0,0,.67-.15Z"/><path class="cls-2" d="M230.54,36.75v.87h.79V38h-.79v1.64c0,.37.1.58.41.58a1.27,1.27,0,0,0,.32,0l0,.41a1.39,1.39,0,0,1-.48.07.77.77,0,0,1-.6-.23,1.14,1.14,0,0,1-.21-.78V38h-.47v-.42H230V36.9Z"/><path class="cls-2" d="M233.18,36.77a.32.32,0,0,1-.35.34.34.34,0,0,1,0-.68A.33.33,0,0,1,233.18,36.77Zm-.61,3.88v-3h.55v3Z"/><path class="cls-2" d="M237.4,39.11a1.48,1.48,0,0,1-1.51,1.61,1.44,1.44,0,0,1-1.45-1.56,1.47,1.47,0,0,1,1.5-1.6A1.43,1.43,0,0,1,237.4,39.11Zm-2.4,0c0,.67.38,1.17.92,1.17s.91-.5.91-1.18c0-.51-.25-1.16-.9-1.16S235,38.57,235,39.14Z"/><path class="cls-2" d="M238.72,38.44c0-.31,0-.56,0-.82h.49l0,.5h0a1.12,1.12,0,0,1,1-.56c.42,0,1.07.25,1.07,1.28v1.81h-.55V38.91c0-.49-.18-.9-.7-.9a.8.8,0,0,0-.74.57.9.9,0,0,0,0,.25v1.82h-.55Z"/><rect class="cls-3" x="221.53" y="43.88" width="267.43" height="1.97"/><path class="cls-2" d="M222.69,62.94l-.44,1.32h-.56l1.43-4.21h.66l1.44,4.21h-.58l-.45-1.32Zm1.38-.43-.41-1.21c-.09-.28-.16-.53-.22-.77h0c-.06.25-.13.51-.21.76l-.42,1.22Z"/><path class="cls-2" d="M229,59.82v3.66c0,.27,0,.58,0,.78h-.5l0-.52h0a1.12,1.12,0,0,1-1,.59,1.38,1.38,0,0,1-1.29-1.54,1.44,1.44,0,0,1,1.36-1.62,1,1,0,0,1,.91.46h0V59.82Zm-.55,2.65a1.79,1.79,0,0,0,0-.23.82.82,0,0,0-.8-.64c-.57,0-.9.5-.9,1.17s.29,1.12.89,1.12a.84.84,0,0,0,.81-.66,1.66,1.66,0,0,0,0-.24Z"/><path class="cls-2" d="M230.73,61.24l.6,1.7a6.73,6.73,0,0,1,.24.77h0c.07-.25.15-.5.25-.77l.59-1.7H233l-1.19,3h-.53l-1.15-3Z"/><path class="cls-2" d="M234.4,62.85a1,1,0,0,0,1,1,1.91,1.91,0,0,0,.84-.16l.1.4a2.45,2.45,0,0,1-1,.19,1.41,1.41,0,0,1-1.49-1.53,1.47,1.47,0,0,1,1.42-1.63,1.28,1.28,0,0,1,1.25,1.42,1.51,1.51,0,0,1,0,.26Zm1.61-.39a.78.78,0,0,0-.76-.9.92.92,0,0,0-.85.9Z"/><path class="cls-2" d="M237.85,62.06c0-.32,0-.57,0-.82h.49l0,.5h0a1.11,1.11,0,0,1,1-.57c.42,0,1.07.25,1.07,1.29v1.8h-.55V62.52c0-.49-.18-.9-.7-.9a.8.8,0,0,0-.74.57,1,1,0,0,0,0,.25v1.82h-.55Z"/><path class="cls-2" d="M242.58,60.37v.87h.79v.42h-.79v1.63c0,.37.11.59.41.59a1.13,1.13,0,0,0,.32,0l0,.41a1.46,1.46,0,0,1-.49.08.72.72,0,0,1-.59-.24,1.09,1.09,0,0,1-.22-.78V61.66h-.47v-.42H242v-.73Z"/><path class="cls-2" d="M247.15,63.44c0,.31,0,.59,0,.82h-.49l0-.49h0a1.14,1.14,0,0,1-1,.56c-.48,0-1-.26-1-1.32V61.24h.55v1.67c0,.58.18,1,.68,1a.78.78,0,0,0,.72-.5.71.71,0,0,0,.05-.29V61.24h.56Z"/><path class="cls-2" d="M248.68,62.18c0-.36,0-.66,0-.94h.48l0,.59h0a.9.9,0,0,1,.84-.66.41.41,0,0,1,.16,0v.52a.58.58,0,0,0-.19,0,.77.77,0,0,0-.74.7,2.11,2.11,0,0,0,0,.26v1.61h-.55Z"/><path class="cls-2" d="M251.6,62.85a1,1,0,0,0,1,1,1.91,1.91,0,0,0,.84-.16l.1.4a2.45,2.45,0,0,1-1,.19,1.41,1.41,0,0,1-1.49-1.53,1.47,1.47,0,0,1,1.42-1.63,1.28,1.28,0,0,1,1.25,1.42,1.51,1.51,0,0,1,0,.26Zm1.61-.39a.78.78,0,0,0-.76-.9.92.92,0,0,0-.85.9Z"/><rect class="cls-3" x="221.53" y="68.66" width="229.2" height="1.97"/><path class="cls-2" d="M222,84.89a7.71,7.71,0,0,1,1.16-.09,2.42,2.42,0,0,1,1.7.52,2,2,0,0,1,.6,1.52,2.21,2.21,0,0,1-.61,1.64,2.6,2.6,0,0,1-1.86.6,7.07,7.07,0,0,1-1,0Zm.54,3.73a4.22,4.22,0,0,0,.55,0,1.62,1.62,0,0,0,1.8-1.79,1.5,1.5,0,0,0-1.71-1.63,3.22,3.22,0,0,0-.64.06Z"/><path class="cls-2" d="M226.78,87c0-.35,0-.66,0-.94h.49v.59h0a.92.92,0,0,1,.84-.66l.15,0v.52l-.18,0a.77.77,0,0,0-.74.71,1.71,1.71,0,0,0,0,.25v1.62h-.54Z"/><path class="cls-2" d="M231.09,89.05l0-.38h0a1.14,1.14,0,0,1-.92.45.87.87,0,0,1-.93-.87c0-.74.65-1.14,1.82-1.13v-.06a.62.62,0,0,0-.69-.7,1.51,1.51,0,0,0-.79.22l-.12-.36a1.89,1.89,0,0,1,1-.27c.93,0,1.15.63,1.15,1.24v1.13a5.35,5.35,0,0,0,.05.73ZM231,87.5c-.6,0-1.28.1-1.28.68a.49.49,0,0,0,.52.53.76.76,0,0,0,.73-.51.51.51,0,0,0,0-.17Z"/><path class="cls-2" d="M233.06,86.84c0-.31,0-.57,0-.82h.48l0,.49h0a1,1,0,0,1,.95-.56.91.91,0,0,1,.86.61h0a1.22,1.22,0,0,1,.34-.4,1.07,1.07,0,0,1,.67-.21c.4,0,1,.26,1,1.31v1.79h-.54V87.33c0-.58-.21-.93-.65-.93a.7.7,0,0,0-.65.5.82.82,0,0,0,0,.28v1.87H235V87.23c0-.48-.21-.83-.63-.83a.76.76,0,0,0-.68.55.8.8,0,0,0,0,.27v1.83h-.54Z"/><path class="cls-2" d="M240.57,89.05l0-.38h0a1.15,1.15,0,0,1-.93.45.86.86,0,0,1-.92-.87c0-.74.65-1.14,1.82-1.13v-.06a.62.62,0,0,0-.69-.7,1.51,1.51,0,0,0-.79.22l-.12-.36a1.89,1.89,0,0,1,1-.27c.93,0,1.15.63,1.15,1.24v1.13a5.35,5.35,0,0,0,0,.73Zm-.08-1.55c-.6,0-1.28.1-1.28.68a.49.49,0,0,0,.52.53.76.76,0,0,0,.73-.51.51.51,0,0,0,0-.17Z"/><rect class="cls-3" x="221.53" y="93.44" width="152.47" height="1.97"/><path class="cls-2" d="M221.93,113.17a2,2,0,0,0,1,.27c.56,0,.88-.29.88-.72s-.22-.62-.79-.84-1.12-.6-1.12-1.19a1.22,1.22,0,0,1,1.37-1.15,1.87,1.87,0,0,1,.93.21l-.15.44a1.75,1.75,0,0,0-.8-.2c-.58,0-.8.35-.8.64s.26.58.84.81,1.08.62,1.08,1.24-.48,1.21-1.48,1.21a2.16,2.16,0,0,1-1.07-.27Z"/><path class="cls-2" d="M227.89,113.72a2.1,2.1,0,0,1-.87.17,1.43,1.43,0,0,1-1.5-1.54,1.53,1.53,0,0,1,1.62-1.61,2,2,0,0,1,.77.15l-.13.43a1.35,1.35,0,0,0-.64-.14,1,1,0,0,0-1.07,1.14,1,1,0,0,0,1.05,1.13,1.56,1.56,0,0,0,.68-.15Z"/><path class="cls-2" d="M229.77,110a.32.32,0,0,1-.35.34.33.33,0,0,1-.33-.34.34.34,0,0,1,.35-.34A.32.32,0,0,1,229.77,110Zm-.61,3.88v-3h.55v3Z"/><path class="cls-2" d="M232.53,111.93v.41H231v-.41Z"/><path class="cls-2" d="M233.81,109.61h2.27v.46h-1.72v1.4H236v.45h-1.59v1.91h-.55Z"/><path class="cls-2" d="M237.92,110a.35.35,0,0,1-.69,0,.34.34,0,0,1,.35-.34A.33.33,0,0,1,237.92,110Zm-.62,3.88v-3h.55v3Z"/><rect class="cls-3" x="221.53" y="118.22" width="152.47" height="1.97"/><path class="cls-2" d="M222.81,134.86h-1.28v-.46h3.12v.46h-1.29v3.75h-.55Z"/><path class="cls-2" d="M225.68,134.17h.55v1.89h0a1.07,1.07,0,0,1,.4-.39,1.14,1.14,0,0,1,.56-.15c.41,0,1.06.25,1.06,1.29v1.8h-.55v-1.74c0-.49-.18-.9-.7-.9a.79.79,0,0,0-.74.55.73.73,0,0,0,0,.27v1.82h-.55Z"/><path class="cls-2" d="M229.77,136.53c0-.36,0-.66,0-.95h.48l0,.6h0a.9.9,0,0,1,.84-.66h.16v.52h-.19a.77.77,0,0,0-.74.7,2,2,0,0,0,0,.26v1.61h-.55Z"/><path class="cls-2" d="M233.08,134.73a.32.32,0,0,1-.35.34.33.33,0,0,1-.33-.34.33.33,0,0,1,.35-.34A.32.32,0,0,1,233.08,134.73Zm-.61,3.88v-3H233v3Z"/><path class="cls-2" d="M234.56,134.17h.55v4.44h-.55Z"/><path class="cls-2" d="M236.66,134.17h.55v4.44h-.55Z"/><path class="cls-2" d="M239.07,137.2a1,1,0,0,0,1,1.05,1.91,1.91,0,0,0,.84-.16l.1.4a2.48,2.48,0,0,1-1,.18,1.4,1.4,0,0,1-1.49-1.52,1.47,1.47,0,0,1,1.42-1.63,1.27,1.27,0,0,1,1.25,1.42,1.61,1.61,0,0,1,0,.26Zm1.61-.4a.78.78,0,0,0-.76-.89.92.92,0,0,0-.85.89Z"/><path class="cls-2" d="M242.52,136.53c0-.36,0-.66,0-.95H243l0,.6h0a.9.9,0,0,1,.84-.66H244v.52h-.18a.76.76,0,0,0-.74.7,1,1,0,0,0,0,.26v1.61h-.54Z"/><rect class="cls-3" x="221.53" y="143.01" width="75.94" height="1.97"/><path class="cls-2" d="M222,159.23a5.34,5.34,0,0,1,1-.08,1.75,1.75,0,0,1,1.16.3.9.9,0,0,1,.35.75,1,1,0,0,1-.71.92v0a1.08,1.08,0,0,1,.87,1.05,1.16,1.16,0,0,1-.36.85,2.11,2.11,0,0,1-1.46.39,5.57,5.57,0,0,1-.84-.05Zm.54,1.73h.5c.57,0,.91-.3.91-.71s-.38-.68-.92-.68a2.48,2.48,0,0,0-.49,0Zm0,2a2.77,2.77,0,0,0,.46,0c.56,0,1.08-.21,1.08-.82s-.49-.82-1.09-.82h-.45Z"/><path class="cls-2" d="M226.62,159.52a.33.33,0,0,1-.35.33.32.32,0,0,1-.33-.33.33.33,0,0,1,.34-.35A.33.33,0,0,1,226.62,159.52Zm-.62,3.87v-3h.55v3Z"/><path class="cls-2" d="M230.83,161.86a1.47,1.47,0,0,1-1.5,1.6,1.44,1.44,0,0,1-1.46-1.55,1.48,1.48,0,0,1,1.51-1.61A1.43,1.43,0,0,1,230.83,161.86Zm-2.4,0c0,.66.38,1.16.92,1.16s.92-.49.92-1.18c0-.51-.26-1.16-.91-1.16S228.43,161.31,228.43,161.89Z"/><path class="cls-2" d="M234.76,160.37c0,.22,0,.46,0,.83V163a1.72,1.72,0,0,1-.43,1.38,1.62,1.62,0,0,1-1.1.36,2,2,0,0,1-1-.25l.14-.42a1.65,1.65,0,0,0,.89.24c.56,0,1-.29,1-1.06v-.33h0a1.07,1.07,0,0,1-1,.5,1.35,1.35,0,0,1-1.29-1.47,1.45,1.45,0,0,1,1.36-1.61,1,1,0,0,1,1,.52h0l0-.45Zm-.57,1.19a1,1,0,0,0,0-.25.79.79,0,0,0-.77-.58c-.53,0-.9.44-.9,1.14s.3,1.09.89,1.09a.81.81,0,0,0,.77-.56,1,1,0,0,0,0-.29Z"/><path class="cls-2" d="M236.23,161.31c0-.35,0-.66,0-.94h.48l0,.59h0a.9.9,0,0,1,.84-.66.41.41,0,0,1,.16,0v.52a.55.55,0,0,0-.19,0,.77.77,0,0,0-.74.7,2.11,2.11,0,0,0,0,.26v1.61h-.55Z"/><path class="cls-2" d="M240.55,163.39l-.05-.38h0a1.13,1.13,0,0,1-.93.45.87.87,0,0,1-.93-.87c0-.73.65-1.13,1.82-1.12v-.06a.62.62,0,0,0-.68-.71,1.47,1.47,0,0,0-.79.23l-.13-.36a1.84,1.84,0,0,1,1-.27c.92,0,1.15.63,1.15,1.24v1.13a3.94,3.94,0,0,0,.05.72Zm-.08-1.54c-.6,0-1.29.09-1.29.68a.49.49,0,0,0,.52.53.76.76,0,0,0,.74-.51,1.22,1.22,0,0,0,0-.17Z"/><path class="cls-2" d="M242.51,161.36c0-.39,0-.71,0-1H243l0,.52h0a1.18,1.18,0,0,1,1.07-.59,1.37,1.37,0,0,1,1.29,1.54,1.43,1.43,0,0,1-1.38,1.62,1.05,1.05,0,0,1-.93-.47h0v1.64h-.55Zm.55.8a1.64,1.64,0,0,0,0,.23.85.85,0,0,0,.83.64c.58,0,.92-.47.92-1.17s-.32-1.12-.91-1.12a.87.87,0,0,0-.83.68.83.83,0,0,0,0,.22Z"/><path class="cls-2" d="M246.69,159h.55v1.89h0a1,1,0,0,1,.39-.39,1.17,1.17,0,0,1,.56-.15c.41,0,1.06.25,1.06,1.29v1.8h-.55v-1.73c0-.49-.18-.91-.7-.91a.79.79,0,0,0-.74.55.73.73,0,0,0,0,.27v1.82h-.55Z"/><path class="cls-2" d="M250.91,160.37l.66,1.79c.07.2.15.43.2.62h0c.05-.19.12-.42.19-.64l.6-1.77h.58l-.82,2.16a4.61,4.61,0,0,1-1,1.89,1.57,1.57,0,0,1-.67.36l-.14-.47A1.31,1.31,0,0,0,251,164a1.54,1.54,0,0,0,.46-.61.31.31,0,0,0,.05-.13.82.82,0,0,0,0-.14l-1.12-2.79Z"/><rect class="cls-3" x="221.53" y="167.79" width="37.97" height="1.97"/><path class="cls-4" d="M76.22,41.33A67.77,67.77,0,1,1,10.57,92.09"/><g class="cls-5"><path class="cls-6" d="M76.22,56.84a52.3,52.3,0,1,1-52.3,52.3c0-.89,0-1.78.07-2.66"/></g><path class="cls-3" d="M57.11,100.59v1.61l-7.88,16.47H46.7l7.85-16v0H45.7v-2Z"/><path class="cls-3" d="M61.62,122.09a39.65,39.65,0,0,0,1.66-6.65l2.73-.27a33.68,33.68,0,0,1-2.64,6.75Z"/><path class="cls-3" d="M72.38,117a10.29,10.29,0,0,0,2-.09,6.83,6.83,0,0,0,3.78-1.75,8,8,0,0,0,2.39-4.81h-.08a5.32,5.32,0,0,1-4.26,1.94,5.23,5.23,0,0,1-5.34-5.53A6.21,6.21,0,0,1,77,100.28c3.7,0,6,3,6,7.63,0,4-1.34,6.75-3.12,8.48a9,9,0,0,1-5.26,2.42,11.16,11.16,0,0,1-2.25.14Zm.89-10.41c0,2.25,1.36,3.84,3.48,3.84a4.06,4.06,0,0,0,3.56-1.89,1.6,1.6,0,0,0,.22-.89c0-3.09-1.14-5.45-3.7-5.45C74.75,102.15,73.27,104,73.27,106.54Z"/><path class="cls-3" d="M98.36,118.94l1.87-4.87h.46l-1.88,4.87Z"/><path class="cls-3" d="M102.92,114.86h0l-.76.41-.11-.45.95-.51h.5v4.36h-.57Z"/><path class="cls-3" d="M108.66,116.44c0,1.48-.55,2.3-1.52,2.3s-1.43-.79-1.44-2.24.63-2.27,1.51-2.27S108.66,115.05,108.66,116.44Zm-2.37.07c0,1.13.35,1.78.88,1.78s.9-.71.9-1.82-.28-1.78-.89-1.78S106.29,115.32,106.29,116.51Z"/><path class="cls-2" d="M48.68,130.92c0-.35,0-.64,0-.92h.54l0,.55h0a1.16,1.16,0,0,1,1.06-.62,1,1,0,0,1,1,.67h0a1.51,1.51,0,0,1,.38-.44,1.15,1.15,0,0,1,.74-.23c.45,0,1.11.29,1.11,1.46v2h-.6v-1.91c0-.64-.24-1-.73-1a.79.79,0,0,0-.72.55,1,1,0,0,0,0,.31v2.08h-.6v-2c0-.53-.24-.92-.7-.92a.84.84,0,0,0-.76.61.76.76,0,0,0,0,.3v2h-.6Z"/><path class="cls-2" d="M58.23,131.66a1.65,1.65,0,0,1-1.68,1.79,1.61,1.61,0,0,1-1.62-1.74,1.64,1.64,0,0,1,1.67-1.78A1.6,1.6,0,0,1,58.23,131.66Zm-2.68,0c0,.74.43,1.3,1,1.3s1-.55,1-1.31c0-.57-.29-1.29-1-1.29S55.55,131.05,55.55,131.69Z"/><path class="cls-2" d="M59.87,130l.73,2c.08.23.16.49.22.69h0c.07-.2.13-.46.22-.7l.67-2h.64l-.91,2.4a5.07,5.07,0,0,1-1.16,2.11,1.66,1.66,0,0,1-.75.4l-.16-.52a1.34,1.34,0,0,0,.54-.3,1.76,1.76,0,0,0,.52-.68.63.63,0,0,0,0-.14.41.41,0,0,0,0-.16L59.2,130Z"/><path class="cls-2" d="M63.89,131.8A1.07,1.07,0,0,0,65,133a2.15,2.15,0,0,0,.93-.18l.11.44a2.72,2.72,0,0,1-1.12.21,1.56,1.56,0,0,1-1.66-1.7,1.63,1.63,0,0,1,1.58-1.81,1.42,1.42,0,0,1,1.39,1.58,1.85,1.85,0,0,1,0,.29Zm1.79-.44a.87.87,0,0,0-.85-1,1,1,0,0,0-.94,1Z"/><path class="cls-2" d="M67.72,130.92c0-.35,0-.64,0-.92h.54l0,.56h0a1.23,1.23,0,0,1,1.11-.63c.47,0,1.19.28,1.19,1.43v2H70v-1.94c0-.54-.2-1-.78-1a.87.87,0,0,0-.82.63.85.85,0,0,0,0,.29v2h-.62Z"/><path class="cls-2" d="M72.28,130.92c0-.35,0-.64,0-.92h.54l0,.56h0a1.25,1.25,0,0,1,1.12-.63c.46,0,1.19.28,1.19,1.43v2h-.61v-1.94c0-.54-.21-1-.78-1a.88.88,0,0,0-.83.63,1.19,1.19,0,0,0,0,.29v2h-.61Z"/><path class="cls-2" d="M77.18,131.8A1.07,1.07,0,0,0,78.33,133a2.11,2.11,0,0,0,.93-.18l.11.44a2.72,2.72,0,0,1-1.12.21,1.56,1.56,0,0,1-1.66-1.7,1.63,1.63,0,0,1,1.58-1.81,1.42,1.42,0,0,1,1.39,1.58,1.85,1.85,0,0,1,0,.29Zm1.79-.44a.87.87,0,0,0-.85-1,1,1,0,0,0-.94,1Z"/><path class="cls-2" d="M85.93,128.85v.4l-2,4.12h-.63l2-4H83.07v-.51Z"/><path class="cls-2" d="M87.05,134.23a9.7,9.7,0,0,0,.42-1.67l.68-.07a8.16,8.16,0,0,1-.66,1.7Z"/><path class="cls-2" d="M92,129.28a2,2,0,0,0-.46,0,1.83,1.83,0,0,0-1.57,1.61h0a1.38,1.38,0,0,1,2.46.93,1.52,1.52,0,0,1-1.51,1.6c-1,0-1.6-.75-1.6-1.93a2.84,2.84,0,0,1,.77-2,2.45,2.45,0,0,1,1.45-.67l.44,0Zm-.17,2.61a.92.92,0,0,0-.94-1,1,1,0,0,0-.87.56.54.54,0,0,0-.07.27c0,.74.35,1.29,1,1.29S91.8,132.54,91.8,131.89Z"/><path class="cls-2" d="M93.33,133.65l1.94-5.05h.48l-2,5.05Z"/><path class="cls-2" d="M98.06,129.42h0l-.79.42-.12-.46,1-.53h.52v4.52h-.59Z"/><path class="cls-2" d="M104,131.06c0,1.54-.57,2.39-1.57,2.39s-1.48-.83-1.49-2.33.65-2.35,1.57-2.35S104,129.62,104,131.06Zm-2.45.07c0,1.18.36,1.84.92,1.84s.92-.73.92-1.88-.28-1.84-.92-1.84S101.55,129.9,101.55,131.13Z"/><path class="cls-2" d="M.32,4.78V.56H.91L2.26,2.7A10.77,10.77,0,0,1,3,4.07H3C3,3.5,3,3,3,2.33V.56h.51V4.78H2.93L1.6,2.64A11.83,11.83,0,0,1,.81,1.23h0c0,.53,0,1,0,1.74v1.8Z"/><path class="cls-2" d="M8.66,2.63a2,2,0,0,1-2,2.22A1.93,1.93,0,0,1,4.81,2.71,2,2,0,0,1,6.77.5,1.91,1.91,0,0,1,8.66,2.63ZM5.39,2.7c0,.9.49,1.71,1.35,1.71s1.35-.8,1.35-1.76S7.65.94,6.74.94,5.39,1.77,5.39,2.7Z"/><path class="cls-2" d="M10.64,1H9.35V.56h3.13V1H11.19V4.78h-.55Z"/><path class="cls-2" d="M15.75,2.8H14.11V4.32h1.83v.46H13.57V.56h2.28V1H14.11V2.35h1.64Z"/><path class="cls-2" d="M17.2,4.12a1.91,1.91,0,0,0,1,.27c.56,0,.88-.29.88-.72s-.22-.62-.79-.84-1.11-.6-1.11-1.19A1.21,1.21,0,0,1,18.51.5a1.89,1.89,0,0,1,.93.2l-.15.45a1.63,1.63,0,0,0-.8-.2c-.57,0-.79.34-.79.63s.25.59.83.81,1.08.62,1.08,1.24-.48,1.21-1.48,1.21a2.16,2.16,0,0,1-1.07-.27Z"/><path class="cls-2" d="M22.93.62A7.71,7.71,0,0,1,24.09.53a2.37,2.37,0,0,1,1.7.53,1.92,1.92,0,0,1,.6,1.51,2.21,2.21,0,0,1-.61,1.64,2.55,2.55,0,0,1-1.86.61,9,9,0,0,1-1-.05Zm.54,3.73a4.22,4.22,0,0,0,.55,0,1.62,1.62,0,0,0,1.8-1.79A1.51,1.51,0,0,0,24.11,1a3.22,3.22,0,0,0-.64.06Z"/><path class="cls-2" d="M29.9,2.8H28.26V4.32h1.83v.46H27.72V.56H30V1H28.26V2.35H29.9Z"/><path class="cls-2" d="M31.34,4.12a2,2,0,0,0,1,.27c.56,0,.88-.29.88-.72s-.22-.62-.79-.84-1.12-.6-1.12-1.19A1.21,1.21,0,0,1,32.66.5a1.89,1.89,0,0,1,.93.2l-.15.45a1.63,1.63,0,0,0-.8-.2c-.58,0-.79.34-.79.63s.25.59.83.81,1.08.62,1.08,1.24-.48,1.21-1.48,1.21a2.16,2.16,0,0,1-1.07-.27Z"/><path class="cls-2" d="M37,4.12a2,2,0,0,0,1,.27c.56,0,.88-.29.88-.72s-.22-.62-.79-.84S37,2.23,37,1.64A1.21,1.21,0,0,1,38.32.5a1.89,1.89,0,0,1,.93.2l-.15.45a1.63,1.63,0,0,0-.8-.2c-.58,0-.8.34-.8.63s.26.59.84.81,1.08.62,1.08,1.24-.48,1.21-1.48,1.21a2.16,2.16,0,0,1-1.07-.27Z"/><path class="cls-2" d="M43,2.8H41.33V4.32h1.83v.46H40.79V.56h2.27V1H41.33V2.35H43Z"/><path class="cls-2" d="M44.49.62a5.3,5.3,0,0,1,1-.09,1.7,1.7,0,0,1,1.22.35,1,1,0,0,1,.33.8,1.11,1.11,0,0,1-.79,1.07v0a1,1,0,0,1,.62.85,7.94,7.94,0,0,0,.32,1.16h-.56a5.47,5.47,0,0,1-.28-1C46.26,3.19,46,3,45.55,3H45V4.78h-.54ZM45,2.54h.56c.58,0,.95-.32.95-.8s-.39-.78-1-.79A2.61,2.61,0,0,0,45,1Z"/><path class="cls-2" d="M49,.56V4.78h-.54V.56Z"/><path class="cls-2" d="M52.78,2.8H51.14V4.32H53v.46H50.6V.56h2.27V1H51.14V2.35h1.64Z"/><path class="cls-2" d="M54.22,4.12a2,2,0,0,0,1,.27c.56,0,.88-.29.88-.72s-.22-.62-.79-.84-1.12-.6-1.12-1.19A1.21,1.21,0,0,1,55.54.5a1.89,1.89,0,0,1,.93.2l-.15.45a1.63,1.63,0,0,0-.8-.2c-.58,0-.8.34-.8.63s.26.59.84.81,1.08.62,1.08,1.24-.48,1.21-1.48,1.21a2.2,2.2,0,0,1-1.08-.27Z"/><path class="cls-2" d="M62.14,2.8H60.5V4.32h1.83v.46H60V.56h2.27V1H60.5V2.35h1.64Z"/><path class="cls-2" d="M64.56,1H63.28V.56H66.4V1H65.11V4.78h-.55Z"/><path class="cls-2" d="M69.44.56h2.27V1H70v1.4h1.59v.45H70V4.78h-.55Z"/><path class="cls-2" d="M73.66.56V4.78h-.55V.56Z"/><path class="cls-2" d="M75.23.56h.55V4.32h1.8v.46H75.23Z"/><path class="cls-2" d="M82.36,2.93c0-.59-.07-1.3-.06-1.82h0c-.14.49-.32,1-.53,1.6l-.75,2h-.41l-.68-2c-.2-.6-.37-1.14-.49-1.64h0c0,.52,0,1.23-.08,1.86l-.12,1.81H78.7L79,.56h.69l.72,2c.18.52.32,1,.43,1.42h0a13.74,13.74,0,0,1,.44-1.42l.75-2h.7L83,4.78h-.53Z"/><path class="cls-2" d="M84.39,4.12a1.91,1.91,0,0,0,1,.27c.56,0,.88-.29.88-.72s-.22-.62-.79-.84-1.11-.6-1.11-1.19A1.21,1.21,0,0,1,85.7.5a1.89,1.89,0,0,1,.93.2l-.15.45a1.63,1.63,0,0,0-.8-.2c-.57,0-.79.34-.79.63s.25.59.83.81S86.8,3,86.8,3.63s-.48,1.21-1.48,1.21a2.16,2.16,0,0,1-1.07-.27Z"/><path class="cls-2" d="M90.66,1H89.38V.56H92.5V1H91.21V4.78h-.55Z"/><path class="cls-2" d="M97,2.63a2,2,0,0,1-2,2.22,1.93,1.93,0,0,1-1.89-2.14A2,2,0,0,1,95.13.5,1.92,1.92,0,0,1,97,2.63Zm-3.27.07c0,.9.49,1.71,1.34,1.71s1.36-.8,1.36-1.76S96,.94,95.11.94,93.76,1.77,93.76,2.7Z"/><path class="cls-2" d="M98.9.56v2.5c0,.94.42,1.35,1,1.35s1-.42,1-1.35V.56h.55V3c0,1.3-.68,1.83-1.59,1.83s-1.52-.5-1.52-1.8V.56Z"/><path class="cls-2" d="M103,.62a5.41,5.41,0,0,1,1-.09,1.73,1.73,0,0,1,1.22.35,1,1,0,0,1,.33.8,1.1,1.1,0,0,1-.8,1.07v0a1,1,0,0,1,.62.85,6.49,6.49,0,0,0,.33,1.16h-.57a6.48,6.48,0,0,1-.28-1c-.12-.58-.35-.8-.84-.82h-.51V4.78H103Zm.55,1.92h.55c.58,0,1-.32,1-.8s-.39-.78-1-.79a2.41,2.41,0,0,0-.53.05Z"/><path class="cls-2" d="M107,4.78V.56h.59L109,2.7a12,12,0,0,1,.75,1.37h0c0-.56-.07-1.08-.07-1.73V.56h.52V4.78h-.55L108.3,2.64a11.83,11.83,0,0,1-.79-1.41h0c0,.53,0,1,0,1.74v1.8Z"/><path class="cls-2" d="M113.94,2.8H112.3V4.32h1.83v.46h-2.37V.56H114V1H112.3V2.35h1.64Z"/><path class="cls-2" d="M115.39,4.12a1.91,1.91,0,0,0,1,.27c.56,0,.89-.29.89-.72s-.23-.62-.8-.84-1.11-.6-1.11-1.19A1.21,1.21,0,0,1,116.7.5a1.86,1.86,0,0,1,.93.2l-.15.45a1.63,1.63,0,0,0-.8-.2c-.57,0-.79.34-.79.63s.25.59.84.81,1.07.62,1.07,1.24-.48,1.21-1.47,1.21a2.17,2.17,0,0,1-1.08-.27Z"/><path class="cls-2" d="M1,11,.56,12.28H0L1.43,8.07h.66l1.44,4.21H3L2.5,11Zm1.38-.43L2,9.32c-.09-.28-.16-.53-.22-.77h0c-.06.25-.13.5-.21.76l-.42,1.22Z"/><path class="cls-2" d="M5.14,8.07v2.49c0,.95.42,1.35,1,1.35s1-.41,1-1.35V8.07H7.7v2.46c0,1.29-.68,1.82-1.6,1.82s-1.51-.49-1.51-1.8V8.07Z"/><path class="cls-2" d="M14.77,10.43c0-.59-.07-1.29-.06-1.82h0c-.14.5-.32,1-.53,1.6l-.75,2H13l-.68-2c-.2-.59-.37-1.14-.49-1.64h0c0,.53-.05,1.23-.08,1.87l-.12,1.8h-.51l.29-4.21h.69l.72,2c.18.51.32,1,.43,1.42h0a13,13,0,0,1,.44-1.42l.75-2h.7l.26,4.21h-.53Z"/><path class="cls-2" d="M17.49,11l-.44,1.32h-.56l1.43-4.21h.66L20,12.28h-.58L19,11Zm1.38-.43-.41-1.21c-.09-.28-.16-.53-.22-.77h0c-.06.25-.13.5-.22.76l-.41,1.22Z"/><path class="cls-2" d="M21.26,8.12a6.38,6.38,0,0,1,1-.08,1.7,1.7,0,0,1,1.22.34,1,1,0,0,1,.34.8,1.11,1.11,0,0,1-.8,1.08v0a1,1,0,0,1,.62.85A6.57,6.57,0,0,0,24,12.28h-.57a5.53,5.53,0,0,1-.28-1c-.12-.59-.35-.8-.84-.82H21.8v1.82h-.54ZM21.8,10h.56c.58,0,.95-.32.95-.8s-.39-.78-1-.79a2.61,2.61,0,0,0-.54.05Z"/><path class="cls-2" d="M28.87,10.13a2,2,0,0,1-2,2.22A1.93,1.93,0,0,1,25,10.21,2,2,0,0,1,27,8,1.91,1.91,0,0,1,28.87,10.13Zm-3.27.07c0,.9.49,1.71,1.34,1.71s1.35-.8,1.35-1.75S27.86,8.44,27,8.44,25.6,9.27,25.6,10.2Z"/><path class="cls-2" d="M33.15,12.15a2.71,2.71,0,0,1-1.12.2A2,2,0,0,1,30,10.21,2.1,2.1,0,0,1,32.15,8a2.15,2.15,0,0,1,1,.19L33,8.63a2,2,0,0,0-.85-.18,1.57,1.57,0,0,0-1.64,1.74,1.53,1.53,0,0,0,1.62,1.7,2.13,2.13,0,0,0,.89-.18Z"/></g></g></svg>