<svg xmlns="http://www.w3.org/2000/svg" viewBox="0 0 149.39 96.39"><defs><style>.cls-1{fill:#ecb900;}</style></defs><title>Fichier 5</title><g id="Calque_2" data-name="Calque 2"><g id="Calque_1-2" data-name="Calque 1"><path class="cls-1" d="M127.48,96.16a0,0,0,0,0,0,0h0A0,0,0,0,1,127.48,96.16Z"/><path class="cls-1" d="M127.74,96.23s0,.11,0,.16l.13-.06-.11-.1Z"/><path class="cls-1" d="M149,12.56h0a.85.85,0,0,0,0-.82.64.64,0,0,0-.56-.3,1.07,1.07,0,0,0-.29.06.59.59,0,0,1-.21,0h0c-.07,0-.13,0-.18-.38a1.2,1.2,0,0,0-1-1.06c-.25,0-.3-.18-.39-.48V9.56c-.18-.61-.35-1.24-.52-1.85-.12-.43-.23-.86-.36-1.29a1.78,1.78,0,0,0-1.67-1.51,2.24,2.24,0,0,0-1.2.39l-.15.09a2.7,2.7,0,0,1-.35.21.69.69,0,0,0-.23.17h0c-.12-.12-.1-.17-.08-.22v0a.49.49,0,0,0,0-.42.4.4,0,0,0-.29-.21h-.1A.87.87,0,0,0,141,5a.84.84,0,0,0-.36.56.19.19,0,0,0,0,.07c-.18.58-.37,1.18-.56,1.75l-.15.47a1.25,1.25,0,0,0,.17,1.4.13.13,0,0,1,0,.05.12.12,0,0,1,0,.1.91.91,0,0,0-.29,1.1l0,.13a2.74,2.74,0,0,1,0,.65c0,.12,0,.25,0,.37s-.07.26-.19.44a1,1,0,0,0-.21,1,.25.25,0,0,1,0,.24.34.34,0,0,1-.23.13.62.62,0,0,0-.55.22.21.21,0,0,0,0,.12h-.11a.63.63,0,0,0-.19,0c-.34.08-.51.07-.48.5,0,.17,0,.26,0,.26h0c-.3,0-.6.4-.9.47-.67.16-1.35.46-2,.62s-1.15.38-1.33.65v0a.47.47,0,0,0-.34-.12,1.55,1.55,0,0,0-.31.06l-.09,0-.67.19a5.46,5.46,0,0,1-1.43.3,3.1,3.1,0,0,0-2.38,1.51l0,.06a4.81,4.81,0,0,0-.62,1.13,2.59,2.59,0,0,1-1,1.41.47.47,0,0,0-.23.46.38.38,0,0,0,.27.34c.19.06.2.12.22.43a1.17,1.17,0,0,0,.09.51.33.33,0,0,1,0,.27c0,.09-.14.15-.23.19a1.28,1.28,0,0,0-.59.52,1.71,1.71,0,0,1-1.19.65,3.42,3.42,0,0,0-1,.35,2.58,2.58,0,0,0-1.14-.27,5,5,0,0,0-2.16.67.94.94,0,0,0-.53.71.9.9,0,0,0,.29.78c.37.33.39.65,0,1.08a11.72,11.72,0,0,1-1.17,1.4c-.13.11-.26.58-.34.58h0c-.1,0-.19-.13-.24,0-.15.25-.35.25-.56.35a1.27,1.27,0,0,0-.46.24l-.11.08a1.3,1.3,0,0,0-.44.63h-.06a.52.52,0,0,0-.28.08c-.19.11-.4.2-.61.3a3.31,3.31,0,0,0-1.61,1.18,1.39,1.39,0,0,1-1.11.52,2.26,2.26,0,0,0-1.23.47,2.32,2.32,0,0,0-.55-.17,1.65,1.65,0,0,1-.59-.2,1.92,1.92,0,0,0-1-.36H110l-.14,0a3.71,3.71,0,0,0,.53-.94,5.79,5.79,0,0,0,.33-1.32,3.91,3.91,0,0,0,.71-.85,3.26,3.26,0,0,0,.36-.92c0-1.94,0-5.07-2.38-5.42a3.53,3.53,0,0,0-.35,1c0-2.44.35-4.52-1.83-6.24l-.08-.07a.5.5,0,0,0,.36-.16.49.49,0,0,0,.1-.4.46.46,0,0,0-.46-.41.67.67,0,0,0-.24,0,.93.93,0,0,1-.29.07c-.26,0-.48-.16-.74-.52a1.23,1.23,0,0,0-1.06-.58,2.37,2.37,0,0,0-.43.05,4.68,4.68,0,0,1-.54.08c-.11,0-.14,0-.27-.61,0-.14-.1-.48-.43-.48a.54.54,0,0,0-.26.07,5.41,5.41,0,0,1-1.41.45,9.13,9.13,0,0,0-1.08.29,2.19,2.19,0,0,0-1,.81,1.93,1.93,0,0,0-.88-.23,2,2,0,0,0-.48.07l-.17,0c-.07,0-.16,0-.27-.19a2.35,2.35,0,0,0-1.14-.86l-.15-.07a1,1,0,0,0-.47-.12,1.24,1.24,0,0,0-.74.29,3,3,0,0,1,.84-1.14,5,5,0,0,0,.66-.72.31.31,0,0,0,0-.28.28.28,0,0,0-.23-.16h-.18a2.32,2.32,0,0,0-1.6.78,3.88,3.88,0,0,1-.31.26,23.25,23.25,0,0,1-4,2.47.28.28,0,0,0-.09.07,1.39,1.39,0,0,0-.75-.23,1.06,1.06,0,0,0-.35.05,2.26,2.26,0,0,1,.11-.26.05.05,0,0,1,0,0,.41.41,0,0,0,0-.63.54.54,0,0,0-.36-.14.8.8,0,0,0-.33.08l-.62.29-.39.18a3.9,3.9,0,0,0-.35.19,1.3,1.3,0,0,1-.61.25l-.13,0-.14,0c.37-.33.74-.69,1.09-1a11.39,11.39,0,0,1,3.91-2.86,2.26,2.26,0,0,0,.56-.34l.22-.16a.31.31,0,0,0,.12-.23.31.31,0,0,0-.12-.24.72.72,0,0,0-.36-.11.8.8,0,0,0-.45.17l-.06,0A1.6,1.6,0,0,0,90,11.44H89a.58.58,0,0,0-.51-.35.86.86,0,0,0-.43.16l-.08.05h0a2.5,2.5,0,0,1-.91.4c-.21,0-.48-.2-1-.61L86,11,85.88,11a.53.53,0,0,0-.38-.19.48.48,0,0,0-.38.21l-.09.1a.78.78,0,0,1-.12-.19,2.07,2.07,0,0,0-1.78-1,2,2,0,0,0-.95.24.74.74,0,0,1-.34.11l-.06,0a6.5,6.5,0,0,0-1.73-.45l-.29-.05a.5.5,0,0,1-.28-.15.08.08,0,0,1,0,0,1.53,1.53,0,0,0,0-.93,2.16,2.16,0,0,1-.08-.38.73.73,0,0,0-.74-.78h-.09a.58.58,0,0,0-.44.23.66.66,0,0,0,0,.59s0,.06,0,.09c0,.23,0,.29,0,.3s-.06.05-.27.05h-.11l-.9,0h-3s0,0-.08,0,0,0-.07,0h0c-.13,0-.26,0-.4,0h-.44c-1.17,0-2.37,0-3.52-.06-2.13,0-4.29-.08-6.46-.18a43.63,43.63,0,0,1-5.94-.06c-.88-.05-1.75-.1-2.6-.13A87.7,87.7,0,0,1,39.84,6.42c-1.28-.25-2.52-.62-3.8-.89,0,0-2-.28-1-.18-.42,0-.85-.08-1.27-.12a43.41,43.41,0,0,1-5.42-.53,12.82,12.82,0,0,1-1.64-.46L26.14,4a32.3,32.3,0,0,0-4.45-1.38A22.17,22.17,0,0,1,16.47.93L15.32.62,13.08,0H13a.28.28,0,0,0-.19.07.27.27,0,0,0-.09.24.78.78,0,0,1,0,.26.67.67,0,0,0,.33.78c.12,0,.15.09.15.1s0,.1-.1.15a.89.89,0,0,0-.29,1.19l.06.15a3,3,0,0,0,.12.32c.14.36.22.59.12.79a6.86,6.86,0,0,1-.45.7,6.42,6.42,0,0,0-.51.8.22.22,0,0,0,0-.08,3.37,3.37,0,0,1,.3-1,1.27,1.27,0,0,0,.09-1A.88.88,0,0,0,12,3,16.2,16.2,0,0,1,8.8,1.26c-.05,0-.09-.08-.15-.12a.86.86,0,0,0-.56-.3.6.6,0,0,0-.31.1A1.28,1.28,0,0,0,7.41,2a2.46,2.46,0,0,0,.14.77v0a1.58,1.58,0,0,1,.12.94,2.5,2.5,0,0,0,0,.94,1.55,1.55,0,0,1-.06.84.5.5,0,0,0,0,.41.55.55,0,0,0,.36.29l0,0h0c-.27.09-.45.14-.5.34s.06.34.25.55v0a.47.47,0,0,1,0,.44c0,.1-.12.22-.22.23h0A.4.4,0,0,0,7,8.17a.47.47,0,0,0,.31.6.84.84,0,0,0-.43.59,28.46,28.46,0,0,1-1.1,3.14c-.32.8-.64,1.63-.91,2.46A14.16,14.16,0,0,1,3.36,18c-.25.41-.51.84-.74,1.27l0,0a2.08,2.08,0,0,0-.36,1.78s0,.1-.06.16a.85.85,0,0,0-.13.27l0,.12a1.72,1.72,0,0,0,0,1.41,1,1,0,0,0,.17.19l0,0c-.2.21-.19.55-.18,1.22v.07A3.73,3.73,0,0,1,.62,27.38a2.07,2.07,0,0,0-.54,2.11,2.47,2.47,0,0,0,.29.69s0,.05,0,.08a11.63,11.63,0,0,0,.27,1.67,4.84,4.84,0,0,0-.24,1.14c0,.2-.06.38-.09.57A2.46,2.46,0,0,0,1,35.86a2,2,0,0,1,.26.38c.05.32.11.64.16,1a.53.53,0,0,1,0,.12,1,1,0,0,0,.23,1.08,1.36,1.36,0,0,1,0,.2c.08.57.2,1.13.32,1.68a2.18,2.18,0,0,0,.28,1.47c0,.29.09.58.12.88a14.2,14.2,0,0,0,.19,1.44,1.26,1.26,0,0,0,.24,1.18,17.85,17.85,0,0,0,.65,2.12c.45,1.23.71,2.45,1.2,3.54,0,.09-.08.19-.11.28a.67.67,0,0,0,.24.92,3.53,3.53,0,0,0,1,.5,5.84,5.84,0,0,0,.77.7,12.74,12.74,0,0,0,1.8,1A1.68,1.68,0,0,0,9.45,55l.24.17.36.31a1.63,1.63,0,0,0,.73.92l.28.22a4.53,4.53,0,0,1,1.69,4.11.79.79,0,0,0,.11.61.85.85,0,0,0,.6.24l2.17.23c1.36.15,2.77.3,4.17.39a.82.82,0,0,0,.64,1.1l.19.09c1.81,1.08,3.65,2.16,5.43,3.2l3.64,2.15A3.56,3.56,0,0,0,31,69.2l1.53.24c1.08.16,2.19.34,3.27.53L36,70a.52.52,0,0,0,.33-.09.71.71,0,0,0,.52.2c.52,0,1.05.1,1.56.19a1,1,0,0,0,.23,0,.58.58,0,0,0,.44-.16.7.7,0,0,0,.17-.54,1.09,1.09,0,0,1,0-.24,2.3,2.3,0,0,0,0-.39.3.3,0,0,1,0-.16h.23l3,.34.84.09h.06a.78.78,0,0,0,.22,0,.45.45,0,0,0,.24-.07l.12.06c.24.09.35.27.51.56a2.22,2.22,0,0,0,.33.49c.33.35.64.72.94,1.09a12.67,12.67,0,0,0,2.38,2.36,1.71,1.71,0,0,1,.58,1,2.84,2.84,0,0,0,.35.87.21.21,0,0,0,0,.06v0a1.77,1.77,0,0,0,.68,2,21,21,0,0,0,3.28,2.32,1.2,1.2,0,0,0,.58.17,1.14,1.14,0,0,0,.79-.37,2.76,2.76,0,0,0,.67-1.13c.07-.16.13-.32.2-.46a2.14,2.14,0,0,0,.1-.22.92.92,0,0,1,.11-.24l.31-.08a1.26,1.26,0,0,0,.28,0c2.27-.24,4.2,2,5.3,3.78a8.36,8.36,0,0,0,.87,1.16,21.79,21.79,0,0,0,1.57,2.42l.15.21a1.62,1.62,0,0,0,.25.28,4.46,4.46,0,0,0,.2.55c.14.3.3.58.46.86a11.45,11.45,0,0,0,1.14,2.77l0,0a.74.74,0,0,0,.39.39,9.67,9.67,0,0,1,1.27.59,6.84,6.84,0,0,0,2.17.83,2.47,2.47,0,0,1,1.39.49.49.49,0,0,0,.86-.16l.07-.1c.24,0,.33-.18.35-.29a.51.51,0,0,0-.22-.49,3.34,3.34,0,0,1-.47-1.35,8.27,8.27,0,0,0-.19-.83,2.1,2.1,0,0,0,.1-.51,13.16,13.16,0,0,1,1.29-3.55c.53-1.27,1.94-1.45,2.83-2.33,0,0,0,0,.06,0a5.92,5.92,0,0,0,2.49-1.31,5,5,0,0,1,.4-.34,1.77,1.77,0,0,0,.85-2.1s0,0,0,0a.9.9,0,0,1,.22-.11l.08,0c.07.61.5.66.64.66a1.46,1.46,0,0,0,.63-.2,6.24,6.24,0,0,1,1.46-.48l0,0h0c0,.07.08,0,0,0h.1l.68-.12,1.1-.21a1.06,1.06,0,0,1,.29,0,.89.89,0,0,1,.39.09,6.7,6.7,0,0,0,2.8.56h.31a.3.3,0,0,0,.24-.16.4.4,0,0,0-.09-.47.69.69,0,0,0,.13-.11,2,2,0,0,1,.22-.19,1.31,1.31,0,0,0,.55.2c.33.08.4,0,.42.24s.31.37.53.37h.07c.33,0,.49.28.75.62.07.1.15.24.23.34a1.33,1.33,0,0,0,1,.47,1.46,1.46,0,0,0,1-.35.63.63,0,0,1,.39-.16.33.33,0,0,1,.24.13.72.72,0,0,0,.53.37c.32,0,.46-.33.54-.52a1.09,1.09,0,0,0,0-.47,1,1,0,0,1,0-.17.14.14,0,0,1,0-.1,2.06,2.06,0,0,0,.92.62c.39.16.63.28.74.58a.42.42,0,0,0,.41.31.8.8,0,0,0,.34-.1l.51-.27.28-.14a.28.28,0,0,0,0-.5q-.31-.15-.63-.27a3.52,3.52,0,0,1-1.19-.67c-.17-.18-.17-.24-.17-.24s0,0,.12-.11a1.92,1.92,0,0,0,.5-.48,1.21,1.21,0,0,1,.43-.39c.33-.15.42-.43.25-.84a.39.39,0,0,0,0-.09.41.41,0,0,0-.42-.37.48.48,0,0,0-.18,0,3.28,3.28,0,0,1,1.92-.64,2.77,2.77,0,0,1,.49,0l-.08-.08a.29.29,0,0,1-.07-.22l.28,0,.09-.07,0-.28h0a.31.31,0,0,1,.13,0,.29.29,0,0,1,.14.23,0,0,0,0,1,0,0V75l.18,0s.05-.22.08-.22,0-.22,0-.22h0c.07,0,.14.27.21.27s.36,0,.38-.36h0a1.52,1.52,0,0,0,.09-.28s0-.08,0-.12l0,.15a1.23,1.23,0,0,0,.66,1.06.78.78,0,0,0,.33.07.76.76,0,0,0,.61-.32l0,0c-.06-.09-.09-.24.1-.41l0,0a.32.32,0,0,1,.2-.08.3.3,0,0,1,.15,0c0,.08-.12.15-.15.23l.08.08a.36.36,0,0,0,.26-.09.3.3,0,0,1,0,.27.41.41,0,0,1-.1.09.68.68,0,0,0,.62-.49c.06-.17.24-.05.24-.05h0c.14,0,.32.19.54.19s.26-.11.36-.15.12-.08.15-.08h.11a1.21,1.21,0,0,0,.53-.19.77.77,0,0,1,.26-.11h0s.06,0,.13.22a.29.29,0,0,0,.27.18h.14a1.3,1.3,0,0,1,.53.2,1.85,1.85,0,0,0,.83.27,1,1,0,0,0,.5-.13.59.59,0,0,1,.23.14.89.89,0,0,0,.51.79l.16.1.07,0,.06,0a.75.75,0,0,0,.12.53c1.93.1,3.67,2.88,5.91.93l.66,0,.73-.08.65.18,0,0,.06.08a2.44,2.44,0,0,1,.52,2.75,1.87,1.87,0,0,0-.05,1.16,1.94,1.94,0,0,1,.06.4.61.61,0,0,0,.59.56.45.45,0,0,0,.2,0,.44.44,0,0,0,.27-.27.47.47,0,0,0-.11-.41s0,0,0,0h0a.41.41,0,0,0,.26.11l.12,0a2.06,2.06,0,0,0-.12.35,1.06,1.06,0,0,1-.28.55.51.51,0,0,0-.22.43.45.45,0,0,0,.22.35,2,2,0,0,1,.61.82,3.75,3.75,0,0,0,.24.44c.06.11.4.61.83.61a.56.56,0,0,0,.31-.09l.1-.07s0,.07,0,.1a.5.5,0,0,1,0,.12.84.84,0,0,1,0,.18.79.79,0,0,0,.33.69,2.24,2.24,0,0,1,.88,1.35l.06.16a.78.78,0,0,0,.74.6,1.46,1.46,0,0,1,1.19.84,1.61,1.61,0,0,0,1,.8h0l0,.1a.26.26,0,0,1,.16-.15.18.18,0,0,1,.1,0s.07-.38.1-.37-.07-.13-.1-.13h0s.08.46.11.49.19.18.28.17v.16a.33.33,0,0,1-.16.26l-.05,0a3.21,3.21,0,0,0,1.4-.45l.27-.13a1,1,0,0,0,.54-.55.9.9,0,0,0-.12-.73c-.11-.2-.2-.47,0-.66a1.11,1.11,0,0,0,.24-1.43.5.5,0,0,1,0-.32,4.38,4.38,0,0,0-1-3.64,2.83,2.83,0,0,1-.56-1s0-.09,0-.14a2.41,2.41,0,0,0-.62-1.06,1.25,1.25,0,0,1-.41-1.17,2.26,2.26,0,0,0-1-2.16l0,0a9.76,9.76,0,0,1-1-1.08c-.22-.26-.44-.53-.68-.79a2.6,2.6,0,0,1-.53-1.35,3.46,3.46,0,0,0-.5-1.42l-.12-.15c-.1-.11-.17-.19-.15-.26a1.12,1.12,0,0,0-.16-.9,1.19,1.19,0,0,0-.18-.15,1.11,1.11,0,0,0,0-.67,5,5,0,0,1,.74-3.2c.12-.24.24-.49.35-.74a.25.25,0,0,0,0-.24,1.42,1.42,0,0,0,.28-.46,2,2,0,0,1,.11-.21c.08-.13.15-.27.22-.41a1.31,1.31,0,0,1,.46-.63,8,8,0,0,0,2.11-1.88,17.63,17.63,0,0,1,1.44-1.1c.19-.17.59-.38.59-.51v-.07c0-1,0-1.59.63-2,.15-.09,0-.19.05-.29s-.1.38-.1.37h0s-.1-.56-.1.44h0c.32,0,.62-.47.92-.54.1,0,.19-.24.29-.26a.88.88,0,0,0,.68-.84,3,3,0,0,1,1-2c.06-.06.12-.16.18-.22a2.86,2.86,0,0,1,1.86-1.21c.49-.05.8-.47.84-1.11a.28.28,0,0,0-.28-.3h-.1l-.4.17-.27.1a1.49,1.49,0,0,0,.2-.92.32.32,0,0,0-.17-.2c-.16-.08-.19-.09-.13-.25a1.16,1.16,0,0,0,.6.15,1.65,1.65,0,0,0,1.33-.87,1.5,1.5,0,0,0,.17-1.44.47.47,0,0,0-.43-.32c-.13,0-.31.06-.45.36l0,.05a.6.6,0,0,0-.54-.43,1,1,0,0,0-.42.12l-.29.14c.1-.08.2.09.28,0a1.08,1.08,0,0,1,.87-.22h0c.21,0,.4-.4.45-.6a.65.65,0,0,0-.21-.66c-.1-.05-.19-.19-.29-.27a2.66,2.66,0,0,0-.31-.26.47.47,0,0,0,.22-.2.59.59,0,0,0,.05-.51l0-.09c-.08-.29-.22-.82-.85-.82h-.23a1.55,1.55,0,0,0-.54.12.37.37,0,0,0,.2-.29.49.49,0,0,0-.11-.35.62.62,0,0,0-.44-.18h-.07c.06-.09.08,0,.1,0s0,.15,0,.15h0c.33,0,.44-.41.47-.54a.48.48,0,0,0-.08-.37c-.38-.41-.38-.45-.35-1.26a.56.56,0,0,0-.27-.55l-.35-.2a.4.4,0,0,0,.19,0,.21.21,0,0,0,.16-.23c.07-.15-.13-.43-.25-.5h0l-.21-.29-.18-.29c-.55-.38-.21-.72.14-1.07a6.22,6.22,0,0,0,.06,1,.89.89,0,0,0,.09.16.84.84,0,0,0,.62.36.5.5,0,0,0,.21-.05.6.6,0,0,1,.26-.09h0s0,.08.06.15a2.22,2.22,0,0,0,0,.81,20.19,20.19,0,0,1,.15,2,.45.45,0,0,0,.15.26.28.28,0,0,0,.18.24l.1,0a.25.25,0,0,0,.22-.12l.06-.07a.62.62,0,0,0,.16-.1,9.81,9.81,0,0,0,2.38-6.13c0-.44-.58-.22-.89-.22h0a2.41,2.41,0,0,1,.73-1.58c.11-.16.23-.41.34-.58a2.55,2.55,0,0,0,.36-1c0-.06,0-.13,0-.19a10.5,10.5,0,0,1,.95-2.2,2.14,2.14,0,0,1,.13-.19c.33-.48.7-1,1-1.48l.15-.15c.35-.34.69-.68,1-1l.15-.11A2,2,0,0,0,141,28.3a.74.74,0,0,0,.55-.62l.07,0,.1,0a.27.27,0,0,0,.19-.08c.12-.1.22-.21.32-.31a4.77,4.77,0,0,1,.65-.58.7.7,0,0,0,.22-.26l0,0a.46.46,0,0,1,0,.09.37.37,0,0,0,.33.23.62.62,0,0,0,.41-.22.9.9,0,0,1,.49-.32.9.9,0,0,0,.74-.49,1.1,1.1,0,0,0-.2-1c-.05-.07-.14-.2-.23-.2h0c-.11,0-.2.15-.24.24-.17.34-.39.57-.61.57a.84.84,0,0,1-.65-.44l-.09-.13a1.29,1.29,0,0,0-1.06-.73l-.2,0,0,0a1.23,1.23,0,0,1,.18-.48,1.58,1.58,0,0,0,.17-.29.29.29,0,0,0,0-.27l-.05,0a.28.28,0,0,0-.08-.15.49.49,0,0,1-.08-.13,2.75,2.75,0,0,0-.14-.3l-.08-.15a.3.3,0,0,0,.07-.15.41.41,0,0,1,0-.11.81.81,0,0,1,0-.15,5,5,0,0,1,.41-1.43c.09-.25.19-.49.27-.75a.39.39,0,0,0,0-.09.57.57,0,0,0,.06-.58.24.24,0,0,1-.05-.19.4.4,0,0,1,.23-.17,3.27,3.27,0,0,0,1.13-.62,2.36,2.36,0,0,1,.33-.24,1.33,1.33,0,0,0,.8-1.19c0-.19,0-.52.29-.54a1,1,0,0,0,.89-.68c.06-.16.23-.05.3-.06s.19.27.28.27h0c.53,0,.82-.59,1-.87a2.85,2.85,0,0,1,.36-.48,1.16,1.16,0,0,0,.36-.46,1.76,1.76,0,0,1,.12-.2c.3-.06.62-.17.67-.45S149.21,12.71,149,12.56ZM133.47,30l.65.21Zm.08,7.79h0l0,0-.08-.05Zm.73-7.52.65.26ZM22.49,20.19a.67.67,0,0,1-.33-.15A.67.67,0,0,0,22.49,20.19Zm-12,16.11a1.36,1.36,0,0,0,0,.17A1.36,1.36,0,0,1,10.45,36.3Zm0,.19a.76.76,0,0,0,0,.15A.76.76,0,0,1,10.4,36.49Zm9.94,15.1a.39.39,0,0,0,.08.1A.39.39,0,0,1,20.34,51.59Zm.08.11a.36.36,0,0,0,.12.08A.5.5,0,0,1,20.42,51.7ZM33.09,30.32a3.48,3.48,0,0,1,1.75.47h0a3.48,3.48,0,0,0-1.75-.47l-4.45-.89ZM56.81,19h0a.57.57,0,0,0-.41.05A.57.57,0,0,1,56.81,19ZM75,28.45s0-.08,0-.12a1.19,1.19,0,0,0,0,.22Zm45.61,18a.2.2,0,0,0,0-.11A.2.2,0,0,1,120.63,46.44Zm0-.69,0,0Zm0,.7a.11.11,0,0,1,0,.08A.11.11,0,0,0,120.63,46.45Zm.81-.33v0Zm-.75.09s0,0,0,0S120.69,46.22,120.69,46.21Zm0-.78h0a.3.3,0,0,0,.08-.08A.3.3,0,0,1,120.7,45.43Zm.2-.42a.52.52,0,0,1-.11.33A.52.52,0,0,0,120.9,45Zm.14-.21c0,.07,0,.14-.11.15h0C121,44.94,121,44.87,121,44.8Zm5.45-6v0h0a.82.82,0,0,0,.27,0A.82.82,0,0,1,126.49,38.79Zm-5.09,5a1.67,1.67,0,0,1-.08.3A1.67,1.67,0,0,0,121.4,43.83Zm.08-.36h0l-.06.28Zm1-.59s0,0,.06,0,0,0-.06,0Zm.36-.05,0,0Zm-.07.06,0,0Zm-.06,0h0Zm-.1,0-.06,0Zm.29-.2,0,0Zm.15-.4h0l-.09.27Zm1.47-1.94a.33.33,0,0,1-.1.14A.45.45,0,0,0,124.49,40.4Zm.09-.63s0,0,0,.06S124.57,39.79,124.58,39.77Zm1.66-.14h0Zm.11,0h0Zm.11-.08s0,0,0,0S126.45,39.57,126.46,39.56Zm0,0,0,0Zm2,1.43Zm-8.58,6,0,0,0,0Zm-.16.06-.13,0Zm-.18.08-.12.06Zm-.16.08-.15.1Zm-.18.13-.11.1Zm-.14.14a1,1,0,0,0-.12.16A1,1,0,0,1,119,47.49Zm-1.35-10.86c.25.22.15.53.18.81,0-.28.07-.59-.18-.81,0-.21,0-.38,0-.53C117.67,36.25,117.68,36.42,117.69,36.63Zm2.64,19.06h0a.9.9,0,0,0-.23-.27.9.9,0,0,1,.23.27ZM59.9,40.17a.51.51,0,0,0,.08.32A.51.51,0,0,1,59.9,40.17Zm20.24,6.64v0Zm-5.5-15.28h0Zm-.86,0,.36,0Zm6.4,22.28a.94.94,0,0,0,.18.12A.94.94,0,0,1,80.18,53.8ZM77.83,39.6h0c1,0,2-.08,3-.13C79.83,39.52,78.83,39.6,77.83,39.6Zm12-2.7h0a.42.42,0,0,0-.08-.12h0A.94.94,0,0,1,89.85,36.9Zm-.92,2.4s0,0,0-.07S88.93,39.27,88.93,39.3Zm0-.13a.35.35,0,0,0,0-.08A.35.35,0,0,1,88.91,39.17Zm-.06-.11L88.77,39ZM92,33.52h0s0-.07,0-.1S92,33.48,92,33.52Zm0-.1a.38.38,0,0,0-.09-.25A.38.38,0,0,1,92,33.42ZM88.56,40v0h0Zm0,.44h0a.43.43,0,0,0,0,.16A.43.43,0,0,1,88.53,40.45Zm2.38,3.94.12.28-.12-.28Zm.37.38h0a.52.52,0,0,1-.24-.08A.52.52,0,0,0,91.28,44.77ZM106.8,44Zm.29-.37h0Zm-.35-4c0,.27,0,.55,0,.82,0-.27,0-.55,0-.82Zm-1.31,5.75a4.5,4.5,0,0,0-.92,1.34A4.5,4.5,0,0,1,105.43,45.32Zm-7.76,5.17v0Zm0,.1a.29.29,0,0,1,0,.1A.29.29,0,0,0,97.66,50.59Zm0-.25a.84.84,0,0,1,0,.12A.84.84,0,0,0,97.63,50.34Zm2.29-6a2.48,2.48,0,0,0-.24-.53,2.46,2.46,0,0,1,.25.55ZM98.1,31.44s0,0,0,0h0Zm-.53,19.35a.41.41,0,0,0,.05-.09.41.41,0,0,1-.05.09Zm-1.72-.13h0Zm-1.12-1a7.54,7.54,0,0,0,.14,1.09A7.54,7.54,0,0,1,94.73,49.62Zm.07,4.12c0,.31-.1.63-.16.94C94.7,54.37,94.75,54.05,94.8,53.74Zm-.2-4.39s0,.09.05.13S94.62,49.39,94.6,49.35ZM94.53,49h0a1.55,1.55,0,0,0,.06.31A1.55,1.55,0,0,1,94.53,49Zm-.23-.24h0l.06.05Zm-1.61-2.33a4.44,4.44,0,0,0,0,1A4.44,4.44,0,0,1,92.69,46.46Zm0-.38h0v0Zm4.76,4.86v0h0Zm16.2,6a.33.33,0,0,1,.13.28A.33.33,0,0,0,113.65,56.94Zm.26,1.39Zm-.22-13.94ZM99,34.13v0h0S99,34.12,99,34.13Zm-6.54,11,0,0,0,0Zm-.17-.23Zm-4-16.67h0ZM74.74,31.53a.34.34,0,0,1,0-.1v-.11l0,0ZM55.5,51.59h.12A.25.25,0,0,1,55.5,51.59ZM80,52.24a.3.3,0,0,1,.15.27.27.27,0,0,0-.15-.26.63.63,0,0,0-.31-.06A.8.8,0,0,1,80,52.24ZM82.1,64.88a1.62,1.62,0,0,0,0,.31A1.62,1.62,0,0,1,82.1,64.88Zm1.08,6.84a3.28,3.28,0,0,1-.27-.7A3.91,3.91,0,0,0,83.18,71.72ZM86.35,53.6h0Zm31.21,1.92c.2,0,.41,0,.62,0h0C118,55.54,117.76,55.52,117.56,55.52Zm2.87.15a.19.19,0,0,1,.15.08A.19.19,0,0,0,120.43,55.67Zm.61,9.51h0Zm-4.19-16.92h0l.09,0Zm.1,0h0Zm.09,0a.29.29,0,0,0,.17-.09A.29.29,0,0,1,117,48.3Zm.27-.13a.19.19,0,0,0,.15,0A.19.19,0,0,1,117.31,48.17Zm.15,0,.05,0Zm-1.21-7.75A2.24,2.24,0,0,0,117.73,39a2.24,2.24,0,0,1-1.48,1.37l-.2.13ZM96.82,20.6Zm-2.94-2h0ZM9.79,11.86a.13.13,0,0,1-.14-.14A.13.13,0,0,0,9.79,11.86Zm.6,24.78a.56.56,0,0,0,0,.29h0A.56.56,0,0,1,10.39,36.64ZM21,59.48h0Zm23,9.35a.24.24,0,0,1,.1-.12A.24.24,0,0,0,44,68.83Zm10.87.36a1.44,1.44,0,0,0,0-.24A1.44,1.44,0,0,1,54.9,69.19Zm18.52-5.7a1.55,1.55,0,0,1,.36.1A1.55,1.55,0,0,0,73.42,63.49Zm3.12.15c-.26,0-.53.11-.78.18.25-.07.52-.13.78-.18a.9.9,0,0,0,.28,0A.9.9,0,0,1,76.54,63.64Zm6.32,14.53c0-.06.07-.12.1-.19Zm.42-.85.06-.17Zm38.33-11c.08.21.3.06.38.13C121.91,66.37,121.69,66.52,121.61,66.31Zm2-10.41a.57.57,0,0,1,.3-.07h0A.57.57,0,0,0,123.66,55.9Zm-.11,0h0Z"/></g></g></svg>