<svg xmlns="http://www.w3.org/2000/svg" xmlns:xlink="http://www.w3.org/1999/xlink" viewBox="0 0 73.55 91.01"><defs><style>.cls-1{fill:#ecb900;}.cls-2{clip-path:url(#clip-path);}</style><clipPath id="clip-path"><path class="cls-1" d="M37.32,7.48l.39-.08.3-.07,1.67-2.86s1.16-.31,1.44-.4a9.13,9.13,0,0,0,1.45-.82c.18-.15.31-.3.44-.3s.24.07.32,0,.21-.1.3-.2a1.62,1.62,0,0,1,.26-.19L44,2.4s.14-.09.14-.19A2.09,2.09,0,0,0,44,1.62s-.22-.31-.32-.44,0-.15-.2-.24S43.34.83,43.2.77s-.15-.12-.28-.12a.93.93,0,0,1-.29,0l-.48-.1L42,.43s-.29.06-.43,0a.38.38,0,0,0-.32-.07c-.09,0-.32-.11-.37-.06s-.18.13-.16.18,0,.06.17,0,.37,0,.39.07.19.2,0,.21a.62.62,0,0,1-.25,0,.63.63,0,0,0-.36,0c-.09.05-.07.07,0,.17a.27.27,0,0,1-.11.28c-.09,0-.22.2-.24,0a2.6,2.6,0,0,1,0-.31s0-.1-.1,0-.61.54-.5.58.38.15.36.28-.15.15-.22.2-.11.25-.23.22-.12-.26-.08-.35,0-.23-.07-.23,0,.11-.24.12a4.61,4.61,0,0,0-.71,0c-.17,0-.38.12-.32.19s.19,0,.23.09a1.31,1.31,0,0,1,0,.44.47.47,0,0,1-.09.31,3.28,3.28,0,0,0-.33.43c-.06.12-.13.41-.22.46a3.59,3.59,0,0,0-.47.35,1.33,1.33,0,0,1-.36.17c-.08,0-.29.16-.29.2a3.6,3.6,0,0,1-.89.28,3.13,3.13,0,0,0-1,.5c-.11.12-.3.33-.39.45a5,5,0,0,1-.44.33c-.11.1-.43.33-.46.38s-.08.12-.08.18.08.3,0,.31-.06-.16-.16-.16-.1.29-.15.38-.19,0-.19-.06-.31.18-.38.27a1,1,0,0,0-.13.27c0,.12-.09.11-.23.22a.61.61,0,0,1-.43.1,1.66,1.66,0,0,0-.4.1,1.92,1.92,0,0,1-.34,0c-.13,0-.28-.07-.35-.05s-.23.1-.32.12-.56,0-.88-.06-.42,0-.56-.06a6,6,0,0,0-.59-.37s-.07.13-.11.16-.09-.15-.12-.12,0,.22-.12.24-.07-.13-.13-.13-.06.07-.12.08-.08-.11-.12-.1.05.24,0,.26a.46.46,0,0,1-.17,0,.2.2,0,0,1-.11,0c-.06,0-.12-.09-.14,0s.06.06.06.19-.14.24-.15.41a3,3,0,0,1,0,.67c-.06.18-.14.56-.18.69a1.31,1.31,0,0,0-.09.25s-.05.06,0,.14,0,.21-.07.23a.23.23,0,0,0-.14.2s.09.08-.08.15-.14.16-.28.09a.43.43,0,0,1-.28-.25,2.94,2.94,0,0,0-.19-.29.82.82,0,0,1-.12-.22c0-.08.05-.08-.12-.16s-.33-.13-.47-.21a2.34,2.34,0,0,0-.31-.16c-.08-.05-.24-.15-.17-.07l.14.18c.07.1.17.24.07.19a.55.55,0,0,1-.17-.13.91.91,0,0,0-.26-.21c-.18-.09-.25-.15-.32-.15l-.28,0a.72.72,0,0,0-.31.11.77.77,0,0,0-.27.34c0,.09,0,.15-.1.21s-.15.07-.16.14.06.14-.07.18-.27.07-.27.16,0,.24-.11.25-.22-.06-.27,0a.57.57,0,0,1-.27.26,1.54,1.54,0,0,0-.4.26c0,.06,0,.12-.13.13s-.15-.11-.15,0a1.4,1.4,0,0,0,0,.29c0,.09.05.14-.07.17s-.09.08-.26.16-.33.13-.34.19-.06.09-.06.18-.05.23-.15.25-.21-.16-.21,0a1.1,1.1,0,0,0,.07.4c0,.05,0,.14.14.14s.18.16.15.2-.1.08-.06.14.15.07.08.13-.16.09-.16.18a1.91,1.91,0,0,1,0,.24.22.22,0,0,1-.13.18c-.11.07-.15.07-.2.12s0,.06-.11.09-.21-.07-.22,0a2.42,2.42,0,0,1,0,.27.75.75,0,0,1-.13.27c-.06.09-.29.2-.3.27s0,.1.09.1.17-.1.26-.21a1.38,1.38,0,0,1,.23-.29l.34-.23s.06,0,0,.06,0,.14,0,.23a.42.42,0,0,1-.17.18c-.06,0-.08.05-.08.12s0,.07,0,.14-.1,0,0,.07.12-.09.15,0-.1.13-.11.18.18,0,.18.07-.12.08-.18.18a1.51,1.51,0,0,0-.11.47c0,.08-.1.09-.07.16a.25.25,0,0,1,0,.2c0,.07-.05.13-.06.21a1,1,0,0,1-.05.19s-.12,0-.14.07-.11.08-.11.16,0,.15,0,.2,0,.07.05,0,0-.11.06-.15,0,0,.08,0,0,.05.16.07.23,0,.23.05a1.77,1.77,0,0,0,0,.22c0,.1.09.16.12.23s.16.34,0,.53a4.62,4.62,0,0,0-.29.43.78.78,0,0,1-.31.25c-.12.06-.21,0-.35.09s-.18.16-.27.08-.16-.12-.13-.14.08-.08,0-.08-.21-.08-.34,0a3.56,3.56,0,0,0-.41.3c-.12.13-.13.19-.26.2s-.24,0-.3,0-.17.12-.18.16.05.06,0,.25,0,.39-.22.37-.22-.3-.25-.1a4.13,4.13,0,0,0,0,.61.53.53,0,0,1-.19.34c-.05.06-.2.1-.2.26s0,.28-.08.32-.15.05-.16.14,0,.15-.09.18a.56.56,0,0,0-.2.14l-.18.13s-.11,0-.12,0a.73.73,0,0,1-.07.24s-.25.49-.41.48-.17,0-.26.11-.29.08-.31.2,0,.21-.1.26a2.09,2.09,0,0,0-.3.21.66.66,0,0,1-.28.17,3.61,3.61,0,0,1-.35.14c-.11,0-.19-.09-.24,0s-.06.23-.09.28-.18.16-.18.24.34,0,.46.07a.87.87,0,0,1,.38.27c.1.16.17.17.25.3s0,0,0,.08a1.49,1.49,0,0,1,0,.51c0,.17,0,.2.07.34a.45.45,0,0,1,.12.39c0,.13-.11.2-.11.27a1.07,1.07,0,0,0,.12.27.51.51,0,0,1,0,.35c0,.1,0,.24-.15.26a4.18,4.18,0,0,1-.51.07.22.22,0,0,1-.24-.22c0-.12-.08-.27,0-.27s.11.05.21.06.2,0,.15-.08-.14-.08-.08-.13a.24.24,0,0,0,.11-.24c0-.1-.13-.26-.23-.26s0,.19-.19.12,0-.16-.12-.26-.12,0-.13-.11a1.85,1.85,0,0,0-.1-.34,1.05,1.05,0,0,1-.25.09c-.09,0-.12.08-.21,0s-.06,0-.13-.16a1,1,0,0,0-.31-.33,2.4,2.4,0,0,0-.24-.22.9.9,0,0,0-.25-.08,1.74,1.74,0,0,1-.47-.24A3.32,3.32,0,0,1,11,25c0-.09,0-.13-.11-.17a1.19,1.19,0,0,0-.23-.07.89.89,0,0,1-.22-.11s-.07-.06-.07.06-.11.2,0,.35l.35.42a1.11,1.11,0,0,1,.22.33c.06.14-.09.1,0,.23s0,0,.22.15a1,1,0,0,1,.38.42,1.09,1.09,0,0,1,.15.45c0,.21-.1.24.05.46a3.29,3.29,0,0,1,.25.38s.13.15,0,.25-.43.06-.51.16-.39.28-.41.36a.41.41,0,0,0,.09.3c.06.06-.05.2,0,.27a.53.53,0,0,1,0,.21c0,.09,0,.15-.06.25s-.24.09-.28.13a.39.39,0,0,0-.15.21c-.06.15-.06,0-.21.16a3.54,3.54,0,0,0-.35.29c-.05.07-.12.22-.23.24s-.13,0-.27-.07-.32-.1-.46-.27-.3-.43-.25-.3a1.67,1.67,0,0,1,.18.48c0,.12,0,.29-.13.37s-.21.09-.26.25a2,2,0,0,1-.11.31l-.12.21c0,.06-.08,0-.06.16s-.1.35-.1.38,0,.18,0,.22.09.2.12.32.08.22.2.24.08-.15.22,0a1.09,1.09,0,0,0,.26.24,1.11,1.11,0,0,1,.33.27s.11.22.08.35,0,.17-.09.24a.84.84,0,0,0-.16.41c0,.08.07.23.14.22s.16-.11.15-.15,0-.2.07-.15.15.13.18.14l.21.06a.22.22,0,0,1,.12.1c0,.07.13,0,.13.14s0,.13,0,.2a.88.88,0,0,1,.09.2.73.73,0,0,1,.06.14.12.12,0,0,0,.16.09c.1,0,.15,0,.14-.12s0-.12.05-.15,0-.12.14-.12h.16l.12.1s.11,0,.11,0-.09.05,0,.16a.64.64,0,0,0,.14.22,1.52,1.52,0,0,0,.22.22c.08.06.22.19.16.27s-.14.19-.14.24-.08.16-.09.22.05.17,0,.19-.1,0-.05.09.34.21.13.2-.34-.07-.37,0,.15.18.18.19.13.05.11.09-.08,0-.05.1.11.13.07.18-.12.14-.1.22.07.2,0,.16a2,2,0,0,1-.28-.26c-.11-.1-.05-.21-.11-.1a1.1,1.1,0,0,0,0,.57,1.31,1.31,0,0,0,.16.44l.32.26a.23.23,0,0,1,.08.18c0,.09.14.29.15.24s0-.2,0-.23.21,0,.21.06a2.61,2.61,0,0,0,.08.42,1.86,1.86,0,0,0,.1.25,1.17,1.17,0,0,0,.09.14.13.13,0,0,1,.07.12c0,.09,0,.21.05.22s.1-.05.12,0,.12.15,0,.24-.23.35-.26.37a.39.39,0,0,0-.15.16c0,.09,0,.13-.12.18s-.26,0-.34-.08-.17,0-.25.09-.25,0-.29,0-.06.1-.06.23a.5.5,0,0,1-.05.32c-.07.11-.1.16-.09.19s.1,0,.22,0a1.87,1.87,0,0,0,.21,0c.07,0,.12,0,.2.1s.17.05.21.09a.25.25,0,0,1,0,.17s0,0,0,.16,0,.27.05.28a.22.22,0,0,0,.16,0l.06,0a2.65,2.65,0,0,1,0,.32c0,.11-.07.11-.09.06s0,0-.07,0a.58.58,0,0,0,.05.28c0,.06.07.18.1.18s.05-.12.11-.11,0,.13,0,.19a.48.48,0,0,0,0,.2.48.48,0,0,1,.06.21s-.05.13-.06.17a.32.32,0,0,1-.1.13s-.09,0-.09,0a.65.65,0,0,0,.11.25s0,.13.05.13.11,0,.17,0,0,.15,0,.17-.17.06-.14.11.09,0,.12.09,0,.1,0,.14.09.06.09.09-.09,0-.14,0,0-.08-.07-.07-.09.06,0,.13a1.14,1.14,0,0,0,.15.19s.15,0,.15,0l.09,0s.08.08.14.08a.14.14,0,0,1,.12.12s0,.11-.08.08a.4.4,0,0,0-.19-.07c-.07,0-.15,0-.12.07s.14,0,.15.08,0,.05-.08.08-.08.05,0,.18a1.71,1.71,0,0,0,.18.28s0,0,0,.11.08.2.06.24-.08,0-.06.12.08.13.05.19a.4.4,0,0,0,0,.22.11.11,0,0,1-.06.12.85.85,0,0,1-.18.05l-.09.12c-.06.07-.11.08-.14.13s-.08.09,0,.12l.25.13s.13.23.21.25.23,0,.33,0,.18,0,.16.12a.64.64,0,0,1-.18.28.2.2,0,0,1-.17.06.65.65,0,0,0-.14,0,.29.29,0,0,0-.19.09,1.42,1.42,0,0,1-.22.14s-.07,0,0,.15a.47.47,0,0,1,0,.31c0,.09-.07.1-.08.16s-.12.11,0,.2.2,0,.24.1,0,.18.11.2.1.12.21,0a.68.68,0,0,0,.17-.25c0-.09,0-.17,0-.25s.08-.16.14-.17.05,0,.12-.11.14-.19.21-.13.15,0,.25.06.17.11.07.22-.21,0-.23.08a.2.2,0,0,0,0,.14c0,.06.14.07.13.16s-.12.08-.16.08-.05,0-.09,0-.07-.11-.12,0,0,.14-.14.17-.19,0-.17.09.07.17.17.15.21-.14.16,0-.09.24.05.25.12,0,.27,0,.13.07.26,0a1.18,1.18,0,0,1,.27-.12.51.51,0,0,0,.23-.19s0-.08-.06-.1-.13.19-.16.05a.22.22,0,0,1,.19-.24.58.58,0,0,1,.24,0s-.1,0,0,0,.19.09.14.17a.37.37,0,0,1-.2.15c-.08,0-.15.05-.15.12s0,.07.07.17.17.17.07.21-.15-.11-.2-.12-.1.07-.09.13-.05.06-.12.09-.16,0-.2.11-.18.09-.09.17.18,0,.21,0,.06.08.12.09.17,0,.07.09-.29,0-.3.06.05.1.05.17-.07,0-.09.11.07.2,0,.21-.1.08-.16,0-.13-.13-.16-.06a1.23,1.23,0,0,1-.22.23.41.41,0,0,0,.11.06c.06,0,.14,0,.14.07s0,.12,0,.16.24.06.15.11-.21,0-.2.1.09.28,0,.31a.16.16,0,0,1-.18-.06s0-.15-.1-.06-.15.07-.19.13-.16.14-.11.21.18.13.11.18-.15.05-.16,0,0-.13-.08-.08a.21.21,0,0,0-.07.12.13.13,0,0,0-.11,0s-.13.05-.14.11,0,.09,0,.14l-.28.32c0,.07,0,.2,0,.19s.12-.1.17-.05,0,.15.08.16.12,0,.11.08-.15.08-.13,0,0-.1-.07,0,0,.13-.11.09-.12-.14-.18,0a2.7,2.7,0,0,1-.15.29c-.08.1-.06.16-.16.24s-.16.1-.16.15.18.13.19.19-.08.13-.19.11-.08-.16-.19-.1-.1.1-.16.25-.19.24-.15.28.76-.3.8-.19-.11.15-.18.19-.18,0-.16.11a.58.58,0,0,0,.13.22s.08.14,0,.13-.09-.11-.17-.14-.13,0-.12.09.12.19.15.16.16,0,.16,0,.16,0,.05.07a2,2,0,0,1-.31.08s-.23-.06-.22,0,.31.13.22.18-.24,0-.29,0-.2.11-.12.14.21,0,.26,0,.1,0,.09.09-.12.06-.19.12-.09.09-.12.09-.06-.14-.12-.13-.09.11-.08.17a.47.47,0,0,1,0,.26c0,.06,0,.16-.1.13s-.14-.16-.22-.17-.19,0-.24,0,0,.29,0,.4,0,.16-.07.15-.09,0-.18-.09-.11-.22-.21-.25-.17,0-.12.11a.59.59,0,0,1,.07.31.51.51,0,0,1-.07.32.54.54,0,0,1-.17.21c-.06,0-.12,0-.2.06s-.1,0-.1.06,0,.18-.07.13,0-.12-.18-.12-.22,0-.25,0,0-.21-.16-.19a.35.35,0,0,0-.24.14c-.05.08-.07.22-.17.17s0-.09-.13-.08S8,58.87,8,59s.12.33,0,.34-.23,0-.21-.08.09-.21,0-.26a.2.2,0,0,0-.18-.07c-.09,0-.12-.1-.14-.12s-.09.07-.13.11-.05,0-.1.13-.15.11-.19.19-.09.12-.14.17a.32.32,0,0,1-.15.08c-.06,0-.09,0-.09.07s0,.2-.06.19-.09,0-.09-.08-.07-.08-.08,0a.25.25,0,0,0,0,.22c0,.06.07,0,.1.09s0,.19-.06.16-.14-.06-.19,0a.34.34,0,0,0-.1.24c0,.08.16.1.12.17s0,.2-.12.28-.15.22-.08.24a.36.36,0,0,1,.12.09l-.07.13.15.14a.43.43,0,0,0,0,.19.08.08,0,0,0,.13,0s.2-.07.1,0-.09-.06-.1.09,0,.2.06.2.2-.14.24-.07a.83.83,0,0,1,.07.32c0,.09.18.06.2.1s.08.15,0,.19-.1,0-.06.12.14.06.18.13a.1.1,0,0,1-.1.14.1.1,0,0,0-.11.07s0,.13-.11.21-.17.09-.15,0,.07-.2,0-.15a.89.89,0,0,0-.24.12c-.11.07-.11.1-.15.07s0-.13-.15-.05-.12.1-.16.11,0,0-.15,0-.15.05-.19,0-.08-.13-.14-.12-.08,0-.12,0-.12.09-.25.26A2.06,2.06,0,0,0,5,63.8a1.63,1.63,0,0,0-.15.27c0,.13-.1.12-.11.18s0,.13,0,.16.06.11.06.15-.07,0-.09.08-.1.11,0,.14.18-.08.26,0,0,.15.17.13.27-.22.31-.18.06.15,0,.18a.08.08,0,0,0,0,.14s.19-.08.23,0,0,.16,0,.2.14.07.22.11.08.14.2.21a1.3,1.3,0,0,1,.45.31.84.84,0,0,0,.27.29c.13.1.11.11.29.13a1,1,0,0,1,.37,0l.32.11c.18,0,.23,0,.35.1a3.64,3.64,0,0,0,.35.24A2.38,2.38,0,0,0,9,67c.19.07.24,0,.35.1s.1.13.18.17.34,0,.39.15.09.21.25.2.17-.09.37,0a1.37,1.37,0,0,0,.67.25,2.3,2.3,0,0,0,.52-.07,1.8,1.8,0,0,1,.27-.07c.09,0,.15-.09.3-.14a.51.51,0,0,1,.41,0c.11.07,0,.08,0,.29a.77.77,0,0,0,.39.59l.46.15c.12,0,.21,0,.24.2a4.24,4.24,0,0,0,.1.66c0,.2-.06.33.25.41s.51,0,.66,0,.09.08.29.12.33.08.46,0,.18-.18.41-.08.27.28.44.3.27-.08.42,0a.58.58,0,0,0,.48.1c.09,0,0-.11.27,0s.27.12.35,0,0-.21.1-.22.19.07.4.06.42.18.59.15.18-.22.29-.24a1.57,1.57,0,0,1,.27,0c.21,0,.24-.06.26-.19s0-.48.12-.53a.44.44,0,0,0,.32-.19c.11-.15.08-.25.18-.24s.28.12.37.12.11-.09.28,0a.77.77,0,0,0,.35.06c.07,0,0,0,.13.13s.16.08.25.06.12,0,.14.09.29.13.34.19a1,1,0,0,0,.24.15s0,.09.13.21l.62.44s.05,0,.23.07a1,1,0,0,0,.43,0c.11,0,.19-.19.28-.12s.15.11.22.1.06-.12.15,0,.06.19.25.26a4.34,4.34,0,0,0,.59.14c.1,0,0,0,.16,0a1,1,0,0,0,.24,0c.13,0,.09.07.28.08a.38.38,0,0,0,.33-.07c.11-.07.14-.15.26-.22s0-.09.21-.08a.4.4,0,0,1,.23.08.83.83,0,0,0,.3.07c.1,0,0,.06.16.1s.22,0,.28.1a.48.48,0,0,0,.25.16s0,0,.1.12.28,0,.43,0,.17.08.25,0,0-.19.14-.21a.39.39,0,0,1,.25.1.42.42,0,0,1,.13.19c0,.06.06,0,.07.11s.16.18.06.2-.22,0-.16.1.06.19.2.11.21-.21.26-.1.07.18.15.13.14-.25.19-.1a.37.37,0,0,0,.28.23c.08,0,0,0,.13.08s.26.08.28.14-.05.08.06.12a2.08,2.08,0,0,1,.35.07s.16,0,.15.06-.07.09-.05.15.09.07.13.15.12.18.18.28.15.13.13.18a.13.13,0,0,0,0,.17c.08.05.18.05.2.11s-.07.1-.08.18.11.1.13.17.08,0,.16.11.19.21.11.26-.1,0-.16.11,0,.13.07.23.09.09.08.18,0,.23,0,.27,0,0,.27.09.25.11.31.11.15-.06.2,0a.19.19,0,0,0,.16,0,.25.25,0,0,1,.1,0c.06,0,.07,0,.09,0s.17-.36.22-.21.1.49.2.48.25-.29.28-.14,0,.23.14.22.27-.23.24,0-.08.25,0,.35a1,1,0,0,0,.36.23c.14,0,.28,0,.3,0a.12.12,0,0,0,.12,0c.06,0,0-.1.09-.19s.08,0,.14,0,.06.11.21.06.13-.13.19,0,.17,0,.19.06a.42.42,0,0,1,0,.17.26.26,0,0,0,.09.2.12.12,0,0,1,0,.13s.11,0,.13.06,0,.1,0,.15.07,0,.09.13,0,.13.12.13a.5.5,0,0,1,.26.13,1.2,1.2,0,0,1,.12.11c0,.06.16.06.16.1s0,.1,0,.15.11.15.09.18,0,.08,0,.14a.8.8,0,0,0-.15.29c0,.1-.13.12,0,.27s0,.15.19.19.17,0,.23.09a.36.36,0,0,0,.19.11c.1,0,.08,0,.14,0a.42.42,0,0,0,.2.1.28.28,0,0,0,.2,0c.07,0,0-.14.1-.14s.09,0,.2,0a.28.28,0,0,1,.24,0,1.3,1.3,0,0,1,.19.13.33.33,0,0,1,0,.22c0,.08.22.19.24.24s0,0,0,.19.08.13,0,.27a.35.35,0,0,0,.05.28s.1,0,.11.11,0,.14-.1.22-.08.18-.16.25-.12,0-.08.22,0,.3.1.37a1.89,1.89,0,0,0,.21.25c.13.13.12.08.2.14s.12.14.19,0,.11-.27.16-.2.05.14.14.16.06-.19.2,0,.07.18.18.26.16.11.25,0,.12-.16.2-.16.09,0,.15,0,.13-.11.17-.11,0,0,.11.07.14,0,.24-.08.09-.2.16,0,.07.17.16.15.2,0,.25-.15,0-.25.1-.26a.24.24,0,0,1,.22,0,.7.7,0,0,0,.32.17,2.84,2.84,0,0,1,.47,0c.06,0,.12-.09.18-.07s0,.1.14.21.1.22.27.18.19-.09.27-.11.15-.08.21-.06,0,0,.07-.1.08-.17.18-.14.14,0,.18,0,0,.08.09.07.06.07.14-.12a1.93,1.93,0,0,1,.34-.56c.11-.08.09-.16.28-.09s.25.21.37.12.13-.19.2-.26.14,0,.19-.13.05-.21.13-.27a.78.78,0,0,0,.18-.21c.09-.11.08-.17.15-.18s0-.16.14-.1,0,.17.14.24a.18.18,0,0,0,.24,0c.07-.06,0-.16.14-.1s.24.06.35.1.31.07.34.08.15,0,.14.15,0,.22.12.21.15-.16.2-.21.15-.08.2.07.15.17.14.28-.14.2,0,.26.29,0,.42-.12.07-.08.13-.13.13-.06.14,0,0,.23.09.11.11-.25.19-.17a.35.35,0,0,0,.31.09c.14,0,.15-.09.21-.15s.11-.18.16-.18.07,0,.07-.06-.08-.2.06-.23,0-.08.25,0,.32.2.32,0-.2-.33-.12-.4a.47.47,0,0,1,.32-.12.32.32,0,0,0,.27,0c.09-.07.14-.12.18,0s0,.09.17.14.2,0,.26,0a.6.6,0,0,0,.21.15c.1,0,.13,0,.26.09s.23,0,.25.1,0,.06,0,.15a.37.37,0,0,0,.12.17.73.73,0,0,1,.1.2s0,.31.12.28.27-.26.33-.33.11,0,.23,0,.32,0,.38.09a.32.32,0,0,1,.08.15c0,.06.07.12.19,0s.1-.13.21-.09.33,0,.32.07-.1.1-.18.18-.28.2-.05.18.5-.17.56-.07,0,.5.21.5.15-.31.28-.21,0,.39.17.36.18-.38.27-.32,0,.39.2.49a1.26,1.26,0,0,1,.18.08S54,88.21,54,88.21s0,.2,0,.18.3-.16.41-.14a.78.78,0,0,0,.24,0c.08,0,.31-.08.43-.11A2.84,2.84,0,0,0,55.5,88c.15-.07.64-.35.8-.15s.39.33.49.48a3.89,3.89,0,0,0,.23.47c.17.24.14.38.33.43a2.78,2.78,0,0,1,.61.26c.21.13.27.22.37.26s.16.25.17,0,1.3-15.3,1.3-15.3l.14-.41a.56.56,0,0,0,0-.35c0-.18-.08-.22-.07-.41a2.56,2.56,0,0,0,0-.4c0-.09-.06-.1-.14-.27s-.19-.25-.21-.37,0-.25,0-.33-.09-.1-.17-.21a.71.71,0,0,1-.14-.24s-.07-.11-.21-.16-.29-.15-.3-.23.08-.12-.11-.2a.37.37,0,0,1-.19-.36c0-.05-.1,0-.08-.12a4.87,4.87,0,0,0,.05-.51c0-.14.08-.12,0-.28s-.1-.09-.1-.21.06-.2,0-.26a1.91,1.91,0,0,0-.38-.18,3.72,3.72,0,0,1-.44-.16,2,2,0,0,0-.22-.16c-.07,0-.17,0-.25-.09s-.08-.1-.26-.16-.19,0-.31-.17a7.75,7.75,0,0,0-.76-.69s-.34-3.83-.33-3.85a.24.24,0,0,1,.26-.1c.13,0,.12,0,.25,0a.88.88,0,0,0,.27-.06c.14,0,.12-.06.21-.08s.14-.13.24-.13a1.06,1.06,0,0,0,.26,0c.08,0,.07-.11.19-.13s.16-.08.21-.13.23-.29.37-.2.07.23.24.16,0-.14.22-.29.3-.39.48-.32.32,0,.42.25a.6.6,0,0,0,.34.3c.1,0,.15-.06.23,0s0,.14.19.12.28,0,.33-.13.08-.33.18-.34.35,0,.28-.12-.28-.06-.28-.19.21-.18.11-.34-.25-.15-.13-.27.33-.08.13-.21-.36-.13-.35-.27-.11-.13-.15-.24,0-.16,0-.26a.52.52,0,0,0-.39-.19c-.16,0-.36-.08-.43-.06s-.07.17-.17.11-.14-.12-.2-.11,0,.17-.14.13-.13-.16-.21-.12,0,.13-.18.11a1.09,1.09,0,0,0-.47,0c-.07,0,0-.06-.19,0s-.09.1-.19.08-.17-.17-.27-.17a1.66,1.66,0,0,0-.41.15c-.08,0-.16-.1-.18-.13S56,57.37,56,57.34a.38.38,0,0,1,.27-.1c.13,0,.28-.21.39-.14a.58.58,0,0,0,.22.1s.06-.18.2-.13.19.07.27,0,.2-.27.42-.23.49,0,.6,0,.15,0,.23.08.05.1.26.06,6.7-.69,6.7-.69a.66.66,0,0,0-.23-.27c-.14-.07-.25-.11-.32-.24s-.24-.25-.13-.41a1.68,1.68,0,0,1,.49-.48c.1,0,.3,0,.36.14a1.72,1.72,0,0,0,.18.43.92.92,0,0,0,.75.38c.31,0,.42-.06.53-.17s.67-1.05.89-1.27.45-.57.65-.66.53-.34.7-.28.24,0,.35.25,1.41,1.84,1.53,2.23a9.69,9.69,0,0,1,.24,1.09,5,5,0,0,1,.1.93c0,.28-.22.5,0,.53a1.77,1.77,0,0,0,.77-.13c.12-.06.28-.07.31-.25a.46.46,0,0,0,0-.41,3.46,3.46,0,0,1-.18-.37c0-.08,0-.12-.08-.16a.27.27,0,0,1-.11-.2.44.44,0,0,0-.08-.21.76.76,0,0,1-.06-.27,2.36,2.36,0,0,1-.12-.45c0-.16-.14-.2-.17-.25a1.29,1.29,0,0,1-.06-.22.56.56,0,0,0-.16-.24c-.06-.07,0-.11-.09-.23a1.28,1.28,0,0,0-.14-.23.64.64,0,0,0-.2-.2c-.08-.06-.17-.08-.21-.22s-.06-1-.07-1-.19-.08-.27-.14a.3.3,0,0,1-.14-.25.7.7,0,0,0-.13-.33c-.06-.1-.11-.21-.06-.29s.21-.17.1-.3-.22-.26-.31-.28-.18,0-.25-.11a2,2,0,0,0-.34-.45,2.94,2.94,0,0,1-.24-.23,1,1,0,0,0-.23-.15.7.7,0,0,1-.22-.17s-.08-.11-.19-.11-.18.24-.25.19-.1-.22-.17-.32-.25-.23-.25-.27.08-.14,0-.2a.65.65,0,0,0-.36,0c-.11,0-.25-.16-.35-.18a.38.38,0,0,0-.26.07c-.1.05-.14,0-.2.08s0,.11-.13.12-.2.08-.17-.08a1.06,1.06,0,0,1,.31-.54c.12-.1,1.73-2,1.75-2l.44-.29s.11-.31.18-.46,0-.22,0-.29a.56.56,0,0,1-.06-.21c0-.09,0-.1-.14-.18a.41.41,0,0,1-.12-.26c0-.07-.08-.11-.11-.2s0-.17-.05-.26a.68.68,0,0,1-.09-.16A.4.4,0,0,0,68.5,45a1,1,0,0,1-.17-.18c0-.06-.1-.14-.15-.14a.57.57,0,0,1-.24,0,2.48,2.48,0,0,1-.47-.05s-.17-.39-.28-.6-.31-.41-.36-.54.06-.16-.15-.31a2,2,0,0,1-.29-.21c-.1-.07-.3-.13-.37-.38a1.31,1.31,0,0,1-.09-.63.59.59,0,0,0,.06-.36c0-.13-.13-.32-.13-.38s0-.09-.11-.23-.26-.22-.23-.29a1.3,1.3,0,0,1,.18-.25c0-.07.13-1.32.16-1.52a2,2,0,0,1,.23-.66c.09-.12.32-.33.24-.6a3.63,3.63,0,0,0-.18-.46c0-.12,0-.17,0-.28s-.21-.12-.24-.24-.2-.11,0-.3.8-.51,1-.88a3,3,0,0,0,.08-.94.79.79,0,0,1,.2-.47c.15-.18.35-.73.53-.94s.5-.41.46-.57a.91.91,0,0,0-.25-.41,1.12,1.12,0,0,1-.22-.39.45.45,0,0,0-.27-.33,5.4,5.4,0,0,0-1.2-.21c-.33,0-.73-.13-1,0a4.27,4.27,0,0,0-.49.28c-.2.16-.16.24-.39.23s-.48-.15-.72-.1a1.93,1.93,0,0,0-.42.12,4.3,4.3,0,0,1-.41.16,2.42,2.42,0,0,1-.47.05,1.29,1.29,0,0,0-.45.11c-.15.06-.13,0-.28.07l-.28.17s-.08-.08-.2-.07-.06.17-.21.19a.56.56,0,0,1-.42,0,.59.59,0,0,0-.51-.14,1.18,1.18,0,0,1-.53.07l-.66,0c-.27,0-.37-.06-.45,0a2.46,2.46,0,0,1-.24.16.88.88,0,0,0-.19.17.81.81,0,0,0-.2.17.63.63,0,0,1-.36.27c-.12,0,0,0-.25-.09s-.17-.15-.32-.11-.16.07-.25,0a.92.92,0,0,1-.2-.1L52,28.79s-.13-.09-.18-.05-.08.07-.19.16a.36.36,0,0,1-.29.11,1,1,0,0,1-.24,0,.53.53,0,0,1-.28-.06c-.08,0-.11-.11-.22-.09a.32.32,0,0,1-.25,0,.23.23,0,0,0-.22,0,.35.35,0,0,1-.33-.11c-.1-.11-.14-.25-.28-.16s0,.18-.23.09-.13-.26-.33-.13a1.62,1.62,0,0,1-.34.2c-.08,0-.17,0-.23.08s-.09.15-.17.16-.12,0-.19,0-.2.15-.27.21a.62.62,0,0,1-.25.2c-.1,0,0-.05-.22,0s-.13.05-.29,0-.24-.2-.4-.11a1.36,1.36,0,0,1-.32.14s-.17,0-.22,0-.15.2-.27.19-.15-.1-.2-.1-.1.16-.23.18-.16-.05-.24,0a1.55,1.55,0,0,0-.29.09c-.12.05-.19,0-.27,0s-.16.08-.21.06,0-.14-.14-.17a2.24,2.24,0,0,0-.28-.11c-.07,0-.1,0-.13.08s0,.22-.11.18-.09-.14-.2-.11a.66.66,0,0,0-.2.07s-.07-.06-.15,0-.07.14-.17.15-.15-.09-.29,0-.15.13-.22.13a2,2,0,0,1-.26,0L42,29.87s-1.19-.67-1.33-.78-.39-.23-.54-.35-.28-.07-.32-.29-.08-.4-.27-.46a2.68,2.68,0,0,1-.64-.2c-.12-.1-.32,0-.26-.29a.53.53,0,0,0-.06-.48c-.08-.14-.13-.1-.1-.35a9.64,9.64,0,0,0,0-1.09.89.89,0,0,1-.15-.46c0-.18,0-.44.19-.53s.3-.19.28-.23a.24.24,0,0,1-.06-.2,3.64,3.64,0,0,0,0-.66c0-.11-.12-.14-.16-.26s-.13-.23-.08-.31a.32.32,0,0,0,0-.27c0-.07-.19-.14-.23-.17L37,21.33l-1.2-2.12s.25-.1.13-.27-.24-.2-.34-.17,0,.11-.24.14a.64.64,0,0,1-.51-.25.64.64,0,0,0-.31-.22c-.08,0-.94.47-1,.49a1.42,1.42,0,0,1-.64,0c-.17-.07-.22-.16-.15-.21A.77.77,0,0,1,33,18.6a.93.93,0,0,0,.31-.34,8.13,8.13,0,0,1,.53-.72,1.78,1.78,0,0,0,.31-.44,13.26,13.26,0,0,0,.31-1.71c0-.22,0-.72,0-.86s-.33-.45-.36-.78a6.16,6.16,0,0,1,.07-1l.58-1.7a4.19,4.19,0,0,1,.27-.55c.11-.16,2.18-2.83,2.26-2.91Z"/></clipPath></defs><title>Fichier 6</title><g id="Calque_2" data-name="Calque 2"><g id="Calque_1-2" data-name="Calque 1"><path class="cls-1" d="M37.32,7.48l.39-.08.3-.07,1.67-2.86s1.16-.31,1.44-.4a9.13,9.13,0,0,0,1.45-.82c.18-.15.31-.3.44-.3s.24.07.32,0,.21-.1.3-.2a1.62,1.62,0,0,1,.26-.19L44,2.4s.14-.09.14-.19A2.09,2.09,0,0,0,44,1.62s-.22-.31-.32-.44,0-.15-.2-.24S43.34.83,43.2.77s-.15-.12-.28-.12a.93.93,0,0,1-.29,0l-.48-.1L42,.43s-.29.06-.43,0a.38.38,0,0,0-.32-.07c-.09,0-.32-.11-.37-.06s-.18.13-.16.18,0,.06.17,0,.37,0,.39.07.19.2,0,.21a.62.62,0,0,1-.25,0,.63.63,0,0,0-.36,0c-.09.05-.07.07,0,.17a.27.27,0,0,1-.11.28c-.09,0-.22.2-.24,0a2.6,2.6,0,0,1,0-.31s0-.1-.1,0-.61.54-.5.58.38.15.36.28-.15.15-.22.2-.11.25-.23.22-.12-.26-.08-.35,0-.23-.07-.23,0,.11-.24.12a4.61,4.61,0,0,0-.71,0c-.17,0-.38.12-.32.19s.19,0,.23.09a1.31,1.31,0,0,1,0,.44.47.47,0,0,1-.09.31,3.28,3.28,0,0,0-.33.43c-.06.12-.13.41-.22.46a3.59,3.59,0,0,0-.47.35,1.33,1.33,0,0,1-.36.17c-.08,0-.29.16-.29.2a3.6,3.6,0,0,1-.89.28,3.13,3.13,0,0,0-1,.5c-.11.12-.3.33-.39.45a5,5,0,0,1-.44.33c-.11.1-.43.33-.46.38s-.08.12-.08.18.08.3,0,.31-.06-.16-.16-.16-.1.29-.15.38-.19,0-.19-.06-.31.18-.38.27a1,1,0,0,0-.13.27c0,.12-.09.11-.23.22a.61.61,0,0,1-.43.1,1.66,1.66,0,0,0-.4.1,1.92,1.92,0,0,1-.34,0c-.13,0-.28-.07-.35-.05s-.23.1-.32.12-.56,0-.88-.06-.42,0-.56-.06a6,6,0,0,0-.59-.37s-.07.13-.11.16-.09-.15-.12-.12,0,.22-.12.24-.07-.13-.13-.13-.06.07-.12.08-.08-.11-.12-.1.05.24,0,.26a.46.46,0,0,1-.17,0,.2.2,0,0,1-.11,0c-.06,0-.12-.09-.14,0s.06.06.06.19-.14.24-.15.41a3,3,0,0,1,0,.67c-.06.18-.14.56-.18.69a1.31,1.31,0,0,0-.09.25s-.05.06,0,.14,0,.21-.07.23a.23.23,0,0,0-.14.2s.09.08-.08.15-.14.16-.28.09a.43.43,0,0,1-.28-.25,2.94,2.94,0,0,0-.19-.29.82.82,0,0,1-.12-.22c0-.08.05-.08-.12-.16s-.33-.13-.47-.21a2.34,2.34,0,0,0-.31-.16c-.08-.05-.24-.15-.17-.07l.14.18c.07.1.17.24.07.19a.55.55,0,0,1-.17-.13.91.91,0,0,0-.26-.21c-.18-.09-.25-.15-.32-.15l-.28,0a.72.72,0,0,0-.31.11.77.77,0,0,0-.27.34c0,.09,0,.15-.1.21s-.15.07-.16.14.06.14-.07.18-.27.07-.27.16,0,.24-.11.25-.22-.06-.27,0a.57.57,0,0,1-.27.26,1.54,1.54,0,0,0-.4.26c0,.06,0,.12-.13.13s-.15-.11-.15,0a1.4,1.4,0,0,0,0,.29c0,.09.05.14-.07.17s-.09.08-.26.16-.33.13-.34.19-.06.09-.06.18-.05.23-.15.25-.21-.16-.21,0a1.1,1.1,0,0,0,.07.4c0,.05,0,.14.14.14s.18.16.15.2-.1.08-.06.14.15.07.08.13-.16.09-.16.18a1.91,1.91,0,0,1,0,.24.22.22,0,0,1-.13.18c-.11.07-.15.07-.2.12s0,.06-.11.09-.21-.07-.22,0a2.42,2.42,0,0,1,0,.27.75.75,0,0,1-.13.27c-.06.09-.29.2-.3.27s0,.1.09.1.17-.1.26-.21a1.38,1.38,0,0,1,.23-.29l.34-.23s.06,0,0,.06,0,.14,0,.23a.42.42,0,0,1-.17.18c-.06,0-.08.05-.08.12s0,.07,0,.14-.1,0,0,.07.12-.09.15,0-.1.13-.11.18.18,0,.18.07-.12.08-.18.18a1.51,1.51,0,0,0-.11.47c0,.08-.1.09-.07.16a.25.25,0,0,1,0,.2c0,.07-.05.13-.06.21a1,1,0,0,1-.05.19s-.12,0-.14.07-.11.08-.11.16,0,.15,0,.2,0,.07.05,0,0-.11.06-.15,0,0,.08,0,0,.05.16.07.23,0,.23.05a1.77,1.77,0,0,0,0,.22c0,.1.09.16.12.23s.16.34,0,.53a4.62,4.62,0,0,0-.29.43.78.78,0,0,1-.31.25c-.12.06-.21,0-.35.09s-.18.16-.27.08-.16-.12-.13-.14.08-.08,0-.08-.21-.08-.34,0a3.56,3.56,0,0,0-.41.3c-.12.13-.13.19-.26.2s-.24,0-.3,0-.17.12-.18.16.05.06,0,.25,0,.39-.22.37-.22-.3-.25-.1a4.13,4.13,0,0,0,0,.61.53.53,0,0,1-.19.34c-.05.06-.2.1-.2.26s0,.28-.08.32-.15.05-.16.14,0,.15-.09.18a.56.56,0,0,0-.2.14l-.18.13s-.11,0-.12,0a.73.73,0,0,1-.07.24s-.25.49-.41.48-.17,0-.26.11-.29.08-.31.2,0,.21-.1.26a2.09,2.09,0,0,0-.3.21.66.66,0,0,1-.28.17,3.61,3.61,0,0,1-.35.14c-.11,0-.19-.09-.24,0s-.06.23-.09.28-.18.16-.18.24.34,0,.46.07a.87.87,0,0,1,.38.27c.1.16.17.17.25.3s0,0,0,.08a1.49,1.49,0,0,1,0,.51c0,.17,0,.2.07.34a.45.45,0,0,1,.12.39c0,.13-.11.2-.11.27a1.07,1.07,0,0,0,.12.27.51.51,0,0,1,0,.35c0,.1,0,.24-.15.26a4.18,4.18,0,0,1-.51.07.22.22,0,0,1-.24-.22c0-.12-.08-.27,0-.27s.11.05.21.06.2,0,.15-.08-.14-.08-.08-.13a.24.24,0,0,0,.11-.24c0-.1-.13-.26-.23-.26s0,.19-.19.12,0-.16-.12-.26-.12,0-.13-.11a1.85,1.85,0,0,0-.1-.34,1.05,1.05,0,0,1-.25.09c-.09,0-.12.08-.21,0s-.06,0-.13-.16a1,1,0,0,0-.31-.33,2.4,2.4,0,0,0-.24-.22.9.9,0,0,0-.25-.08,1.74,1.74,0,0,1-.47-.24A3.32,3.32,0,0,1,11,25c0-.09,0-.13-.11-.17a1.19,1.19,0,0,0-.23-.07.89.89,0,0,1-.22-.11s-.07-.06-.07.06-.11.2,0,.35l.35.42a1.11,1.11,0,0,1,.22.33c.06.14-.09.1,0,.23s0,0,.22.15a1,1,0,0,1,.38.42,1.09,1.09,0,0,1,.15.45c0,.21-.1.24.05.46a3.29,3.29,0,0,1,.25.38s.13.15,0,.25-.43.06-.51.16-.39.28-.41.36a.41.41,0,0,0,.09.3c.06.06-.05.2,0,.27a.53.53,0,0,1,0,.21c0,.09,0,.15-.06.25s-.24.09-.28.13a.39.39,0,0,0-.15.21c-.06.15-.06,0-.21.16a3.54,3.54,0,0,0-.35.29c-.05.07-.12.22-.23.24s-.13,0-.27-.07-.32-.1-.46-.27-.3-.43-.25-.3a1.67,1.67,0,0,1,.18.48c0,.12,0,.29-.13.37s-.21.09-.26.25a2,2,0,0,1-.11.31l-.12.21c0,.06-.08,0-.06.16s-.1.35-.1.38,0,.18,0,.22.09.2.12.32.08.22.2.24.08-.15.22,0a1.09,1.09,0,0,0,.26.24,1.11,1.11,0,0,1,.33.27s.11.22.08.35,0,.17-.09.24a.84.84,0,0,0-.16.41c0,.08.07.23.14.22s.16-.11.15-.15,0-.2.07-.15.15.13.18.14l.21.06a.22.22,0,0,1,.12.1c0,.07.13,0,.13.14s0,.13,0,.2a.88.88,0,0,1,.09.2.73.73,0,0,1,.06.14.12.12,0,0,0,.16.09c.1,0,.15,0,.14-.12s0-.12.05-.15,0-.12.14-.12h.16l.12.1s.11,0,.11,0-.09.05,0,.16a.64.64,0,0,0,.14.22,1.52,1.52,0,0,0,.22.22c.08.06.22.19.16.27s-.14.19-.14.24-.08.16-.09.22.05.17,0,.19-.1,0-.05.09.34.21.13.2-.34-.07-.37,0,.15.18.18.19.13.05.11.09-.08,0-.05.1.11.13.07.18-.12.14-.1.22.07.2,0,.16a2,2,0,0,1-.28-.26c-.11-.1-.05-.21-.11-.1a1.1,1.1,0,0,0,0,.57,1.31,1.31,0,0,0,.16.44l.32.26a.23.23,0,0,1,.08.18c0,.09.14.29.15.24s0-.2,0-.23.21,0,.21.06a2.61,2.61,0,0,0,.08.42,1.86,1.86,0,0,0,.1.25,1.17,1.17,0,0,0,.09.14.13.13,0,0,1,.07.12c0,.09,0,.21.05.22s.1-.05.12,0,.12.15,0,.24-.23.35-.26.37a.39.39,0,0,0-.15.16c0,.09,0,.13-.12.18s-.26,0-.34-.08-.17,0-.25.09-.25,0-.29,0-.06.1-.06.23a.5.5,0,0,1-.05.32c-.07.11-.1.16-.09.19s.1,0,.22,0a1.87,1.87,0,0,0,.21,0c.07,0,.12,0,.2.1s.17.05.21.09a.25.25,0,0,1,0,.17s0,0,0,.16,0,.27.05.28a.22.22,0,0,0,.16,0l.06,0a2.65,2.65,0,0,1,0,.32c0,.11-.07.11-.09.06s0,0-.07,0a.58.58,0,0,0,.05.28c0,.06.07.18.1.18s.05-.12.11-.11,0,.13,0,.19a.48.48,0,0,0,0,.2.48.48,0,0,1,.06.21s-.05.13-.06.17a.32.32,0,0,1-.1.13s-.09,0-.09,0a.65.65,0,0,0,.11.25s0,.13.05.13.11,0,.17,0,0,.15,0,.17-.17.06-.14.11.09,0,.12.09,0,.1,0,.14.09.06.09.09-.09,0-.14,0,0-.08-.07-.07-.09.06,0,.13a1.14,1.14,0,0,0,.15.19s.15,0,.15,0l.09,0s.08.08.14.08a.14.14,0,0,1,.12.12s0,.11-.08.08a.4.4,0,0,0-.19-.07c-.07,0-.15,0-.12.07s.14,0,.15.08,0,.05-.08.08-.08.05,0,.18a1.71,1.71,0,0,0,.18.28s0,0,0,.11.08.2.06.24-.08,0-.06.12.08.13.05.19a.4.4,0,0,0,0,.22.11.11,0,0,1-.06.12.85.85,0,0,1-.18.05l-.09.12c-.06.07-.11.08-.14.13s-.08.09,0,.12l.25.13s.13.23.21.25.23,0,.33,0,.18,0,.16.12a.64.64,0,0,1-.18.28.2.2,0,0,1-.17.06.65.65,0,0,0-.14,0,.29.29,0,0,0-.19.09,1.42,1.42,0,0,1-.22.14s-.07,0,0,.15a.47.47,0,0,1,0,.31c0,.09-.07.1-.08.16s-.12.11,0,.2.2,0,.24.1,0,.18.11.2.1.12.21,0a.68.68,0,0,0,.17-.25c0-.09,0-.17,0-.25s.08-.16.14-.17.05,0,.12-.11.14-.19.21-.13.15,0,.25.06.17.11.07.22-.21,0-.23.08a.2.2,0,0,0,0,.14c0,.06.14.07.13.16s-.12.08-.16.08-.05,0-.09,0-.07-.11-.12,0,0,.14-.14.17-.19,0-.17.09.07.17.17.15.21-.14.16,0-.09.24.05.25.12,0,.27,0,.13.07.26,0a1.18,1.18,0,0,1,.27-.12.51.51,0,0,0,.23-.19s0-.08-.06-.1-.13.19-.16.05a.22.22,0,0,1,.19-.24.58.58,0,0,1,.24,0s-.1,0,0,0,.19.09.14.17a.37.37,0,0,1-.2.15c-.08,0-.15.05-.15.12s0,.07.07.17.17.17.07.21-.15-.11-.2-.12-.1.07-.09.13-.05.06-.12.09-.16,0-.2.11-.18.09-.09.17.18,0,.21,0,.06.08.12.09.17,0,.07.09-.29,0-.3.06.05.1.05.17-.07,0-.09.11.07.2,0,.21-.1.08-.16,0-.13-.13-.16-.06a1.23,1.23,0,0,1-.22.23.41.41,0,0,0,.11.06c.06,0,.14,0,.14.07s0,.12,0,.16.24.06.15.11-.21,0-.2.1.09.28,0,.31a.16.16,0,0,1-.18-.06s0-.15-.1-.06-.15.07-.19.13-.16.14-.11.21.18.13.11.18-.15.05-.16,0,0-.13-.08-.08a.21.21,0,0,0-.07.12.13.13,0,0,0-.11,0s-.13.05-.14.11,0,.09,0,.14l-.28.32c0,.07,0,.2,0,.19s.12-.1.17-.05,0,.15.08.16.12,0,.11.08-.15.08-.13,0,0-.1-.07,0,0,.13-.11.09-.12-.14-.18,0a2.7,2.7,0,0,1-.15.29c-.08.1-.06.16-.16.24s-.16.1-.16.15.18.13.19.19-.08.13-.19.11-.08-.16-.19-.1-.1.1-.16.25-.19.24-.15.28.76-.3.8-.19-.11.15-.18.19-.18,0-.16.11a.58.58,0,0,0,.13.22s.08.14,0,.13-.09-.11-.17-.14-.13,0-.12.09.12.19.15.16.16,0,.16,0,.16,0,.05.07a2,2,0,0,1-.31.08s-.23-.06-.22,0,.31.13.22.18-.24,0-.29,0-.2.11-.12.14.21,0,.26,0,.1,0,.09.09-.12.06-.19.12-.09.09-.12.09-.06-.14-.12-.13-.09.11-.08.17a.47.47,0,0,1,0,.26c0,.06,0,.16-.1.13s-.14-.16-.22-.17-.19,0-.24,0,0,.29,0,.4,0,.16-.07.15-.09,0-.18-.09-.11-.22-.21-.25-.17,0-.12.11a.59.59,0,0,1,.07.31.51.51,0,0,1-.07.32.54.54,0,0,1-.17.21c-.06,0-.12,0-.2.06s-.1,0-.1.06,0,.18-.07.13,0-.12-.18-.12-.22,0-.25,0,0-.21-.16-.19a.35.35,0,0,0-.24.14c-.05.08-.07.22-.17.17s0-.09-.13-.08S8,58.87,8,59s.12.33,0,.34-.23,0-.21-.08.09-.21,0-.26a.2.2,0,0,0-.18-.07c-.09,0-.12-.1-.14-.12s-.09.07-.13.11-.05,0-.1.13-.15.11-.19.19-.09.12-.14.17a.32.32,0,0,1-.15.08c-.06,0-.09,0-.09.07s0,.2-.06.19-.09,0-.09-.08-.07-.08-.08,0a.25.25,0,0,0,0,.22c0,.06.07,0,.1.09s0,.19-.06.16-.14-.06-.19,0a.34.34,0,0,0-.1.24c0,.08.16.1.12.17s0,.2-.12.28-.15.22-.08.24a.36.36,0,0,1,.12.09l-.07.13.15.14a.43.43,0,0,0,0,.19.08.08,0,0,0,.13,0s.2-.07.1,0-.09-.06-.1.09,0,.2.06.2.2-.14.24-.07a.83.83,0,0,1,.07.32c0,.09.18.06.2.1s.08.15,0,.19-.1,0-.06.12.14.06.18.13a.1.1,0,0,1-.1.14.1.1,0,0,0-.11.07s0,.13-.11.21-.17.09-.15,0,.07-.2,0-.15a.89.89,0,0,0-.24.12c-.11.07-.11.1-.15.07s0-.13-.15-.05-.12.1-.16.11,0,0-.15,0-.15.05-.19,0-.08-.13-.14-.12-.08,0-.12,0-.12.09-.25.26A2.06,2.06,0,0,0,5,63.8a1.63,1.63,0,0,0-.15.27c0,.13-.1.12-.11.18s0,.13,0,.16.06.11.06.15-.07,0-.09.08-.1.11,0,.14.18-.08.26,0,0,.15.17.13.27-.22.31-.18.06.15,0,.18a.08.08,0,0,0,0,.14s.19-.08.23,0,0,.16,0,.2.14.07.22.11.08.14.2.21a1.3,1.3,0,0,1,.45.31.84.84,0,0,0,.27.29c.13.1.11.11.29.13a1,1,0,0,1,.37,0l.32.11c.18,0,.23,0,.35.1a3.64,3.64,0,0,0,.35.24A2.38,2.38,0,0,0,9,67c.19.07.24,0,.35.1s.1.13.18.17.34,0,.39.15.09.21.25.2.17-.09.37,0a1.37,1.37,0,0,0,.67.25,2.3,2.3,0,0,0,.52-.07,1.8,1.8,0,0,1,.27-.07c.09,0,.15-.09.3-.14a.51.51,0,0,1,.41,0c.11.07,0,.08,0,.29a.77.77,0,0,0,.39.59l.46.15c.12,0,.21,0,.24.2a4.24,4.24,0,0,0,.1.66c0,.2-.06.33.25.41s.51,0,.66,0,.09.08.29.12.33.08.46,0,.18-.18.41-.08.27.28.44.3.27-.08.42,0a.58.58,0,0,0,.48.1c.09,0,0-.11.27,0s.27.12.35,0,0-.21.1-.22.19.07.4.06.42.18.59.15.18-.22.29-.24a1.57,1.57,0,0,1,.27,0c.21,0,.24-.06.26-.19s0-.48.12-.53a.44.44,0,0,0,.32-.19c.11-.15.08-.25.18-.24s.28.12.37.12.11-.09.28,0a.77.77,0,0,0,.35.06c.07,0,0,0,.13.13s.16.08.25.06.12,0,.14.09.29.13.34.19a1,1,0,0,0,.24.15s0,.09.13.21l.62.44s.05,0,.23.07a1,1,0,0,0,.43,0c.11,0,.19-.19.28-.12s.15.11.22.1.06-.12.15,0,.06.19.25.26a4.34,4.34,0,0,0,.59.14c.1,0,0,0,.16,0a1,1,0,0,0,.24,0c.13,0,.09.07.28.08a.38.38,0,0,0,.33-.07c.11-.07.14-.15.26-.22s0-.09.21-.08a.4.4,0,0,1,.23.08.83.83,0,0,0,.3.07c.1,0,0,.06.16.1s.22,0,.28.1a.48.48,0,0,0,.25.16s0,0,.1.12.28,0,.43,0,.17.08.25,0,0-.19.14-.21a.39.39,0,0,1,.25.1.42.42,0,0,1,.13.19c0,.06.06,0,.07.11s.16.18.06.2-.22,0-.16.1.06.19.2.11.21-.21.26-.1.07.18.15.13.14-.25.19-.1a.37.37,0,0,0,.28.23c.08,0,0,0,.13.08s.26.08.28.14-.05.08.06.12a2.08,2.08,0,0,1,.35.07s.16,0,.15.06-.07.09-.05.15.09.07.13.15.12.18.18.28.15.13.13.18a.13.13,0,0,0,0,.17c.08.05.18.05.2.11s-.07.1-.08.18.11.1.13.17.08,0,.16.11.19.21.11.26-.1,0-.16.11,0,.13.07.23.09.09.08.18,0,.23,0,.27,0,0,.27.09.25.11.31.11.15-.06.2,0a.19.19,0,0,0,.16,0,.25.25,0,0,1,.1,0c.06,0,.07,0,.09,0s.17-.36.22-.21.1.49.2.48.25-.29.28-.14,0,.23.14.22.27-.23.24,0-.08.25,0,.35a1,1,0,0,0,.36.23c.14,0,.28,0,.3,0a.12.12,0,0,0,.12,0c.06,0,0-.1.09-.19s.08,0,.14,0,.06.11.21.06.13-.13.19,0,.17,0,.19.06a.42.42,0,0,1,0,.17.26.26,0,0,0,.09.2.12.12,0,0,1,0,.13s.11,0,.13.06,0,.1,0,.15.07,0,.09.13,0,.13.12.13a.5.5,0,0,1,.26.13,1.2,1.2,0,0,1,.12.11c0,.06.16.06.16.1s0,.1,0,.15.11.15.09.18,0,.08,0,.14a.8.8,0,0,0-.15.29c0,.1-.13.12,0,.27s0,.15.19.19.17,0,.23.09a.36.36,0,0,0,.19.11c.1,0,.08,0,.14,0a.42.42,0,0,0,.2.1.28.28,0,0,0,.2,0c.07,0,0-.14.1-.14s.09,0,.2,0a.28.28,0,0,1,.24,0,1.3,1.3,0,0,1,.19.13.33.33,0,0,1,0,.22c0,.08.22.19.24.24s0,0,0,.19.08.13,0,.27a.35.35,0,0,0,.05.28s.1,0,.11.11,0,.14-.1.22-.08.18-.16.25-.12,0-.08.22,0,.3.1.37a1.89,1.89,0,0,0,.21.25c.13.13.12.08.2.14s.12.14.19,0,.11-.27.16-.2.05.14.14.16.06-.19.2,0,.07.18.18.26.16.11.25,0,.12-.16.2-.16.09,0,.15,0,.13-.11.17-.11,0,0,.11.07.14,0,.24-.08.09-.2.16,0,.07.17.16.15.2,0,.25-.15,0-.25.1-.26a.24.24,0,0,1,.22,0,.7.7,0,0,0,.32.17,2.84,2.84,0,0,1,.47,0c.06,0,.12-.09.18-.07s0,.1.14.21.1.22.27.18.19-.09.27-.11.15-.08.21-.06,0,0,.07-.1.08-.17.18-.14.14,0,.18,0,0,.08.09.07.06.07.14-.12a1.93,1.93,0,0,1,.34-.56c.11-.08.09-.16.28-.09s.25.21.37.12.13-.19.2-.26.14,0,.19-.13.05-.21.13-.27a.78.78,0,0,0,.18-.21c.09-.11.08-.17.15-.18s0-.16.14-.1,0,.17.14.24a.18.18,0,0,0,.24,0c.07-.06,0-.16.14-.1s.24.06.35.1.31.07.34.08.15,0,.14.15,0,.22.12.21.15-.16.2-.21.15-.08.2.07.15.17.14.28-.14.2,0,.26.29,0,.42-.12.07-.08.13-.13.13-.06.14,0,0,.23.09.11.11-.25.19-.17a.35.35,0,0,0,.31.09c.14,0,.15-.09.21-.15s.11-.18.16-.18.07,0,.07-.06-.08-.2.06-.23,0-.08.25,0,.32.2.32,0-.2-.33-.12-.4a.47.47,0,0,1,.32-.12.32.32,0,0,0,.27,0c.09-.07.14-.12.18,0s0,.09.17.14.2,0,.26,0a.6.6,0,0,0,.21.15c.1,0,.13,0,.26.09s.23,0,.25.1,0,.06,0,.15a.37.37,0,0,0,.12.17.73.73,0,0,1,.1.2s0,.31.12.28.27-.26.33-.33.11,0,.23,0,.32,0,.38.09a.32.32,0,0,1,.08.15c0,.06.07.12.19,0s.1-.13.21-.09.33,0,.32.07-.1.1-.18.18-.28.2-.05.18.5-.17.56-.07,0,.5.21.5.15-.31.28-.21,0,.39.17.36.18-.38.27-.32,0,.39.2.49a1.26,1.26,0,0,1,.18.08S54,88.21,54,88.21s0,.2,0,.18.3-.16.41-.14a.78.78,0,0,0,.24,0c.08,0,.31-.08.43-.11A2.84,2.84,0,0,0,55.5,88c.15-.07.64-.35.8-.15s.39.33.49.48a3.89,3.89,0,0,0,.23.47c.17.24.14.38.33.43a2.78,2.78,0,0,1,.61.26c.21.13.27.22.37.26s.16.25.17,0,1.3-15.3,1.3-15.3l.14-.41a.56.56,0,0,0,0-.35c0-.18-.08-.22-.07-.41a2.56,2.56,0,0,0,0-.4c0-.09-.06-.1-.14-.27s-.19-.25-.21-.37,0-.25,0-.33-.09-.1-.17-.21a.71.71,0,0,1-.14-.24s-.07-.11-.21-.16-.29-.15-.3-.23.08-.12-.11-.2a.37.37,0,0,1-.19-.36c0-.05-.1,0-.08-.12a4.87,4.87,0,0,0,.05-.51c0-.14.08-.12,0-.28s-.1-.09-.1-.21.06-.2,0-.26a1.91,1.91,0,0,0-.38-.18,3.72,3.72,0,0,1-.44-.16,2,2,0,0,0-.22-.16c-.07,0-.17,0-.25-.09s-.08-.1-.26-.16-.19,0-.31-.17a7.75,7.75,0,0,0-.76-.69s-.34-3.83-.33-3.85a.24.24,0,0,1,.26-.1c.13,0,.12,0,.25,0a.88.88,0,0,0,.27-.06c.14,0,.12-.06.21-.08s.14-.13.24-.13a1.06,1.06,0,0,0,.26,0c.08,0,.07-.11.19-.13s.16-.08.21-.13.23-.29.37-.2.07.23.24.16,0-.14.22-.29.3-.39.48-.32.32,0,.42.25a.6.6,0,0,0,.34.3c.1,0,.15-.06.23,0s0,.14.19.12.28,0,.33-.13.08-.33.18-.34.35,0,.28-.12-.28-.06-.28-.19.21-.18.11-.34-.25-.15-.13-.27.33-.08.13-.21-.36-.13-.35-.27-.11-.13-.15-.24,0-.16,0-.26a.52.52,0,0,0-.39-.19c-.16,0-.36-.08-.43-.06s-.07.17-.17.11-.14-.12-.2-.11,0,.17-.14.13-.13-.16-.21-.12,0,.13-.18.11a1.09,1.09,0,0,0-.47,0c-.07,0,0-.06-.19,0s-.09.1-.19.08-.17-.17-.27-.17a1.66,1.66,0,0,0-.41.15c-.08,0-.16-.1-.18-.13S56,57.37,56,57.34a.38.38,0,0,1,.27-.1c.13,0,.28-.21.39-.14a.58.58,0,0,0,.22.1s.06-.18.2-.13.19.07.27,0,.2-.27.42-.23.49,0,.6,0,.15,0,.23.08.05.1.26.06,6.7-.69,6.7-.69a.66.66,0,0,0-.23-.27c-.14-.07-.25-.11-.32-.24s-.24-.25-.13-.41a1.68,1.68,0,0,1,.49-.48c.1,0,.3,0,.36.14a1.72,1.72,0,0,0,.18.43.92.92,0,0,0,.75.38c.31,0,.42-.06.53-.17s.67-1.05.89-1.27.45-.57.65-.66.53-.34.7-.28.24,0,.35.25,1.41,1.84,1.53,2.23a9.69,9.69,0,0,1,.24,1.09,5,5,0,0,1,.1.93c0,.28-.22.5,0,.53a1.77,1.77,0,0,0,.77-.13c.12-.06.28-.07.31-.25a.46.46,0,0,0,0-.41,3.46,3.46,0,0,1-.18-.37c0-.08,0-.12-.08-.16a.27.27,0,0,1-.11-.2.44.44,0,0,0-.08-.21.76.76,0,0,1-.06-.27,2.36,2.36,0,0,1-.12-.45c0-.16-.14-.2-.17-.25a1.29,1.29,0,0,1-.06-.22.56.56,0,0,0-.16-.24c-.06-.07,0-.11-.09-.23a1.28,1.28,0,0,0-.14-.23.64.64,0,0,0-.2-.2c-.08-.06-.17-.08-.21-.22s-.06-1-.07-1-.19-.08-.27-.14a.3.3,0,0,1-.14-.25.7.7,0,0,0-.13-.33c-.06-.1-.11-.21-.06-.29s.21-.17.1-.3-.22-.26-.31-.28-.18,0-.25-.11a2,2,0,0,0-.34-.45,2.94,2.94,0,0,1-.24-.23,1,1,0,0,0-.23-.15.7.7,0,0,1-.22-.17s-.08-.11-.19-.11-.18.24-.25.19-.1-.22-.17-.32-.25-.23-.25-.27.08-.14,0-.2a.65.65,0,0,0-.36,0c-.11,0-.25-.16-.35-.18a.38.38,0,0,0-.26.07c-.1.05-.14,0-.2.08s0,.11-.13.12-.2.08-.17-.08a1.06,1.06,0,0,1,.31-.54c.12-.1,1.73-2,1.75-2l.44-.29s.11-.31.18-.46,0-.22,0-.29a.56.56,0,0,1-.06-.21c0-.09,0-.1-.14-.18a.41.41,0,0,1-.12-.26c0-.07-.08-.11-.11-.2s0-.17-.05-.26a.68.68,0,0,1-.09-.16A.4.4,0,0,0,68.5,45a1,1,0,0,1-.17-.18c0-.06-.1-.14-.15-.14a.57.57,0,0,1-.24,0,2.48,2.48,0,0,1-.47-.05s-.17-.39-.28-.6-.31-.41-.36-.54.06-.16-.15-.31a2,2,0,0,1-.29-.21c-.1-.07-.3-.13-.37-.38a1.31,1.31,0,0,1-.09-.63.59.59,0,0,0,.06-.36c0-.13-.13-.32-.13-.38s0-.09-.11-.23-.26-.22-.23-.29a1.3,1.3,0,0,1,.18-.25c0-.07.13-1.32.16-1.52a2,2,0,0,1,.23-.66c.09-.12.32-.33.24-.6a3.63,3.63,0,0,0-.18-.46c0-.12,0-.17,0-.28s-.21-.12-.24-.24-.2-.11,0-.3.8-.51,1-.88a3,3,0,0,0,.08-.94.79.79,0,0,1,.2-.47c.15-.18.35-.73.53-.94s.5-.41.46-.57a.91.91,0,0,0-.25-.41,1.12,1.12,0,0,1-.22-.39.45.45,0,0,0-.27-.33,5.4,5.4,0,0,0-1.2-.21c-.33,0-.73-.13-1,0a4.27,4.27,0,0,0-.49.28c-.2.16-.16.24-.39.23s-.48-.15-.72-.1a1.93,1.93,0,0,0-.42.12,4.3,4.3,0,0,1-.41.16,2.42,2.42,0,0,1-.47.05,1.29,1.29,0,0,0-.45.11c-.15.06-.13,0-.28.07l-.28.17s-.08-.08-.2-.07-.06.17-.21.19a.56.56,0,0,1-.42,0,.59.59,0,0,0-.51-.14,1.18,1.18,0,0,1-.53.07l-.66,0c-.27,0-.37-.06-.45,0a2.46,2.46,0,0,1-.24.16.88.88,0,0,0-.19.17.81.81,0,0,0-.2.17.63.63,0,0,1-.36.27c-.12,0,0,0-.25-.09s-.17-.15-.32-.11-.16.07-.25,0a.92.92,0,0,1-.2-.1L52,28.79s-.13-.09-.18-.05-.08.07-.19.16a.36.36,0,0,1-.29.11,1,1,0,0,1-.24,0,.53.53,0,0,1-.28-.06c-.08,0-.11-.11-.22-.09a.32.32,0,0,1-.25,0,.23.23,0,0,0-.22,0,.35.35,0,0,1-.33-.11c-.1-.11-.14-.25-.28-.16s0,.18-.23.09-.13-.26-.33-.13a1.62,1.62,0,0,1-.34.2c-.08,0-.17,0-.23.08s-.09.15-.17.16-.12,0-.19,0-.2.15-.27.21a.62.62,0,0,1-.25.2c-.1,0,0-.05-.22,0s-.13.05-.29,0-.24-.2-.4-.11a1.36,1.36,0,0,1-.32.14s-.17,0-.22,0-.15.2-.27.19-.15-.1-.2-.1-.1.16-.23.18-.16-.05-.24,0a1.55,1.55,0,0,0-.29.09c-.12.05-.19,0-.27,0s-.16.08-.21.06,0-.14-.14-.17a2.24,2.24,0,0,0-.28-.11c-.07,0-.1,0-.13.08s0,.22-.11.18-.09-.14-.2-.11a.66.66,0,0,0-.2.07s-.07-.06-.15,0-.07.14-.17.15-.15-.09-.29,0-.15.13-.22.13a2,2,0,0,1-.26,0L42,29.87s-1.19-.67-1.33-.78-.39-.23-.54-.35-.28-.07-.32-.29-.08-.4-.27-.46a2.68,2.68,0,0,1-.64-.2c-.12-.1-.32,0-.26-.29a.53.53,0,0,0-.06-.48c-.08-.14-.13-.1-.1-.35a9.64,9.64,0,0,0,0-1.09.89.89,0,0,1-.15-.46c0-.18,0-.44.19-.53s.3-.19.28-.23a.24.24,0,0,1-.06-.2,3.64,3.64,0,0,0,0-.66c0-.11-.12-.14-.16-.26s-.13-.23-.08-.31a.32.32,0,0,0,0-.27c0-.07-.19-.14-.23-.17L37,21.33l-1.2-2.12s.25-.1.13-.27-.24-.2-.34-.17,0,.11-.24.14a.64.64,0,0,1-.51-.25.64.64,0,0,0-.31-.22c-.08,0-.94.47-1,.49a1.42,1.42,0,0,1-.64,0c-.17-.07-.22-.16-.15-.21A.77.77,0,0,1,33,18.6a.93.93,0,0,0,.31-.34,8.13,8.13,0,0,1,.53-.72,1.78,1.78,0,0,0,.31-.44,13.26,13.26,0,0,0,.31-1.71c0-.22,0-.72,0-.86s-.33-.45-.36-.78a6.16,6.16,0,0,1,.07-1l.58-1.7a4.19,4.19,0,0,1,.27-.55c.11-.16,2.18-2.83,2.26-2.91Z"/><g class="cls-2"><polygon class="cls-1" points="0 45.05 0 50.62 0 50.62 0 55.81 0 56.19 0 61.76 0 67.33 73.56 67.33 73.56 61.76 73.56 56.19 73.56 55.81 73.56 50.62 73.56 50.62 73.56 45.05 0 45.05"/><rect class="cls-1" y="67.33" width="73.55" height="23.69"/><polygon class="cls-1" points="0 0 0 22.76 0 28.33 0 33.53 0 33.91 0 39.48 0 45.05 73.56 45.05 73.56 39.48 73.56 33.91 73.56 33.53 73.56 28.33 73.56 22.76 73.56 0 0 0"/></g></g></g></svg>