<svg xmlns="http://www.w3.org/2000/svg" viewBox="0 0 91.93 73.84"><defs><style>.cls-1{fill:#ecb900;}</style></defs><title>Fichier 10</title><g id="Calque_2" data-name="Calque 2"><g id="Calque_1-2" data-name="Calque 1"><path class="cls-1" d="M13.51,62.91c-.3-2.24-1.39-4.32.63-6.37.68-.69.88-1.76,2.15-1.88.25,0,.43-.83.66-1.32-1.43,0-2.79-2.23-2.67-3.51.16-1.72,1.64-2.57,2.2-4,.25-.66.32-.91-.44-1.37a3.62,3.62,0,0,1-1.68-2.21,5.31,5.31,0,0,0-1.46-2.45,3.18,3.18,0,0,1-.23-.56,7.41,7.41,0,0,1,2.1-.14c1.29.3,1.78-.42,2.11-1.41s.91-2-.18-2.88c-.66-.57-.4-1,.31-1.35a1.17,1.17,0,0,0,.8-1.58,23.25,23.25,0,0,1-.09-3.45c0-.75-.23-1.49-.36-2.3l5.43-5.28C22,20.44,21.47,20,21,20c-1.27.12-1.43-.39-1.15-1.45a3.28,3.28,0,0,0-.15-1.14l-4.32-.24c-.5,1.17-1.81,1.58-3.26,1.17a6.79,6.79,0,0,0-2.66-.12c-.54.07-1.12,1-1.53,0-.18-.48.13-1.15.24-1.93-.92-.8-.92-.8-5.76,1.77.34-1.42.59-2.52.87-3.69l-.56-.18,1-1.07c-1.41-.14-1.43-.27-.32-2.46a8,8,0,0,0-1,.49,5.86,5.86,0,0,0-.69.63l-.4-.12c.17-.72.34-1.43.52-2.22l-.62.1L0,7.84c-.18-1.14.38-2,1.6-2.8,1.87-1.28,4-.56,5.69-1.69C6.18,2.66,6.75,2,7.79,1.43,8.41,1.07,8.93.52,9.56.21c1.17-.57,3.65.12,4.68,1a3.38,3.38,0,0,0,2,.65c2,0,4-.05,6.06-.16.93-.05,1.85-.27,2.55-.37,2.25.52,4.38,1.06,6.52,1.49a35.86,35.86,0,0,0,4.37.6,9.16,9.16,0,0,0,2.17-.31,18.55,18.55,0,0,1,3.79-.64,7.28,7.28,0,0,1,2.63,1.07,1.52,1.52,0,0,0,1.82-.17c1.1-.8,2.36-.15,3.36.39A5.69,5.69,0,0,0,53.91,4a2.58,2.58,0,0,1,1.28.14c.37.11.73.56,1.05.52,2.09-.32,1.54.83,1.07,1.82,1.69.4,3.31.76,4.91,1.18.28.07.44.5.72.62.67.28,1.45.77,2.06.63a2.29,2.29,0,0,1,2.19.72,1.88,1.88,0,0,0,1.06.46c1.43,0,2.87,0,4.38,0,.09-.45.19-.91.3-1.48,1.7.46,3.31.85,4.87,1.38.35.12.56.78.72,1.22a8.67,8.67,0,0,1,.2,1.56c1.64-.88,3.11-1.14,4.16.7a2.4,2.4,0,0,1,3.2-.24A1.71,1.71,0,0,0,87.53,13c1.81-1.06,3.1-1,4.39.55.11.13-.46.84-.71,1.27l-.43-.07a7.89,7.89,0,0,1,.77,1.5c.49,1.84-1.16,2.4-2.16,3.27-.65.55-1.59.73-2.31,1.22-1.12.76-2.15,1.65-3.24,2.46a3.49,3.49,0,0,1-1,.56c-2.32.7-4.7,1.24-7,2.11-1,.38-1.75,1.41-2.66,2.19l1.62,1.38c-3-.06-3.38,2.29-4.48,3.87-1.48,2.12-2.85,4.33-4.14,6.58-1.16,2,.25,5.92,2.33,6.9A8.62,8.62,0,0,1,70,48c-1.5.91-2.79,1.63-4,2.45a4.42,4.42,0,0,0-1.42,1.4,25.08,25.08,0,0,0-1.25,2.85,10.56,10.56,0,0,1-1,2.32c-.63.85-.3,1.22.53,1.57l-.06.39-3.42.34c-.36,0-.87-.1-1.06.1-1.38,1.31-3.3,2.07-3.85,4.27-.33,1.34-1.33,2.51-2.07,3.83-1.87-1.7-2-1.67-3.76-.26a2.27,2.27,0,0,1-1.27.2c-1.39,0-2.78,0-4.16-.11s-2.9-.19-4.36-.21a8.43,8.43,0,0,0-2.85.25c-.7.25-1.17,1.08-1.82,1.52a4.07,4.07,0,0,1-1.59.55c-1.34.21-2.59.44-3.21,1.92a7.57,7.57,0,0,1-1.48,2.15,1.43,1.43,0,0,1-1.33.25c-1.54-.8-3.24-1.45-4-3.19a8.42,8.42,0,0,1-.36-1.52s.05-.12,0-.12c-1.75-.87-.84-3.08-2.16-4.22a8,8,0,0,0-6.46-1.81"/></g></g></svg>