<?xml version="1.0" encoding="utf-8"?>
<!-- Generator: Adobe Illustrator 22.0.1, SVG Export Plug-In . SVG Version: 6.00 Build 0)  -->
<svg version="1.1" id="Calque_1" xmlns="http://www.w3.org/2000/svg" xmlns:xlink="http://www.w3.org/1999/xlink" x="0px" y="0px"
	 viewBox="0 0 50 50" style="enable-background:new 0 0 50 50;" xml:space="preserve">
<style type="text/css">
	.st0{fill:#FFFFFF;}
</style>
<g>
	<path class="st0" d="M24.9,30.1c2.8,0,5-2.2,5-5c0-1.1-0.4-2.1-0.9-2.9c-0.9-1.3-2.4-2.1-4-2.1c-1.7,0-3.1,0.8-4.1,2.1
		c-0.6,0.8-0.9,1.8-0.9,2.9C19.9,27.8,22.2,30.1,24.9,30.1L24.9,30.1z M24.9,30.1"/>
	<path class="st0" d="M35.8,19v-4.8h-0.6l-4.2,0l0,4.8L35.8,19z M35.8,19"/>
	<path class="st0" d="M24.9,0.1C11.2,0.1,0,11.3,0,25.1C0,38.8,11.2,50,24.9,50c13.8,0,24.9-11.2,24.9-24.9
		C49.9,11.3,38.7,0.1,24.9,0.1L24.9,0.1z M39.1,22.2v11.6c0,3-2.5,5.5-5.5,5.5H16.2c-3,0-5.5-2.5-5.5-5.5V16.4c0-3,2.5-5.5,5.5-5.5
		h17.4c3,0,5.5,2.5,5.5,5.5V22.2z M39.1,22.2"/>
	<path class="st0" d="M32.7,25.1c0,4.3-3.5,7.8-7.8,7.8c-4.3,0-7.8-3.5-7.8-7.8c0-1,0.2-2,0.6-2.9h-4.2v11.6c0,1.5,1.2,2.7,2.7,2.7
		h17.4c1.5,0,2.7-1.2,2.7-2.7V22.2h-4.2C32.5,23.1,32.7,24,32.7,25.1L32.7,25.1z M32.7,25.1"/>
</g>
</svg>
