<svg xmlns="http://www.w3.org/2000/svg" viewBox="0 0 95.72 76.92"><defs><style>.cls-1{fill:#ecb900;}</style></defs><title>Fichier 9</title><g id="Calque_2" data-name="Calque 2"><g id="Calque_1-2" data-name="Calque 1"><path class="cls-1" d="M95.72,32.51c-2.18,2.16-2.33,2.59-1.14,4-.79,0-1.38.05-2,0-2.39-.21-4.77-.55-7.15-.63a22.63,22.63,0,0,0-4.48.46c-.19,0-.44.71-.39,1a10.33,10.33,0,0,0,.65,1.85c-1.83.43-3.5.87-5.2,1.2-1,.2-1.6.57-1.44,1.75,0,.36-.39.76-.47,1.16-.14.76-.19,1.54-.26,2.15l1.68,1.07c-.25,1-.43,1.77-.69,2.57a1,1,0,0,1-.56.51,11.35,11.35,0,0,1-2.33.7,6.2,6.2,0,0,0-3.7,1.75,19.74,19.74,0,0,1-2.9,2.11c-1.7,1.09-3.44,2.06-4.22,4.13a11.91,11.91,0,0,1-1.69,2.38,6.69,6.69,0,0,0-1.1-1,2.38,2.38,0,0,0-1.16-.21,17.53,17.53,0,0,0-2.41.18c-1.5.26-3,.66-4.48.88a4.46,4.46,0,0,1-2.15-.16c-.88-.32-1.43.1-2.11.46a17.87,17.87,0,0,1-1.89.71,7.61,7.61,0,0,0-1.74.79C40.7,63.61,39,64.94,37.3,66.25c-.28.21-.52.56-.82.63-1.33.31-1.44,1.24-1.42,2.37,0,2.52,0,5,0,7.67H0a.42.42,0,0,1,0-.16c1.06-2.87,3.8-2.15,5.91-2.83a51,51,0,0,0,6.67-2.61c.83-.4,1.26-1.56,2-2.21a21.74,21.74,0,0,1,3.58-2.71,16,16,0,0,0,6-6.41c.3-.53.75-1,1-1.53a36.32,36.32,0,0,0,2.22-4.29,3.07,3.07,0,0,0-1.54-4c.05-2.45.1-4.68.16-6.92a1.07,1.07,0,0,1,.07-.51,22.11,22.11,0,0,1,3.24-5.19,4,4,0,0,0,1.08-3.39,3.08,3.08,0,0,1,1.05-3.07,18.2,18.2,0,0,0,4.4-4.91c.58-.95,2-1.5,3.13-2a42.34,42.34,0,0,0,8.65-4.38,12.14,12.14,0,0,0,3-3.33A54.6,54.6,0,0,0,56.47,2.82c.16-.55.37-1.09.49-1.44L61.11,0a9.83,9.83,0,0,0,.54,2A9.25,9.25,0,0,0,69,7.33a9.49,9.49,0,0,0,2.8-.64c.32-.08.76-.2,1-.05.77.5,1.21.19,1.59-.57,2.08,1.32,4,1.28,5.71-.65a6.39,6.39,0,0,0,1,1.86,3.13,3.13,0,0,0,3.14.48,1.76,1.76,0,0,1,2.13.7,35.22,35.22,0,0,0,3.4,2.94c-1,.94-.22,1.63.42,2.34l-.34.07c.14.87.34,1.73.4,2.6.11,1.62.13,3.24.2,5.11.87.36.79,1.35.35,2.33-.57,1.28.15,2.15.81,3.06a2.14,2.14,0,0,1,.29,1.36,4.31,4.31,0,0,0,1.35,2.45,14.32,14.32,0,0,0,2.52,1.79"/></g></g></svg>